%TF.GenerationSoftware,KiCad,Pcbnew,9.0.6*%
%TF.CreationDate,2026-07-06T13:08:54+05:00*%
%TF.ProjectId,ESP32SATTRACKER,45535033-3253-4415-9454-5241434b4552,rev?*%
%TF.SameCoordinates,Original*%
%TF.FileFunction,Legend,Top*%
%TF.FilePolarity,Positive*%
%FSLAX46Y46*%
G04 Gerber Fmt 4.6, Leading zero omitted, Abs format (unit mm)*
G04 Created by KiCad (PCBNEW 9.0.6) date 2026-07-06 13:08:54*
%MOMM*%
%LPD*%
G01*
G04 APERTURE LIST*
%ADD10C,0.100000*%
%ADD11C,0.200000*%
%ADD12C,0.500000*%
%ADD13C,1.000000*%
%ADD14C,0.300000*%
%ADD15C,0.400000*%
%ADD16C,1.250000*%
%ADD17C,0.150000*%
%ADD18C,0.120000*%
G04 APERTURE END LIST*
D10*
X80956265Y-66424800D02*
X81099122Y-66472419D01*
X81099122Y-66472419D02*
X81337217Y-66472419D01*
X81337217Y-66472419D02*
X81432455Y-66424800D01*
X81432455Y-66424800D02*
X81480074Y-66377180D01*
X81480074Y-66377180D02*
X81527693Y-66281942D01*
X81527693Y-66281942D02*
X81527693Y-66186704D01*
X81527693Y-66186704D02*
X81480074Y-66091466D01*
X81480074Y-66091466D02*
X81432455Y-66043847D01*
X81432455Y-66043847D02*
X81337217Y-65996228D01*
X81337217Y-65996228D02*
X81146741Y-65948609D01*
X81146741Y-65948609D02*
X81051503Y-65900990D01*
X81051503Y-65900990D02*
X81003884Y-65853371D01*
X81003884Y-65853371D02*
X80956265Y-65758133D01*
X80956265Y-65758133D02*
X80956265Y-65662895D01*
X80956265Y-65662895D02*
X81003884Y-65567657D01*
X81003884Y-65567657D02*
X81051503Y-65520038D01*
X81051503Y-65520038D02*
X81146741Y-65472419D01*
X81146741Y-65472419D02*
X81384836Y-65472419D01*
X81384836Y-65472419D02*
X81527693Y-65520038D01*
X82527693Y-66377180D02*
X82480074Y-66424800D01*
X82480074Y-66424800D02*
X82337217Y-66472419D01*
X82337217Y-66472419D02*
X82241979Y-66472419D01*
X82241979Y-66472419D02*
X82099122Y-66424800D01*
X82099122Y-66424800D02*
X82003884Y-66329561D01*
X82003884Y-66329561D02*
X81956265Y-66234323D01*
X81956265Y-66234323D02*
X81908646Y-66043847D01*
X81908646Y-66043847D02*
X81908646Y-65900990D01*
X81908646Y-65900990D02*
X81956265Y-65710514D01*
X81956265Y-65710514D02*
X82003884Y-65615276D01*
X82003884Y-65615276D02*
X82099122Y-65520038D01*
X82099122Y-65520038D02*
X82241979Y-65472419D01*
X82241979Y-65472419D02*
X82337217Y-65472419D01*
X82337217Y-65472419D02*
X82480074Y-65520038D01*
X82480074Y-65520038D02*
X82527693Y-65567657D01*
X83432455Y-66472419D02*
X82956265Y-66472419D01*
X82956265Y-66472419D02*
X82956265Y-65472419D01*
D11*
X88990000Y-87260000D02*
X131730000Y-87260000D01*
X131730000Y-164370000D01*
X88990000Y-164370000D01*
X88990000Y-87260000D01*
D10*
X114724800Y-159743734D02*
X114772419Y-159600877D01*
X114772419Y-159600877D02*
X114772419Y-159362782D01*
X114772419Y-159362782D02*
X114724800Y-159267544D01*
X114724800Y-159267544D02*
X114677180Y-159219925D01*
X114677180Y-159219925D02*
X114581942Y-159172306D01*
X114581942Y-159172306D02*
X114486704Y-159172306D01*
X114486704Y-159172306D02*
X114391466Y-159219925D01*
X114391466Y-159219925D02*
X114343847Y-159267544D01*
X114343847Y-159267544D02*
X114296228Y-159362782D01*
X114296228Y-159362782D02*
X114248609Y-159553258D01*
X114248609Y-159553258D02*
X114200990Y-159648496D01*
X114200990Y-159648496D02*
X114153371Y-159696115D01*
X114153371Y-159696115D02*
X114058133Y-159743734D01*
X114058133Y-159743734D02*
X113962895Y-159743734D01*
X113962895Y-159743734D02*
X113867657Y-159696115D01*
X113867657Y-159696115D02*
X113820038Y-159648496D01*
X113820038Y-159648496D02*
X113772419Y-159553258D01*
X113772419Y-159553258D02*
X113772419Y-159315163D01*
X113772419Y-159315163D02*
X113820038Y-159172306D01*
X114772419Y-158743734D02*
X113772419Y-158743734D01*
X113772419Y-158743734D02*
X113772419Y-158505639D01*
X113772419Y-158505639D02*
X113820038Y-158362782D01*
X113820038Y-158362782D02*
X113915276Y-158267544D01*
X113915276Y-158267544D02*
X114010514Y-158219925D01*
X114010514Y-158219925D02*
X114200990Y-158172306D01*
X114200990Y-158172306D02*
X114343847Y-158172306D01*
X114343847Y-158172306D02*
X114534323Y-158219925D01*
X114534323Y-158219925D02*
X114629561Y-158267544D01*
X114629561Y-158267544D02*
X114724800Y-158362782D01*
X114724800Y-158362782D02*
X114772419Y-158505639D01*
X114772419Y-158505639D02*
X114772419Y-158743734D01*
X114867657Y-157981830D02*
X114867657Y-157219925D01*
X114677180Y-156410401D02*
X114724800Y-156458020D01*
X114724800Y-156458020D02*
X114772419Y-156600877D01*
X114772419Y-156600877D02*
X114772419Y-156696115D01*
X114772419Y-156696115D02*
X114724800Y-156838972D01*
X114724800Y-156838972D02*
X114629561Y-156934210D01*
X114629561Y-156934210D02*
X114534323Y-156981829D01*
X114534323Y-156981829D02*
X114343847Y-157029448D01*
X114343847Y-157029448D02*
X114200990Y-157029448D01*
X114200990Y-157029448D02*
X114010514Y-156981829D01*
X114010514Y-156981829D02*
X113915276Y-156934210D01*
X113915276Y-156934210D02*
X113820038Y-156838972D01*
X113820038Y-156838972D02*
X113772419Y-156696115D01*
X113772419Y-156696115D02*
X113772419Y-156600877D01*
X113772419Y-156600877D02*
X113820038Y-156458020D01*
X113820038Y-156458020D02*
X113867657Y-156410401D01*
X114724800Y-156029448D02*
X114772419Y-155886591D01*
X114772419Y-155886591D02*
X114772419Y-155648496D01*
X114772419Y-155648496D02*
X114724800Y-155553258D01*
X114724800Y-155553258D02*
X114677180Y-155505639D01*
X114677180Y-155505639D02*
X114581942Y-155458020D01*
X114581942Y-155458020D02*
X114486704Y-155458020D01*
X114486704Y-155458020D02*
X114391466Y-155505639D01*
X114391466Y-155505639D02*
X114343847Y-155553258D01*
X114343847Y-155553258D02*
X114296228Y-155648496D01*
X114296228Y-155648496D02*
X114248609Y-155838972D01*
X114248609Y-155838972D02*
X114200990Y-155934210D01*
X114200990Y-155934210D02*
X114153371Y-155981829D01*
X114153371Y-155981829D02*
X114058133Y-156029448D01*
X114058133Y-156029448D02*
X113962895Y-156029448D01*
X113962895Y-156029448D02*
X113867657Y-155981829D01*
X113867657Y-155981829D02*
X113820038Y-155934210D01*
X113820038Y-155934210D02*
X113772419Y-155838972D01*
X113772419Y-155838972D02*
X113772419Y-155600877D01*
X113772419Y-155600877D02*
X113820038Y-155458020D01*
X193124800Y-132543734D02*
X193172419Y-132400877D01*
X193172419Y-132400877D02*
X193172419Y-132162782D01*
X193172419Y-132162782D02*
X193124800Y-132067544D01*
X193124800Y-132067544D02*
X193077180Y-132019925D01*
X193077180Y-132019925D02*
X192981942Y-131972306D01*
X192981942Y-131972306D02*
X192886704Y-131972306D01*
X192886704Y-131972306D02*
X192791466Y-132019925D01*
X192791466Y-132019925D02*
X192743847Y-132067544D01*
X192743847Y-132067544D02*
X192696228Y-132162782D01*
X192696228Y-132162782D02*
X192648609Y-132353258D01*
X192648609Y-132353258D02*
X192600990Y-132448496D01*
X192600990Y-132448496D02*
X192553371Y-132496115D01*
X192553371Y-132496115D02*
X192458133Y-132543734D01*
X192458133Y-132543734D02*
X192362895Y-132543734D01*
X192362895Y-132543734D02*
X192267657Y-132496115D01*
X192267657Y-132496115D02*
X192220038Y-132448496D01*
X192220038Y-132448496D02*
X192172419Y-132353258D01*
X192172419Y-132353258D02*
X192172419Y-132115163D01*
X192172419Y-132115163D02*
X192220038Y-131972306D01*
X192172419Y-131686591D02*
X192172419Y-131115163D01*
X193172419Y-131400877D02*
X192172419Y-131400877D01*
X192648609Y-130781829D02*
X192648609Y-130448496D01*
X193172419Y-130305639D02*
X193172419Y-130781829D01*
X193172419Y-130781829D02*
X192172419Y-130781829D01*
X192172419Y-130781829D02*
X192172419Y-130305639D01*
X193172419Y-129877067D02*
X192172419Y-129877067D01*
X192172419Y-129877067D02*
X192172419Y-129496115D01*
X192172419Y-129496115D02*
X192220038Y-129400877D01*
X192220038Y-129400877D02*
X192267657Y-129353258D01*
X192267657Y-129353258D02*
X192362895Y-129305639D01*
X192362895Y-129305639D02*
X192505752Y-129305639D01*
X192505752Y-129305639D02*
X192600990Y-129353258D01*
X192600990Y-129353258D02*
X192648609Y-129400877D01*
X192648609Y-129400877D02*
X192696228Y-129496115D01*
X192696228Y-129496115D02*
X192696228Y-129877067D01*
X193267657Y-129115163D02*
X193267657Y-128353258D01*
X192886704Y-128162781D02*
X192886704Y-127686591D01*
X193172419Y-128258019D02*
X192172419Y-127924686D01*
X192172419Y-127924686D02*
X193172419Y-127591353D01*
X192172419Y-127353257D02*
X192172419Y-126686591D01*
X192172419Y-126686591D02*
X193172419Y-127353257D01*
X193172419Y-127353257D02*
X193172419Y-126686591D01*
X193172419Y-126305638D02*
X192172419Y-126305638D01*
X117072419Y-93096115D02*
X116072419Y-93096115D01*
X116072419Y-93096115D02*
X116072419Y-92858020D01*
X116072419Y-92858020D02*
X116120038Y-92715163D01*
X116120038Y-92715163D02*
X116215276Y-92619925D01*
X116215276Y-92619925D02*
X116310514Y-92572306D01*
X116310514Y-92572306D02*
X116500990Y-92524687D01*
X116500990Y-92524687D02*
X116643847Y-92524687D01*
X116643847Y-92524687D02*
X116834323Y-92572306D01*
X116834323Y-92572306D02*
X116929561Y-92619925D01*
X116929561Y-92619925D02*
X117024800Y-92715163D01*
X117024800Y-92715163D02*
X117072419Y-92858020D01*
X117072419Y-92858020D02*
X117072419Y-93096115D01*
X116977180Y-91524687D02*
X117024800Y-91572306D01*
X117024800Y-91572306D02*
X117072419Y-91715163D01*
X117072419Y-91715163D02*
X117072419Y-91810401D01*
X117072419Y-91810401D02*
X117024800Y-91953258D01*
X117024800Y-91953258D02*
X116929561Y-92048496D01*
X116929561Y-92048496D02*
X116834323Y-92096115D01*
X116834323Y-92096115D02*
X116643847Y-92143734D01*
X116643847Y-92143734D02*
X116500990Y-92143734D01*
X116500990Y-92143734D02*
X116310514Y-92096115D01*
X116310514Y-92096115D02*
X116215276Y-92048496D01*
X116215276Y-92048496D02*
X116120038Y-91953258D01*
X116120038Y-91953258D02*
X116072419Y-91810401D01*
X116072419Y-91810401D02*
X116072419Y-91715163D01*
X116072419Y-91715163D02*
X116120038Y-91572306D01*
X116120038Y-91572306D02*
X116167657Y-91524687D01*
X81056265Y-64024800D02*
X81199122Y-64072419D01*
X81199122Y-64072419D02*
X81437217Y-64072419D01*
X81437217Y-64072419D02*
X81532455Y-64024800D01*
X81532455Y-64024800D02*
X81580074Y-63977180D01*
X81580074Y-63977180D02*
X81627693Y-63881942D01*
X81627693Y-63881942D02*
X81627693Y-63786704D01*
X81627693Y-63786704D02*
X81580074Y-63691466D01*
X81580074Y-63691466D02*
X81532455Y-63643847D01*
X81532455Y-63643847D02*
X81437217Y-63596228D01*
X81437217Y-63596228D02*
X81246741Y-63548609D01*
X81246741Y-63548609D02*
X81151503Y-63500990D01*
X81151503Y-63500990D02*
X81103884Y-63453371D01*
X81103884Y-63453371D02*
X81056265Y-63358133D01*
X81056265Y-63358133D02*
X81056265Y-63262895D01*
X81056265Y-63262895D02*
X81103884Y-63167657D01*
X81103884Y-63167657D02*
X81151503Y-63120038D01*
X81151503Y-63120038D02*
X81246741Y-63072419D01*
X81246741Y-63072419D02*
X81484836Y-63072419D01*
X81484836Y-63072419D02*
X81627693Y-63120038D01*
X82056265Y-64072419D02*
X82056265Y-63072419D01*
X82056265Y-63072419D02*
X82294360Y-63072419D01*
X82294360Y-63072419D02*
X82437217Y-63120038D01*
X82437217Y-63120038D02*
X82532455Y-63215276D01*
X82532455Y-63215276D02*
X82580074Y-63310514D01*
X82580074Y-63310514D02*
X82627693Y-63500990D01*
X82627693Y-63500990D02*
X82627693Y-63643847D01*
X82627693Y-63643847D02*
X82580074Y-63834323D01*
X82580074Y-63834323D02*
X82532455Y-63929561D01*
X82532455Y-63929561D02*
X82437217Y-64024800D01*
X82437217Y-64024800D02*
X82294360Y-64072419D01*
X82294360Y-64072419D02*
X82056265Y-64072419D01*
X83008646Y-63786704D02*
X83484836Y-63786704D01*
X82913408Y-64072419D02*
X83246741Y-63072419D01*
X83246741Y-63072419D02*
X83580074Y-64072419D01*
X81227693Y-60320038D02*
X81132455Y-60272419D01*
X81132455Y-60272419D02*
X80989598Y-60272419D01*
X80989598Y-60272419D02*
X80846741Y-60320038D01*
X80846741Y-60320038D02*
X80751503Y-60415276D01*
X80751503Y-60415276D02*
X80703884Y-60510514D01*
X80703884Y-60510514D02*
X80656265Y-60700990D01*
X80656265Y-60700990D02*
X80656265Y-60843847D01*
X80656265Y-60843847D02*
X80703884Y-61034323D01*
X80703884Y-61034323D02*
X80751503Y-61129561D01*
X80751503Y-61129561D02*
X80846741Y-61224800D01*
X80846741Y-61224800D02*
X80989598Y-61272419D01*
X80989598Y-61272419D02*
X81084836Y-61272419D01*
X81084836Y-61272419D02*
X81227693Y-61224800D01*
X81227693Y-61224800D02*
X81275312Y-61177180D01*
X81275312Y-61177180D02*
X81275312Y-60843847D01*
X81275312Y-60843847D02*
X81084836Y-60843847D01*
X81703884Y-61272419D02*
X81703884Y-60272419D01*
X81703884Y-60272419D02*
X82275312Y-61272419D01*
X82275312Y-61272419D02*
X82275312Y-60272419D01*
X82751503Y-61272419D02*
X82751503Y-60272419D01*
X82751503Y-60272419D02*
X82989598Y-60272419D01*
X82989598Y-60272419D02*
X83132455Y-60320038D01*
X83132455Y-60320038D02*
X83227693Y-60415276D01*
X83227693Y-60415276D02*
X83275312Y-60510514D01*
X83275312Y-60510514D02*
X83322931Y-60700990D01*
X83322931Y-60700990D02*
X83322931Y-60843847D01*
X83322931Y-60843847D02*
X83275312Y-61034323D01*
X83275312Y-61034323D02*
X83227693Y-61129561D01*
X83227693Y-61129561D02*
X83132455Y-61224800D01*
X83132455Y-61224800D02*
X82989598Y-61272419D01*
X82989598Y-61272419D02*
X82751503Y-61272419D01*
X112224800Y-160473734D02*
X112272419Y-160330877D01*
X112272419Y-160330877D02*
X112272419Y-160092782D01*
X112272419Y-160092782D02*
X112224800Y-159997544D01*
X112224800Y-159997544D02*
X112177180Y-159949925D01*
X112177180Y-159949925D02*
X112081942Y-159902306D01*
X112081942Y-159902306D02*
X111986704Y-159902306D01*
X111986704Y-159902306D02*
X111891466Y-159949925D01*
X111891466Y-159949925D02*
X111843847Y-159997544D01*
X111843847Y-159997544D02*
X111796228Y-160092782D01*
X111796228Y-160092782D02*
X111748609Y-160283258D01*
X111748609Y-160283258D02*
X111700990Y-160378496D01*
X111700990Y-160378496D02*
X111653371Y-160426115D01*
X111653371Y-160426115D02*
X111558133Y-160473734D01*
X111558133Y-160473734D02*
X111462895Y-160473734D01*
X111462895Y-160473734D02*
X111367657Y-160426115D01*
X111367657Y-160426115D02*
X111320038Y-160378496D01*
X111320038Y-160378496D02*
X111272419Y-160283258D01*
X111272419Y-160283258D02*
X111272419Y-160045163D01*
X111272419Y-160045163D02*
X111320038Y-159902306D01*
X112272419Y-159473734D02*
X111272419Y-159473734D01*
X111272419Y-159473734D02*
X111272419Y-159235639D01*
X111272419Y-159235639D02*
X111320038Y-159092782D01*
X111320038Y-159092782D02*
X111415276Y-158997544D01*
X111415276Y-158997544D02*
X111510514Y-158949925D01*
X111510514Y-158949925D02*
X111700990Y-158902306D01*
X111700990Y-158902306D02*
X111843847Y-158902306D01*
X111843847Y-158902306D02*
X112034323Y-158949925D01*
X112034323Y-158949925D02*
X112129561Y-158997544D01*
X112129561Y-158997544D02*
X112224800Y-159092782D01*
X112224800Y-159092782D02*
X112272419Y-159235639D01*
X112272419Y-159235639D02*
X112272419Y-159473734D01*
X112367657Y-158711830D02*
X112367657Y-157949925D01*
X112272419Y-157711829D02*
X111272419Y-157711829D01*
X111272419Y-157711829D02*
X111986704Y-157378496D01*
X111986704Y-157378496D02*
X111272419Y-157045163D01*
X111272419Y-157045163D02*
X112272419Y-157045163D01*
X111272419Y-156378496D02*
X111272419Y-156188020D01*
X111272419Y-156188020D02*
X111320038Y-156092782D01*
X111320038Y-156092782D02*
X111415276Y-155997544D01*
X111415276Y-155997544D02*
X111605752Y-155949925D01*
X111605752Y-155949925D02*
X111939085Y-155949925D01*
X111939085Y-155949925D02*
X112129561Y-155997544D01*
X112129561Y-155997544D02*
X112224800Y-156092782D01*
X112224800Y-156092782D02*
X112272419Y-156188020D01*
X112272419Y-156188020D02*
X112272419Y-156378496D01*
X112272419Y-156378496D02*
X112224800Y-156473734D01*
X112224800Y-156473734D02*
X112129561Y-156568972D01*
X112129561Y-156568972D02*
X111939085Y-156616591D01*
X111939085Y-156616591D02*
X111605752Y-156616591D01*
X111605752Y-156616591D02*
X111415276Y-156568972D01*
X111415276Y-156568972D02*
X111320038Y-156473734D01*
X111320038Y-156473734D02*
X111272419Y-156378496D01*
X112224800Y-155568972D02*
X112272419Y-155426115D01*
X112272419Y-155426115D02*
X112272419Y-155188020D01*
X112272419Y-155188020D02*
X112224800Y-155092782D01*
X112224800Y-155092782D02*
X112177180Y-155045163D01*
X112177180Y-155045163D02*
X112081942Y-154997544D01*
X112081942Y-154997544D02*
X111986704Y-154997544D01*
X111986704Y-154997544D02*
X111891466Y-155045163D01*
X111891466Y-155045163D02*
X111843847Y-155092782D01*
X111843847Y-155092782D02*
X111796228Y-155188020D01*
X111796228Y-155188020D02*
X111748609Y-155378496D01*
X111748609Y-155378496D02*
X111700990Y-155473734D01*
X111700990Y-155473734D02*
X111653371Y-155521353D01*
X111653371Y-155521353D02*
X111558133Y-155568972D01*
X111558133Y-155568972D02*
X111462895Y-155568972D01*
X111462895Y-155568972D02*
X111367657Y-155521353D01*
X111367657Y-155521353D02*
X111320038Y-155473734D01*
X111320038Y-155473734D02*
X111272419Y-155378496D01*
X111272419Y-155378496D02*
X111272419Y-155140401D01*
X111272419Y-155140401D02*
X111320038Y-154997544D01*
X112272419Y-154568972D02*
X111272419Y-154568972D01*
X156424800Y-132343734D02*
X156472419Y-132200877D01*
X156472419Y-132200877D02*
X156472419Y-131962782D01*
X156472419Y-131962782D02*
X156424800Y-131867544D01*
X156424800Y-131867544D02*
X156377180Y-131819925D01*
X156377180Y-131819925D02*
X156281942Y-131772306D01*
X156281942Y-131772306D02*
X156186704Y-131772306D01*
X156186704Y-131772306D02*
X156091466Y-131819925D01*
X156091466Y-131819925D02*
X156043847Y-131867544D01*
X156043847Y-131867544D02*
X155996228Y-131962782D01*
X155996228Y-131962782D02*
X155948609Y-132153258D01*
X155948609Y-132153258D02*
X155900990Y-132248496D01*
X155900990Y-132248496D02*
X155853371Y-132296115D01*
X155853371Y-132296115D02*
X155758133Y-132343734D01*
X155758133Y-132343734D02*
X155662895Y-132343734D01*
X155662895Y-132343734D02*
X155567657Y-132296115D01*
X155567657Y-132296115D02*
X155520038Y-132248496D01*
X155520038Y-132248496D02*
X155472419Y-132153258D01*
X155472419Y-132153258D02*
X155472419Y-131915163D01*
X155472419Y-131915163D02*
X155520038Y-131772306D01*
X155472419Y-131486591D02*
X155472419Y-130915163D01*
X156472419Y-131200877D02*
X155472419Y-131200877D01*
X155948609Y-130581829D02*
X155948609Y-130248496D01*
X156472419Y-130105639D02*
X156472419Y-130581829D01*
X156472419Y-130581829D02*
X155472419Y-130581829D01*
X155472419Y-130581829D02*
X155472419Y-130105639D01*
X156472419Y-129677067D02*
X155472419Y-129677067D01*
X155472419Y-129677067D02*
X155472419Y-129296115D01*
X155472419Y-129296115D02*
X155520038Y-129200877D01*
X155520038Y-129200877D02*
X155567657Y-129153258D01*
X155567657Y-129153258D02*
X155662895Y-129105639D01*
X155662895Y-129105639D02*
X155805752Y-129105639D01*
X155805752Y-129105639D02*
X155900990Y-129153258D01*
X155900990Y-129153258D02*
X155948609Y-129200877D01*
X155948609Y-129200877D02*
X155996228Y-129296115D01*
X155996228Y-129296115D02*
X155996228Y-129677067D01*
X156567657Y-128915163D02*
X156567657Y-128153258D01*
X155948609Y-127915162D02*
X155948609Y-127581829D01*
X156472419Y-127438972D02*
X156472419Y-127915162D01*
X156472419Y-127915162D02*
X155472419Y-127915162D01*
X155472419Y-127915162D02*
X155472419Y-127438972D01*
X156472419Y-126534210D02*
X156472419Y-127010400D01*
X156472419Y-127010400D02*
X155472419Y-127010400D01*
X155948609Y-126200876D02*
X155948609Y-125867543D01*
X156472419Y-125724686D02*
X156472419Y-126200876D01*
X156472419Y-126200876D02*
X155472419Y-126200876D01*
X155472419Y-126200876D02*
X155472419Y-125724686D01*
X181467657Y-124243734D02*
X181420038Y-124196115D01*
X181420038Y-124196115D02*
X181372419Y-124100877D01*
X181372419Y-124100877D02*
X181372419Y-123862782D01*
X181372419Y-123862782D02*
X181420038Y-123767544D01*
X181420038Y-123767544D02*
X181467657Y-123719925D01*
X181467657Y-123719925D02*
X181562895Y-123672306D01*
X181562895Y-123672306D02*
X181658133Y-123672306D01*
X181658133Y-123672306D02*
X181800990Y-123719925D01*
X181800990Y-123719925D02*
X182372419Y-124291353D01*
X182372419Y-124291353D02*
X182372419Y-123672306D01*
X182086704Y-123291353D02*
X182086704Y-122815163D01*
X182372419Y-123386591D02*
X181372419Y-123053258D01*
X181372419Y-123053258D02*
X182372419Y-122719925D01*
D12*
X83306857Y-155256767D02*
X80306857Y-155256767D01*
X80306857Y-155256767D02*
X83306857Y-153542481D01*
X83306857Y-153542481D02*
X80306857Y-153542481D01*
X80306857Y-151542481D02*
X80306857Y-150971053D01*
X80306857Y-150971053D02*
X80449714Y-150685338D01*
X80449714Y-150685338D02*
X80735428Y-150399624D01*
X80735428Y-150399624D02*
X81306857Y-150256767D01*
X81306857Y-150256767D02*
X82306857Y-150256767D01*
X82306857Y-150256767D02*
X82878285Y-150399624D01*
X82878285Y-150399624D02*
X83164000Y-150685338D01*
X83164000Y-150685338D02*
X83306857Y-150971053D01*
X83306857Y-150971053D02*
X83306857Y-151542481D01*
X83306857Y-151542481D02*
X83164000Y-151828196D01*
X83164000Y-151828196D02*
X82878285Y-152113910D01*
X82878285Y-152113910D02*
X82306857Y-152256767D01*
X82306857Y-152256767D02*
X81306857Y-152256767D01*
X81306857Y-152256767D02*
X80735428Y-152113910D01*
X80735428Y-152113910D02*
X80449714Y-151828196D01*
X80449714Y-151828196D02*
X80306857Y-151542481D01*
X83306857Y-147256767D02*
X81878285Y-148256767D01*
X83306857Y-148971053D02*
X80306857Y-148971053D01*
X80306857Y-148971053D02*
X80306857Y-147828196D01*
X80306857Y-147828196D02*
X80449714Y-147542481D01*
X80449714Y-147542481D02*
X80592571Y-147399624D01*
X80592571Y-147399624D02*
X80878285Y-147256767D01*
X80878285Y-147256767D02*
X81306857Y-147256767D01*
X81306857Y-147256767D02*
X81592571Y-147399624D01*
X81592571Y-147399624D02*
X81735428Y-147542481D01*
X81735428Y-147542481D02*
X81878285Y-147828196D01*
X81878285Y-147828196D02*
X81878285Y-148971053D01*
X80306857Y-146399624D02*
X80306857Y-144685339D01*
X83306857Y-145542481D02*
X80306857Y-145542481D01*
X83306857Y-143685339D02*
X80306857Y-143685339D01*
X81735428Y-143685339D02*
X81735428Y-141971053D01*
X83306857Y-141971053D02*
X80306857Y-141971053D01*
X81735428Y-140542482D02*
X81735428Y-139542482D01*
X83306857Y-139113910D02*
X83306857Y-140542482D01*
X83306857Y-140542482D02*
X80306857Y-140542482D01*
X80306857Y-140542482D02*
X80306857Y-139113910D01*
X83306857Y-136113910D02*
X81878285Y-137113910D01*
X83306857Y-137828196D02*
X80306857Y-137828196D01*
X80306857Y-137828196D02*
X80306857Y-136685339D01*
X80306857Y-136685339D02*
X80449714Y-136399624D01*
X80449714Y-136399624D02*
X80592571Y-136256767D01*
X80592571Y-136256767D02*
X80878285Y-136113910D01*
X80878285Y-136113910D02*
X81306857Y-136113910D01*
X81306857Y-136113910D02*
X81592571Y-136256767D01*
X81592571Y-136256767D02*
X81735428Y-136399624D01*
X81735428Y-136399624D02*
X81878285Y-136685339D01*
X81878285Y-136685339D02*
X81878285Y-137828196D01*
X83306857Y-134828196D02*
X80306857Y-134828196D01*
X80306857Y-134828196D02*
X83306857Y-133113910D01*
X83306857Y-133113910D02*
X80306857Y-133113910D01*
X83164000Y-131828196D02*
X83306857Y-131399625D01*
X83306857Y-131399625D02*
X83306857Y-130685339D01*
X83306857Y-130685339D02*
X83164000Y-130399625D01*
X83164000Y-130399625D02*
X83021142Y-130256767D01*
X83021142Y-130256767D02*
X82735428Y-130113910D01*
X82735428Y-130113910D02*
X82449714Y-130113910D01*
X82449714Y-130113910D02*
X82164000Y-130256767D01*
X82164000Y-130256767D02*
X82021142Y-130399625D01*
X82021142Y-130399625D02*
X81878285Y-130685339D01*
X81878285Y-130685339D02*
X81735428Y-131256767D01*
X81735428Y-131256767D02*
X81592571Y-131542482D01*
X81592571Y-131542482D02*
X81449714Y-131685339D01*
X81449714Y-131685339D02*
X81164000Y-131828196D01*
X81164000Y-131828196D02*
X80878285Y-131828196D01*
X80878285Y-131828196D02*
X80592571Y-131685339D01*
X80592571Y-131685339D02*
X80449714Y-131542482D01*
X80449714Y-131542482D02*
X80306857Y-131256767D01*
X80306857Y-131256767D02*
X80306857Y-130542482D01*
X80306857Y-130542482D02*
X80449714Y-130113910D01*
X80306857Y-129256767D02*
X80306857Y-127542482D01*
X83306857Y-128399624D02*
X80306857Y-128399624D01*
X80306857Y-126542482D02*
X82735428Y-126542482D01*
X82735428Y-126542482D02*
X83021142Y-126399625D01*
X83021142Y-126399625D02*
X83164000Y-126256768D01*
X83164000Y-126256768D02*
X83306857Y-125971053D01*
X83306857Y-125971053D02*
X83306857Y-125399625D01*
X83306857Y-125399625D02*
X83164000Y-125113910D01*
X83164000Y-125113910D02*
X83021142Y-124971053D01*
X83021142Y-124971053D02*
X82735428Y-124828196D01*
X82735428Y-124828196D02*
X80306857Y-124828196D01*
X83306857Y-123399625D02*
X80306857Y-123399625D01*
X80306857Y-123399625D02*
X80306857Y-122685339D01*
X80306857Y-122685339D02*
X80449714Y-122256768D01*
X80449714Y-122256768D02*
X80735428Y-121971053D01*
X80735428Y-121971053D02*
X81021142Y-121828196D01*
X81021142Y-121828196D02*
X81592571Y-121685339D01*
X81592571Y-121685339D02*
X82021142Y-121685339D01*
X82021142Y-121685339D02*
X82592571Y-121828196D01*
X82592571Y-121828196D02*
X82878285Y-121971053D01*
X82878285Y-121971053D02*
X83164000Y-122256768D01*
X83164000Y-122256768D02*
X83306857Y-122685339D01*
X83306857Y-122685339D02*
X83306857Y-123399625D01*
X83306857Y-120399625D02*
X80306857Y-120399625D01*
X80306857Y-118399625D02*
X80306857Y-117828197D01*
X80306857Y-117828197D02*
X80449714Y-117542482D01*
X80449714Y-117542482D02*
X80735428Y-117256768D01*
X80735428Y-117256768D02*
X81306857Y-117113911D01*
X81306857Y-117113911D02*
X82306857Y-117113911D01*
X82306857Y-117113911D02*
X82878285Y-117256768D01*
X82878285Y-117256768D02*
X83164000Y-117542482D01*
X83164000Y-117542482D02*
X83306857Y-117828197D01*
X83306857Y-117828197D02*
X83306857Y-118399625D01*
X83306857Y-118399625D02*
X83164000Y-118685340D01*
X83164000Y-118685340D02*
X82878285Y-118971054D01*
X82878285Y-118971054D02*
X82306857Y-119113911D01*
X82306857Y-119113911D02*
X81306857Y-119113911D01*
X81306857Y-119113911D02*
X80735428Y-118971054D01*
X80735428Y-118971054D02*
X80449714Y-118685340D01*
X80449714Y-118685340D02*
X80306857Y-118399625D01*
X83164000Y-115971054D02*
X83306857Y-115542483D01*
X83306857Y-115542483D02*
X83306857Y-114828197D01*
X83306857Y-114828197D02*
X83164000Y-114542483D01*
X83164000Y-114542483D02*
X83021142Y-114399625D01*
X83021142Y-114399625D02*
X82735428Y-114256768D01*
X82735428Y-114256768D02*
X82449714Y-114256768D01*
X82449714Y-114256768D02*
X82164000Y-114399625D01*
X82164000Y-114399625D02*
X82021142Y-114542483D01*
X82021142Y-114542483D02*
X81878285Y-114828197D01*
X81878285Y-114828197D02*
X81735428Y-115399625D01*
X81735428Y-115399625D02*
X81592571Y-115685340D01*
X81592571Y-115685340D02*
X81449714Y-115828197D01*
X81449714Y-115828197D02*
X81164000Y-115971054D01*
X81164000Y-115971054D02*
X80878285Y-115971054D01*
X80878285Y-115971054D02*
X80592571Y-115828197D01*
X80592571Y-115828197D02*
X80449714Y-115685340D01*
X80449714Y-115685340D02*
X80306857Y-115399625D01*
X80306857Y-115399625D02*
X80306857Y-114685340D01*
X80306857Y-114685340D02*
X80449714Y-114256768D01*
X83021142Y-112971054D02*
X83164000Y-112828197D01*
X83164000Y-112828197D02*
X83306857Y-112971054D01*
X83306857Y-112971054D02*
X83164000Y-113113911D01*
X83164000Y-113113911D02*
X83021142Y-112971054D01*
X83021142Y-112971054D02*
X83306857Y-112971054D01*
X83021142Y-109828197D02*
X83164000Y-109971054D01*
X83164000Y-109971054D02*
X83306857Y-110399626D01*
X83306857Y-110399626D02*
X83306857Y-110685340D01*
X83306857Y-110685340D02*
X83164000Y-111113911D01*
X83164000Y-111113911D02*
X82878285Y-111399626D01*
X82878285Y-111399626D02*
X82592571Y-111542483D01*
X82592571Y-111542483D02*
X82021142Y-111685340D01*
X82021142Y-111685340D02*
X81592571Y-111685340D01*
X81592571Y-111685340D02*
X81021142Y-111542483D01*
X81021142Y-111542483D02*
X80735428Y-111399626D01*
X80735428Y-111399626D02*
X80449714Y-111113911D01*
X80449714Y-111113911D02*
X80306857Y-110685340D01*
X80306857Y-110685340D02*
X80306857Y-110399626D01*
X80306857Y-110399626D02*
X80449714Y-109971054D01*
X80449714Y-109971054D02*
X80592571Y-109828197D01*
X83021142Y-106828197D02*
X83164000Y-106971054D01*
X83164000Y-106971054D02*
X83306857Y-107399626D01*
X83306857Y-107399626D02*
X83306857Y-107685340D01*
X83306857Y-107685340D02*
X83164000Y-108113911D01*
X83164000Y-108113911D02*
X82878285Y-108399626D01*
X82878285Y-108399626D02*
X82592571Y-108542483D01*
X82592571Y-108542483D02*
X82021142Y-108685340D01*
X82021142Y-108685340D02*
X81592571Y-108685340D01*
X81592571Y-108685340D02*
X81021142Y-108542483D01*
X81021142Y-108542483D02*
X80735428Y-108399626D01*
X80735428Y-108399626D02*
X80449714Y-108113911D01*
X80449714Y-108113911D02*
X80306857Y-107685340D01*
X80306857Y-107685340D02*
X80306857Y-107399626D01*
X80306857Y-107399626D02*
X80449714Y-106971054D01*
X80449714Y-106971054D02*
X80592571Y-106828197D01*
D13*
X96348370Y-65417047D02*
X98015036Y-65417047D01*
X98729322Y-68036095D02*
X96348370Y-68036095D01*
X96348370Y-68036095D02*
X96348370Y-63036095D01*
X96348370Y-63036095D02*
X98729322Y-63036095D01*
X100634084Y-67798000D02*
X101348370Y-68036095D01*
X101348370Y-68036095D02*
X102538846Y-68036095D01*
X102538846Y-68036095D02*
X103015037Y-67798000D01*
X103015037Y-67798000D02*
X103253132Y-67559904D01*
X103253132Y-67559904D02*
X103491227Y-67083714D01*
X103491227Y-67083714D02*
X103491227Y-66607523D01*
X103491227Y-66607523D02*
X103253132Y-66131333D01*
X103253132Y-66131333D02*
X103015037Y-65893238D01*
X103015037Y-65893238D02*
X102538846Y-65655142D01*
X102538846Y-65655142D02*
X101586465Y-65417047D01*
X101586465Y-65417047D02*
X101110275Y-65178952D01*
X101110275Y-65178952D02*
X100872180Y-64940857D01*
X100872180Y-64940857D02*
X100634084Y-64464666D01*
X100634084Y-64464666D02*
X100634084Y-63988476D01*
X100634084Y-63988476D02*
X100872180Y-63512285D01*
X100872180Y-63512285D02*
X101110275Y-63274190D01*
X101110275Y-63274190D02*
X101586465Y-63036095D01*
X101586465Y-63036095D02*
X102776942Y-63036095D01*
X102776942Y-63036095D02*
X103491227Y-63274190D01*
X105634085Y-68036095D02*
X105634085Y-63036095D01*
X105634085Y-63036095D02*
X107538847Y-63036095D01*
X107538847Y-63036095D02*
X108015037Y-63274190D01*
X108015037Y-63274190D02*
X108253132Y-63512285D01*
X108253132Y-63512285D02*
X108491228Y-63988476D01*
X108491228Y-63988476D02*
X108491228Y-64702761D01*
X108491228Y-64702761D02*
X108253132Y-65178952D01*
X108253132Y-65178952D02*
X108015037Y-65417047D01*
X108015037Y-65417047D02*
X107538847Y-65655142D01*
X107538847Y-65655142D02*
X105634085Y-65655142D01*
X110157894Y-63036095D02*
X113253132Y-63036095D01*
X113253132Y-63036095D02*
X111586466Y-64940857D01*
X111586466Y-64940857D02*
X112300751Y-64940857D01*
X112300751Y-64940857D02*
X112776942Y-65178952D01*
X112776942Y-65178952D02*
X113015037Y-65417047D01*
X113015037Y-65417047D02*
X113253132Y-65893238D01*
X113253132Y-65893238D02*
X113253132Y-67083714D01*
X113253132Y-67083714D02*
X113015037Y-67559904D01*
X113015037Y-67559904D02*
X112776942Y-67798000D01*
X112776942Y-67798000D02*
X112300751Y-68036095D01*
X112300751Y-68036095D02*
X110872180Y-68036095D01*
X110872180Y-68036095D02*
X110395989Y-67798000D01*
X110395989Y-67798000D02*
X110157894Y-67559904D01*
X115157894Y-63512285D02*
X115395990Y-63274190D01*
X115395990Y-63274190D02*
X115872180Y-63036095D01*
X115872180Y-63036095D02*
X117062656Y-63036095D01*
X117062656Y-63036095D02*
X117538847Y-63274190D01*
X117538847Y-63274190D02*
X117776942Y-63512285D01*
X117776942Y-63512285D02*
X118015037Y-63988476D01*
X118015037Y-63988476D02*
X118015037Y-64464666D01*
X118015037Y-64464666D02*
X117776942Y-65178952D01*
X117776942Y-65178952D02*
X114919799Y-68036095D01*
X114919799Y-68036095D02*
X118015037Y-68036095D01*
X120157895Y-66131333D02*
X123967419Y-66131333D01*
X126110275Y-67798000D02*
X126824561Y-68036095D01*
X126824561Y-68036095D02*
X128015037Y-68036095D01*
X128015037Y-68036095D02*
X128491228Y-67798000D01*
X128491228Y-67798000D02*
X128729323Y-67559904D01*
X128729323Y-67559904D02*
X128967418Y-67083714D01*
X128967418Y-67083714D02*
X128967418Y-66607523D01*
X128967418Y-66607523D02*
X128729323Y-66131333D01*
X128729323Y-66131333D02*
X128491228Y-65893238D01*
X128491228Y-65893238D02*
X128015037Y-65655142D01*
X128015037Y-65655142D02*
X127062656Y-65417047D01*
X127062656Y-65417047D02*
X126586466Y-65178952D01*
X126586466Y-65178952D02*
X126348371Y-64940857D01*
X126348371Y-64940857D02*
X126110275Y-64464666D01*
X126110275Y-64464666D02*
X126110275Y-63988476D01*
X126110275Y-63988476D02*
X126348371Y-63512285D01*
X126348371Y-63512285D02*
X126586466Y-63274190D01*
X126586466Y-63274190D02*
X127062656Y-63036095D01*
X127062656Y-63036095D02*
X128253133Y-63036095D01*
X128253133Y-63036095D02*
X128967418Y-63274190D01*
D10*
X109624800Y-160473734D02*
X109672419Y-160330877D01*
X109672419Y-160330877D02*
X109672419Y-160092782D01*
X109672419Y-160092782D02*
X109624800Y-159997544D01*
X109624800Y-159997544D02*
X109577180Y-159949925D01*
X109577180Y-159949925D02*
X109481942Y-159902306D01*
X109481942Y-159902306D02*
X109386704Y-159902306D01*
X109386704Y-159902306D02*
X109291466Y-159949925D01*
X109291466Y-159949925D02*
X109243847Y-159997544D01*
X109243847Y-159997544D02*
X109196228Y-160092782D01*
X109196228Y-160092782D02*
X109148609Y-160283258D01*
X109148609Y-160283258D02*
X109100990Y-160378496D01*
X109100990Y-160378496D02*
X109053371Y-160426115D01*
X109053371Y-160426115D02*
X108958133Y-160473734D01*
X108958133Y-160473734D02*
X108862895Y-160473734D01*
X108862895Y-160473734D02*
X108767657Y-160426115D01*
X108767657Y-160426115D02*
X108720038Y-160378496D01*
X108720038Y-160378496D02*
X108672419Y-160283258D01*
X108672419Y-160283258D02*
X108672419Y-160045163D01*
X108672419Y-160045163D02*
X108720038Y-159902306D01*
X109672419Y-159473734D02*
X108672419Y-159473734D01*
X108672419Y-159473734D02*
X108672419Y-159235639D01*
X108672419Y-159235639D02*
X108720038Y-159092782D01*
X108720038Y-159092782D02*
X108815276Y-158997544D01*
X108815276Y-158997544D02*
X108910514Y-158949925D01*
X108910514Y-158949925D02*
X109100990Y-158902306D01*
X109100990Y-158902306D02*
X109243847Y-158902306D01*
X109243847Y-158902306D02*
X109434323Y-158949925D01*
X109434323Y-158949925D02*
X109529561Y-158997544D01*
X109529561Y-158997544D02*
X109624800Y-159092782D01*
X109624800Y-159092782D02*
X109672419Y-159235639D01*
X109672419Y-159235639D02*
X109672419Y-159473734D01*
X109767657Y-158711830D02*
X109767657Y-157949925D01*
X109672419Y-157711829D02*
X108672419Y-157711829D01*
X108672419Y-157711829D02*
X109386704Y-157378496D01*
X109386704Y-157378496D02*
X108672419Y-157045163D01*
X108672419Y-157045163D02*
X109672419Y-157045163D01*
X109672419Y-156568972D02*
X108672419Y-156568972D01*
X109624800Y-156140401D02*
X109672419Y-155997544D01*
X109672419Y-155997544D02*
X109672419Y-155759449D01*
X109672419Y-155759449D02*
X109624800Y-155664211D01*
X109624800Y-155664211D02*
X109577180Y-155616592D01*
X109577180Y-155616592D02*
X109481942Y-155568973D01*
X109481942Y-155568973D02*
X109386704Y-155568973D01*
X109386704Y-155568973D02*
X109291466Y-155616592D01*
X109291466Y-155616592D02*
X109243847Y-155664211D01*
X109243847Y-155664211D02*
X109196228Y-155759449D01*
X109196228Y-155759449D02*
X109148609Y-155949925D01*
X109148609Y-155949925D02*
X109100990Y-156045163D01*
X109100990Y-156045163D02*
X109053371Y-156092782D01*
X109053371Y-156092782D02*
X108958133Y-156140401D01*
X108958133Y-156140401D02*
X108862895Y-156140401D01*
X108862895Y-156140401D02*
X108767657Y-156092782D01*
X108767657Y-156092782D02*
X108720038Y-156045163D01*
X108720038Y-156045163D02*
X108672419Y-155949925D01*
X108672419Y-155949925D02*
X108672419Y-155711830D01*
X108672419Y-155711830D02*
X108720038Y-155568973D01*
X108672419Y-154949925D02*
X108672419Y-154759449D01*
X108672419Y-154759449D02*
X108720038Y-154664211D01*
X108720038Y-154664211D02*
X108815276Y-154568973D01*
X108815276Y-154568973D02*
X109005752Y-154521354D01*
X109005752Y-154521354D02*
X109339085Y-154521354D01*
X109339085Y-154521354D02*
X109529561Y-154568973D01*
X109529561Y-154568973D02*
X109624800Y-154664211D01*
X109624800Y-154664211D02*
X109672419Y-154759449D01*
X109672419Y-154759449D02*
X109672419Y-154949925D01*
X109672419Y-154949925D02*
X109624800Y-155045163D01*
X109624800Y-155045163D02*
X109529561Y-155140401D01*
X109529561Y-155140401D02*
X109339085Y-155188020D01*
X109339085Y-155188020D02*
X109005752Y-155188020D01*
X109005752Y-155188020D02*
X108815276Y-155140401D01*
X108815276Y-155140401D02*
X108720038Y-155045163D01*
X108720038Y-155045163D02*
X108672419Y-154949925D01*
D13*
X93412285Y-157789725D02*
X93174190Y-157551629D01*
X93174190Y-157551629D02*
X92936095Y-157075439D01*
X92936095Y-157075439D02*
X92936095Y-155884963D01*
X92936095Y-155884963D02*
X93174190Y-155408772D01*
X93174190Y-155408772D02*
X93412285Y-155170677D01*
X93412285Y-155170677D02*
X93888476Y-154932582D01*
X93888476Y-154932582D02*
X94364666Y-154932582D01*
X94364666Y-154932582D02*
X95078952Y-155170677D01*
X95078952Y-155170677D02*
X97936095Y-158027820D01*
X97936095Y-158027820D02*
X97936095Y-154932582D01*
X97459904Y-152789724D02*
X97698000Y-152551629D01*
X97698000Y-152551629D02*
X97936095Y-152789724D01*
X97936095Y-152789724D02*
X97698000Y-153027820D01*
X97698000Y-153027820D02*
X97459904Y-152789724D01*
X97459904Y-152789724D02*
X97936095Y-152789724D01*
X94602761Y-148265915D02*
X97936095Y-148265915D01*
X92698000Y-149456391D02*
X96269428Y-150646868D01*
X96269428Y-150646868D02*
X96269428Y-147551629D01*
X92936095Y-145884963D02*
X93888476Y-145884963D01*
X92936095Y-143980201D02*
X93888476Y-143980201D01*
X92936095Y-138742105D02*
X92936095Y-135884962D01*
X97936095Y-137313534D02*
X92936095Y-137313534D01*
X95317047Y-132551629D02*
X95317047Y-134218295D01*
X97936095Y-134218295D02*
X92936095Y-134218295D01*
X92936095Y-134218295D02*
X92936095Y-131837343D01*
X92936095Y-130646867D02*
X92936095Y-127789724D01*
X97936095Y-129218296D02*
X92936095Y-129218296D01*
X97698000Y-122551629D02*
X97936095Y-121837343D01*
X97936095Y-121837343D02*
X97936095Y-120646867D01*
X97936095Y-120646867D02*
X97698000Y-120170676D01*
X97698000Y-120170676D02*
X97459904Y-119932581D01*
X97459904Y-119932581D02*
X96983714Y-119694486D01*
X96983714Y-119694486D02*
X96507523Y-119694486D01*
X96507523Y-119694486D02*
X96031333Y-119932581D01*
X96031333Y-119932581D02*
X95793238Y-120170676D01*
X95793238Y-120170676D02*
X95555142Y-120646867D01*
X95555142Y-120646867D02*
X95317047Y-121599248D01*
X95317047Y-121599248D02*
X95078952Y-122075438D01*
X95078952Y-122075438D02*
X94840857Y-122313533D01*
X94840857Y-122313533D02*
X94364666Y-122551629D01*
X94364666Y-122551629D02*
X93888476Y-122551629D01*
X93888476Y-122551629D02*
X93412285Y-122313533D01*
X93412285Y-122313533D02*
X93174190Y-122075438D01*
X93174190Y-122075438D02*
X92936095Y-121599248D01*
X92936095Y-121599248D02*
X92936095Y-120408771D01*
X92936095Y-120408771D02*
X93174190Y-119694486D01*
X97459904Y-114694485D02*
X97698000Y-114932581D01*
X97698000Y-114932581D02*
X97936095Y-115646866D01*
X97936095Y-115646866D02*
X97936095Y-116123057D01*
X97936095Y-116123057D02*
X97698000Y-116837343D01*
X97698000Y-116837343D02*
X97221809Y-117313533D01*
X97221809Y-117313533D02*
X96745619Y-117551628D01*
X96745619Y-117551628D02*
X95793238Y-117789724D01*
X95793238Y-117789724D02*
X95078952Y-117789724D01*
X95078952Y-117789724D02*
X94126571Y-117551628D01*
X94126571Y-117551628D02*
X93650380Y-117313533D01*
X93650380Y-117313533D02*
X93174190Y-116837343D01*
X93174190Y-116837343D02*
X92936095Y-116123057D01*
X92936095Y-116123057D02*
X92936095Y-115646866D01*
X92936095Y-115646866D02*
X93174190Y-114932581D01*
X93174190Y-114932581D02*
X93412285Y-114694485D01*
X97936095Y-109694485D02*
X95555142Y-111361152D01*
X97936095Y-112551628D02*
X92936095Y-112551628D01*
X92936095Y-112551628D02*
X92936095Y-110646866D01*
X92936095Y-110646866D02*
X93174190Y-110170676D01*
X93174190Y-110170676D02*
X93412285Y-109932581D01*
X93412285Y-109932581D02*
X93888476Y-109694485D01*
X93888476Y-109694485D02*
X94602761Y-109694485D01*
X94602761Y-109694485D02*
X95078952Y-109932581D01*
X95078952Y-109932581D02*
X95317047Y-110170676D01*
X95317047Y-110170676D02*
X95555142Y-110646866D01*
X95555142Y-110646866D02*
X95555142Y-112551628D01*
X95317047Y-107551628D02*
X95317047Y-105884962D01*
X97936095Y-105170676D02*
X97936095Y-107551628D01*
X97936095Y-107551628D02*
X92936095Y-107551628D01*
X92936095Y-107551628D02*
X92936095Y-105170676D01*
X95317047Y-103027818D02*
X95317047Y-101361152D01*
X97936095Y-100646866D02*
X97936095Y-103027818D01*
X97936095Y-103027818D02*
X92936095Y-103027818D01*
X92936095Y-103027818D02*
X92936095Y-100646866D01*
X97936095Y-98504008D02*
X92936095Y-98504008D01*
X92936095Y-98504008D02*
X97936095Y-95646865D01*
X97936095Y-95646865D02*
X92936095Y-95646865D01*
D10*
X114424800Y-98543734D02*
X114472419Y-98400877D01*
X114472419Y-98400877D02*
X114472419Y-98162782D01*
X114472419Y-98162782D02*
X114424800Y-98067544D01*
X114424800Y-98067544D02*
X114377180Y-98019925D01*
X114377180Y-98019925D02*
X114281942Y-97972306D01*
X114281942Y-97972306D02*
X114186704Y-97972306D01*
X114186704Y-97972306D02*
X114091466Y-98019925D01*
X114091466Y-98019925D02*
X114043847Y-98067544D01*
X114043847Y-98067544D02*
X113996228Y-98162782D01*
X113996228Y-98162782D02*
X113948609Y-98353258D01*
X113948609Y-98353258D02*
X113900990Y-98448496D01*
X113900990Y-98448496D02*
X113853371Y-98496115D01*
X113853371Y-98496115D02*
X113758133Y-98543734D01*
X113758133Y-98543734D02*
X113662895Y-98543734D01*
X113662895Y-98543734D02*
X113567657Y-98496115D01*
X113567657Y-98496115D02*
X113520038Y-98448496D01*
X113520038Y-98448496D02*
X113472419Y-98353258D01*
X113472419Y-98353258D02*
X113472419Y-98115163D01*
X113472419Y-98115163D02*
X113520038Y-97972306D01*
X114472419Y-97543734D02*
X113472419Y-97543734D01*
X113472419Y-97543734D02*
X113472419Y-97305639D01*
X113472419Y-97305639D02*
X113520038Y-97162782D01*
X113520038Y-97162782D02*
X113615276Y-97067544D01*
X113615276Y-97067544D02*
X113710514Y-97019925D01*
X113710514Y-97019925D02*
X113900990Y-96972306D01*
X113900990Y-96972306D02*
X114043847Y-96972306D01*
X114043847Y-96972306D02*
X114234323Y-97019925D01*
X114234323Y-97019925D02*
X114329561Y-97067544D01*
X114329561Y-97067544D02*
X114424800Y-97162782D01*
X114424800Y-97162782D02*
X114472419Y-97305639D01*
X114472419Y-97305639D02*
X114472419Y-97543734D01*
X114472419Y-96543734D02*
X113472419Y-96543734D01*
X114853371Y-95781830D02*
X114805752Y-95829449D01*
X114805752Y-95829449D02*
X114662895Y-95924687D01*
X114662895Y-95924687D02*
X114567657Y-95972306D01*
X114567657Y-95972306D02*
X114424800Y-96019925D01*
X114424800Y-96019925D02*
X114186704Y-96067544D01*
X114186704Y-96067544D02*
X113996228Y-96067544D01*
X113996228Y-96067544D02*
X113758133Y-96019925D01*
X113758133Y-96019925D02*
X113615276Y-95972306D01*
X113615276Y-95972306D02*
X113520038Y-95924687D01*
X113520038Y-95924687D02*
X113377180Y-95829449D01*
X113377180Y-95829449D02*
X113329561Y-95781830D01*
X114472419Y-95400877D02*
X113472419Y-95400877D01*
X113472419Y-95400877D02*
X114186704Y-95067544D01*
X114186704Y-95067544D02*
X113472419Y-94734211D01*
X113472419Y-94734211D02*
X114472419Y-94734211D01*
X113472419Y-94067544D02*
X113472419Y-93877068D01*
X113472419Y-93877068D02*
X113520038Y-93781830D01*
X113520038Y-93781830D02*
X113615276Y-93686592D01*
X113615276Y-93686592D02*
X113805752Y-93638973D01*
X113805752Y-93638973D02*
X114139085Y-93638973D01*
X114139085Y-93638973D02*
X114329561Y-93686592D01*
X114329561Y-93686592D02*
X114424800Y-93781830D01*
X114424800Y-93781830D02*
X114472419Y-93877068D01*
X114472419Y-93877068D02*
X114472419Y-94067544D01*
X114472419Y-94067544D02*
X114424800Y-94162782D01*
X114424800Y-94162782D02*
X114329561Y-94258020D01*
X114329561Y-94258020D02*
X114139085Y-94305639D01*
X114139085Y-94305639D02*
X113805752Y-94305639D01*
X113805752Y-94305639D02*
X113615276Y-94258020D01*
X113615276Y-94258020D02*
X113520038Y-94162782D01*
X113520038Y-94162782D02*
X113472419Y-94067544D01*
X114424800Y-93258020D02*
X114472419Y-93115163D01*
X114472419Y-93115163D02*
X114472419Y-92877068D01*
X114472419Y-92877068D02*
X114424800Y-92781830D01*
X114424800Y-92781830D02*
X114377180Y-92734211D01*
X114377180Y-92734211D02*
X114281942Y-92686592D01*
X114281942Y-92686592D02*
X114186704Y-92686592D01*
X114186704Y-92686592D02*
X114091466Y-92734211D01*
X114091466Y-92734211D02*
X114043847Y-92781830D01*
X114043847Y-92781830D02*
X113996228Y-92877068D01*
X113996228Y-92877068D02*
X113948609Y-93067544D01*
X113948609Y-93067544D02*
X113900990Y-93162782D01*
X113900990Y-93162782D02*
X113853371Y-93210401D01*
X113853371Y-93210401D02*
X113758133Y-93258020D01*
X113758133Y-93258020D02*
X113662895Y-93258020D01*
X113662895Y-93258020D02*
X113567657Y-93210401D01*
X113567657Y-93210401D02*
X113520038Y-93162782D01*
X113520038Y-93162782D02*
X113472419Y-93067544D01*
X113472419Y-93067544D02*
X113472419Y-92829449D01*
X113472419Y-92829449D02*
X113520038Y-92686592D01*
X114472419Y-92258020D02*
X113472419Y-92258020D01*
X114853371Y-91877068D02*
X114805752Y-91829449D01*
X114805752Y-91829449D02*
X114662895Y-91734211D01*
X114662895Y-91734211D02*
X114567657Y-91686592D01*
X114567657Y-91686592D02*
X114424800Y-91638973D01*
X114424800Y-91638973D02*
X114186704Y-91591354D01*
X114186704Y-91591354D02*
X113996228Y-91591354D01*
X113996228Y-91591354D02*
X113758133Y-91638973D01*
X113758133Y-91638973D02*
X113615276Y-91686592D01*
X113615276Y-91686592D02*
X113520038Y-91734211D01*
X113520038Y-91734211D02*
X113377180Y-91829449D01*
X113377180Y-91829449D02*
X113329561Y-91877068D01*
D14*
X183968796Y-47200828D02*
X183254510Y-47200828D01*
X183254510Y-47200828D02*
X183183082Y-47915114D01*
X183183082Y-47915114D02*
X183254510Y-47843685D01*
X183254510Y-47843685D02*
X183397368Y-47772257D01*
X183397368Y-47772257D02*
X183754510Y-47772257D01*
X183754510Y-47772257D02*
X183897368Y-47843685D01*
X183897368Y-47843685D02*
X183968796Y-47915114D01*
X183968796Y-47915114D02*
X184040225Y-48057971D01*
X184040225Y-48057971D02*
X184040225Y-48415114D01*
X184040225Y-48415114D02*
X183968796Y-48557971D01*
X183968796Y-48557971D02*
X183897368Y-48629400D01*
X183897368Y-48629400D02*
X183754510Y-48700828D01*
X183754510Y-48700828D02*
X183397368Y-48700828D01*
X183397368Y-48700828D02*
X183254510Y-48629400D01*
X183254510Y-48629400D02*
X183183082Y-48557971D01*
X184611653Y-48272257D02*
X185325939Y-48272257D01*
X184468796Y-48700828D02*
X184968796Y-47200828D01*
X184968796Y-47200828D02*
X185468796Y-48700828D01*
X187111652Y-48700828D02*
X187111652Y-47200828D01*
X187111652Y-47200828D02*
X187611652Y-48272257D01*
X187611652Y-48272257D02*
X188111652Y-47200828D01*
X188111652Y-47200828D02*
X188111652Y-48700828D01*
X188754510Y-48272257D02*
X189468796Y-48272257D01*
X188611653Y-48700828D02*
X189111653Y-47200828D01*
X189111653Y-47200828D02*
X189611653Y-48700828D01*
X189968795Y-47200828D02*
X190968795Y-48700828D01*
X190968795Y-47200828D02*
X189968795Y-48700828D01*
D15*
X86086819Y-161860652D02*
X86086819Y-161193985D01*
X87134438Y-160908271D02*
X87134438Y-161860652D01*
X87134438Y-161860652D02*
X85134438Y-161860652D01*
X85134438Y-161860652D02*
X85134438Y-160908271D01*
X87039200Y-160146366D02*
X87134438Y-159860652D01*
X87134438Y-159860652D02*
X87134438Y-159384461D01*
X87134438Y-159384461D02*
X87039200Y-159193985D01*
X87039200Y-159193985D02*
X86943961Y-159098747D01*
X86943961Y-159098747D02*
X86753485Y-159003509D01*
X86753485Y-159003509D02*
X86563009Y-159003509D01*
X86563009Y-159003509D02*
X86372533Y-159098747D01*
X86372533Y-159098747D02*
X86277295Y-159193985D01*
X86277295Y-159193985D02*
X86182057Y-159384461D01*
X86182057Y-159384461D02*
X86086819Y-159765414D01*
X86086819Y-159765414D02*
X85991580Y-159955890D01*
X85991580Y-159955890D02*
X85896342Y-160051128D01*
X85896342Y-160051128D02*
X85705866Y-160146366D01*
X85705866Y-160146366D02*
X85515390Y-160146366D01*
X85515390Y-160146366D02*
X85324914Y-160051128D01*
X85324914Y-160051128D02*
X85229676Y-159955890D01*
X85229676Y-159955890D02*
X85134438Y-159765414D01*
X85134438Y-159765414D02*
X85134438Y-159289223D01*
X85134438Y-159289223D02*
X85229676Y-159003509D01*
X87134438Y-158146366D02*
X85134438Y-158146366D01*
X85134438Y-158146366D02*
X85134438Y-157384461D01*
X85134438Y-157384461D02*
X85229676Y-157193985D01*
X85229676Y-157193985D02*
X85324914Y-157098747D01*
X85324914Y-157098747D02*
X85515390Y-157003509D01*
X85515390Y-157003509D02*
X85801104Y-157003509D01*
X85801104Y-157003509D02*
X85991580Y-157098747D01*
X85991580Y-157098747D02*
X86086819Y-157193985D01*
X86086819Y-157193985D02*
X86182057Y-157384461D01*
X86182057Y-157384461D02*
X86182057Y-158146366D01*
X86372533Y-156146366D02*
X86372533Y-154622557D01*
X85134438Y-153860652D02*
X85134438Y-152622557D01*
X85134438Y-152622557D02*
X85896342Y-153289224D01*
X85896342Y-153289224D02*
X85896342Y-153003509D01*
X85896342Y-153003509D02*
X85991580Y-152813033D01*
X85991580Y-152813033D02*
X86086819Y-152717795D01*
X86086819Y-152717795D02*
X86277295Y-152622557D01*
X86277295Y-152622557D02*
X86753485Y-152622557D01*
X86753485Y-152622557D02*
X86943961Y-152717795D01*
X86943961Y-152717795D02*
X87039200Y-152813033D01*
X87039200Y-152813033D02*
X87134438Y-153003509D01*
X87134438Y-153003509D02*
X87134438Y-153574938D01*
X87134438Y-153574938D02*
X87039200Y-153765414D01*
X87039200Y-153765414D02*
X86943961Y-153860652D01*
X85324914Y-151860652D02*
X85229676Y-151765414D01*
X85229676Y-151765414D02*
X85134438Y-151574938D01*
X85134438Y-151574938D02*
X85134438Y-151098747D01*
X85134438Y-151098747D02*
X85229676Y-150908271D01*
X85229676Y-150908271D02*
X85324914Y-150813033D01*
X85324914Y-150813033D02*
X85515390Y-150717795D01*
X85515390Y-150717795D02*
X85705866Y-150717795D01*
X85705866Y-150717795D02*
X85991580Y-150813033D01*
X85991580Y-150813033D02*
X87134438Y-151955890D01*
X87134438Y-151955890D02*
X87134438Y-150717795D01*
X87039200Y-148432080D02*
X87134438Y-148146366D01*
X87134438Y-148146366D02*
X87134438Y-147670175D01*
X87134438Y-147670175D02*
X87039200Y-147479699D01*
X87039200Y-147479699D02*
X86943961Y-147384461D01*
X86943961Y-147384461D02*
X86753485Y-147289223D01*
X86753485Y-147289223D02*
X86563009Y-147289223D01*
X86563009Y-147289223D02*
X86372533Y-147384461D01*
X86372533Y-147384461D02*
X86277295Y-147479699D01*
X86277295Y-147479699D02*
X86182057Y-147670175D01*
X86182057Y-147670175D02*
X86086819Y-148051128D01*
X86086819Y-148051128D02*
X85991580Y-148241604D01*
X85991580Y-148241604D02*
X85896342Y-148336842D01*
X85896342Y-148336842D02*
X85705866Y-148432080D01*
X85705866Y-148432080D02*
X85515390Y-148432080D01*
X85515390Y-148432080D02*
X85324914Y-148336842D01*
X85324914Y-148336842D02*
X85229676Y-148241604D01*
X85229676Y-148241604D02*
X85134438Y-148051128D01*
X85134438Y-148051128D02*
X85134438Y-147574937D01*
X85134438Y-147574937D02*
X85229676Y-147289223D01*
X86563009Y-146527318D02*
X86563009Y-145574937D01*
X87134438Y-146717794D02*
X85134438Y-146051128D01*
X85134438Y-146051128D02*
X87134438Y-145384461D01*
X85134438Y-145003508D02*
X85134438Y-143860651D01*
X87134438Y-144432080D02*
X85134438Y-144432080D01*
X85134438Y-143479698D02*
X85134438Y-142336841D01*
X87134438Y-142908270D02*
X85134438Y-142908270D01*
X86086819Y-141670174D02*
X86086819Y-141003507D01*
X87134438Y-140717793D02*
X87134438Y-141670174D01*
X87134438Y-141670174D02*
X85134438Y-141670174D01*
X85134438Y-141670174D02*
X85134438Y-140717793D01*
X87134438Y-138908269D02*
X87134438Y-139860650D01*
X87134438Y-139860650D02*
X85134438Y-139860650D01*
X87134438Y-138241602D02*
X85134438Y-138241602D01*
X85134438Y-137574935D02*
X85134438Y-136432078D01*
X87134438Y-137003507D02*
X85134438Y-137003507D01*
X86086819Y-135765411D02*
X86086819Y-135098744D01*
X87134438Y-134813030D02*
X87134438Y-135765411D01*
X87134438Y-135765411D02*
X85134438Y-135765411D01*
X85134438Y-135765411D02*
X85134438Y-134813030D01*
X85134438Y-132717791D02*
X85134438Y-131574934D01*
X87134438Y-132146363D02*
X85134438Y-132146363D01*
X87134438Y-129765410D02*
X86182057Y-130432077D01*
X87134438Y-130908267D02*
X85134438Y-130908267D01*
X85134438Y-130908267D02*
X85134438Y-130146362D01*
X85134438Y-130146362D02*
X85229676Y-129955886D01*
X85229676Y-129955886D02*
X85324914Y-129860648D01*
X85324914Y-129860648D02*
X85515390Y-129765410D01*
X85515390Y-129765410D02*
X85801104Y-129765410D01*
X85801104Y-129765410D02*
X85991580Y-129860648D01*
X85991580Y-129860648D02*
X86086819Y-129955886D01*
X86086819Y-129955886D02*
X86182057Y-130146362D01*
X86182057Y-130146362D02*
X86182057Y-130908267D01*
X86563009Y-129003505D02*
X86563009Y-128051124D01*
X87134438Y-129193981D02*
X85134438Y-128527315D01*
X85134438Y-128527315D02*
X87134438Y-127860648D01*
X86943961Y-126051124D02*
X87039200Y-126146362D01*
X87039200Y-126146362D02*
X87134438Y-126432076D01*
X87134438Y-126432076D02*
X87134438Y-126622552D01*
X87134438Y-126622552D02*
X87039200Y-126908267D01*
X87039200Y-126908267D02*
X86848723Y-127098743D01*
X86848723Y-127098743D02*
X86658247Y-127193981D01*
X86658247Y-127193981D02*
X86277295Y-127289219D01*
X86277295Y-127289219D02*
X85991580Y-127289219D01*
X85991580Y-127289219D02*
X85610628Y-127193981D01*
X85610628Y-127193981D02*
X85420152Y-127098743D01*
X85420152Y-127098743D02*
X85229676Y-126908267D01*
X85229676Y-126908267D02*
X85134438Y-126622552D01*
X85134438Y-126622552D02*
X85134438Y-126432076D01*
X85134438Y-126432076D02*
X85229676Y-126146362D01*
X85229676Y-126146362D02*
X85324914Y-126051124D01*
X87134438Y-125193981D02*
X85134438Y-125193981D01*
X87134438Y-124051124D02*
X85991580Y-124908267D01*
X85134438Y-124051124D02*
X86277295Y-125193981D01*
X87134438Y-123193981D02*
X85134438Y-123193981D01*
X87134438Y-122241600D02*
X85134438Y-122241600D01*
X85134438Y-122241600D02*
X87134438Y-121098743D01*
X87134438Y-121098743D02*
X85134438Y-121098743D01*
X85229676Y-119098743D02*
X85134438Y-119289219D01*
X85134438Y-119289219D02*
X85134438Y-119574933D01*
X85134438Y-119574933D02*
X85229676Y-119860648D01*
X85229676Y-119860648D02*
X85420152Y-120051124D01*
X85420152Y-120051124D02*
X85610628Y-120146362D01*
X85610628Y-120146362D02*
X85991580Y-120241600D01*
X85991580Y-120241600D02*
X86277295Y-120241600D01*
X86277295Y-120241600D02*
X86658247Y-120146362D01*
X86658247Y-120146362D02*
X86848723Y-120051124D01*
X86848723Y-120051124D02*
X87039200Y-119860648D01*
X87039200Y-119860648D02*
X87134438Y-119574933D01*
X87134438Y-119574933D02*
X87134438Y-119384457D01*
X87134438Y-119384457D02*
X87039200Y-119098743D01*
X87039200Y-119098743D02*
X86943961Y-119003505D01*
X86943961Y-119003505D02*
X86277295Y-119003505D01*
X86277295Y-119003505D02*
X86277295Y-119384457D01*
X86943961Y-115479695D02*
X87039200Y-115574933D01*
X87039200Y-115574933D02*
X87134438Y-115860647D01*
X87134438Y-115860647D02*
X87134438Y-116051123D01*
X87134438Y-116051123D02*
X87039200Y-116336838D01*
X87039200Y-116336838D02*
X86848723Y-116527314D01*
X86848723Y-116527314D02*
X86658247Y-116622552D01*
X86658247Y-116622552D02*
X86277295Y-116717790D01*
X86277295Y-116717790D02*
X85991580Y-116717790D01*
X85991580Y-116717790D02*
X85610628Y-116622552D01*
X85610628Y-116622552D02*
X85420152Y-116527314D01*
X85420152Y-116527314D02*
X85229676Y-116336838D01*
X85229676Y-116336838D02*
X85134438Y-116051123D01*
X85134438Y-116051123D02*
X85134438Y-115860647D01*
X85134438Y-115860647D02*
X85229676Y-115574933D01*
X85229676Y-115574933D02*
X85324914Y-115479695D01*
X85134438Y-114241600D02*
X85134438Y-113860647D01*
X85134438Y-113860647D02*
X85229676Y-113670171D01*
X85229676Y-113670171D02*
X85420152Y-113479695D01*
X85420152Y-113479695D02*
X85801104Y-113384457D01*
X85801104Y-113384457D02*
X86467771Y-113384457D01*
X86467771Y-113384457D02*
X86848723Y-113479695D01*
X86848723Y-113479695D02*
X87039200Y-113670171D01*
X87039200Y-113670171D02*
X87134438Y-113860647D01*
X87134438Y-113860647D02*
X87134438Y-114241600D01*
X87134438Y-114241600D02*
X87039200Y-114432076D01*
X87039200Y-114432076D02*
X86848723Y-114622552D01*
X86848723Y-114622552D02*
X86467771Y-114717790D01*
X86467771Y-114717790D02*
X85801104Y-114717790D01*
X85801104Y-114717790D02*
X85420152Y-114622552D01*
X85420152Y-114622552D02*
X85229676Y-114432076D01*
X85229676Y-114432076D02*
X85134438Y-114241600D01*
X87134438Y-112527314D02*
X85134438Y-112527314D01*
X85134438Y-112527314D02*
X86563009Y-111860647D01*
X86563009Y-111860647D02*
X85134438Y-111193981D01*
X85134438Y-111193981D02*
X87134438Y-111193981D01*
X87134438Y-110241600D02*
X85134438Y-110241600D01*
X85134438Y-110241600D02*
X85134438Y-109479695D01*
X85134438Y-109479695D02*
X85229676Y-109289219D01*
X85229676Y-109289219D02*
X85324914Y-109193981D01*
X85324914Y-109193981D02*
X85515390Y-109098743D01*
X85515390Y-109098743D02*
X85801104Y-109098743D01*
X85801104Y-109098743D02*
X85991580Y-109193981D01*
X85991580Y-109193981D02*
X86086819Y-109289219D01*
X86086819Y-109289219D02*
X86182057Y-109479695D01*
X86182057Y-109479695D02*
X86182057Y-110241600D01*
X85134438Y-108241600D02*
X86753485Y-108241600D01*
X86753485Y-108241600D02*
X86943961Y-108146362D01*
X86943961Y-108146362D02*
X87039200Y-108051124D01*
X87039200Y-108051124D02*
X87134438Y-107860648D01*
X87134438Y-107860648D02*
X87134438Y-107479695D01*
X87134438Y-107479695D02*
X87039200Y-107289219D01*
X87039200Y-107289219D02*
X86943961Y-107193981D01*
X86943961Y-107193981D02*
X86753485Y-107098743D01*
X86753485Y-107098743D02*
X85134438Y-107098743D01*
X85134438Y-106432076D02*
X85134438Y-105289219D01*
X87134438Y-105860648D02*
X85134438Y-105860648D01*
X86086819Y-104622552D02*
X86086819Y-103955885D01*
X87134438Y-103670171D02*
X87134438Y-104622552D01*
X87134438Y-104622552D02*
X85134438Y-104622552D01*
X85134438Y-104622552D02*
X85134438Y-103670171D01*
X87134438Y-101670171D02*
X86182057Y-102336838D01*
X87134438Y-102813028D02*
X85134438Y-102813028D01*
X85134438Y-102813028D02*
X85134438Y-102051123D01*
X85134438Y-102051123D02*
X85229676Y-101860647D01*
X85229676Y-101860647D02*
X85324914Y-101765409D01*
X85324914Y-101765409D02*
X85515390Y-101670171D01*
X85515390Y-101670171D02*
X85801104Y-101670171D01*
X85801104Y-101670171D02*
X85991580Y-101765409D01*
X85991580Y-101765409D02*
X86086819Y-101860647D01*
X86086819Y-101860647D02*
X86182057Y-102051123D01*
X86182057Y-102051123D02*
X86182057Y-102813028D01*
D10*
X81156265Y-68686704D02*
X81632455Y-68686704D01*
X81061027Y-68972419D02*
X81394360Y-67972419D01*
X81394360Y-67972419D02*
X81727693Y-68972419D01*
X82061027Y-68972419D02*
X82061027Y-67972419D01*
X82061027Y-67972419D02*
X82299122Y-67972419D01*
X82299122Y-67972419D02*
X82441979Y-68020038D01*
X82441979Y-68020038D02*
X82537217Y-68115276D01*
X82537217Y-68115276D02*
X82584836Y-68210514D01*
X82584836Y-68210514D02*
X82632455Y-68400990D01*
X82632455Y-68400990D02*
X82632455Y-68543847D01*
X82632455Y-68543847D02*
X82584836Y-68734323D01*
X82584836Y-68734323D02*
X82537217Y-68829561D01*
X82537217Y-68829561D02*
X82441979Y-68924800D01*
X82441979Y-68924800D02*
X82299122Y-68972419D01*
X82299122Y-68972419D02*
X82061027Y-68972419D01*
X83251503Y-67972419D02*
X83346741Y-67972419D01*
X83346741Y-67972419D02*
X83441979Y-68020038D01*
X83441979Y-68020038D02*
X83489598Y-68067657D01*
X83489598Y-68067657D02*
X83537217Y-68162895D01*
X83537217Y-68162895D02*
X83584836Y-68353371D01*
X83584836Y-68353371D02*
X83584836Y-68591466D01*
X83584836Y-68591466D02*
X83537217Y-68781942D01*
X83537217Y-68781942D02*
X83489598Y-68877180D01*
X83489598Y-68877180D02*
X83441979Y-68924800D01*
X83441979Y-68924800D02*
X83346741Y-68972419D01*
X83346741Y-68972419D02*
X83251503Y-68972419D01*
X83251503Y-68972419D02*
X83156265Y-68924800D01*
X83156265Y-68924800D02*
X83108646Y-68877180D01*
X83108646Y-68877180D02*
X83061027Y-68781942D01*
X83061027Y-68781942D02*
X83013408Y-68591466D01*
X83013408Y-68591466D02*
X83013408Y-68353371D01*
X83013408Y-68353371D02*
X83061027Y-68162895D01*
X83061027Y-68162895D02*
X83108646Y-68067657D01*
X83108646Y-68067657D02*
X83156265Y-68020038D01*
X83156265Y-68020038D02*
X83251503Y-67972419D01*
X122077180Y-92524687D02*
X122124800Y-92572306D01*
X122124800Y-92572306D02*
X122172419Y-92715163D01*
X122172419Y-92715163D02*
X122172419Y-92810401D01*
X122172419Y-92810401D02*
X122124800Y-92953258D01*
X122124800Y-92953258D02*
X122029561Y-93048496D01*
X122029561Y-93048496D02*
X121934323Y-93096115D01*
X121934323Y-93096115D02*
X121743847Y-93143734D01*
X121743847Y-93143734D02*
X121600990Y-93143734D01*
X121600990Y-93143734D02*
X121410514Y-93096115D01*
X121410514Y-93096115D02*
X121315276Y-93048496D01*
X121315276Y-93048496D02*
X121220038Y-92953258D01*
X121220038Y-92953258D02*
X121172419Y-92810401D01*
X121172419Y-92810401D02*
X121172419Y-92715163D01*
X121172419Y-92715163D02*
X121220038Y-92572306D01*
X121220038Y-92572306D02*
X121267657Y-92524687D01*
X122124800Y-92143734D02*
X122172419Y-92000877D01*
X122172419Y-92000877D02*
X122172419Y-91762782D01*
X122172419Y-91762782D02*
X122124800Y-91667544D01*
X122124800Y-91667544D02*
X122077180Y-91619925D01*
X122077180Y-91619925D02*
X121981942Y-91572306D01*
X121981942Y-91572306D02*
X121886704Y-91572306D01*
X121886704Y-91572306D02*
X121791466Y-91619925D01*
X121791466Y-91619925D02*
X121743847Y-91667544D01*
X121743847Y-91667544D02*
X121696228Y-91762782D01*
X121696228Y-91762782D02*
X121648609Y-91953258D01*
X121648609Y-91953258D02*
X121600990Y-92048496D01*
X121600990Y-92048496D02*
X121553371Y-92096115D01*
X121553371Y-92096115D02*
X121458133Y-92143734D01*
X121458133Y-92143734D02*
X121362895Y-92143734D01*
X121362895Y-92143734D02*
X121267657Y-92096115D01*
X121267657Y-92096115D02*
X121220038Y-92048496D01*
X121220038Y-92048496D02*
X121172419Y-91953258D01*
X121172419Y-91953258D02*
X121172419Y-91715163D01*
X121172419Y-91715163D02*
X121220038Y-91572306D01*
X107024800Y-160473734D02*
X107072419Y-160330877D01*
X107072419Y-160330877D02*
X107072419Y-160092782D01*
X107072419Y-160092782D02*
X107024800Y-159997544D01*
X107024800Y-159997544D02*
X106977180Y-159949925D01*
X106977180Y-159949925D02*
X106881942Y-159902306D01*
X106881942Y-159902306D02*
X106786704Y-159902306D01*
X106786704Y-159902306D02*
X106691466Y-159949925D01*
X106691466Y-159949925D02*
X106643847Y-159997544D01*
X106643847Y-159997544D02*
X106596228Y-160092782D01*
X106596228Y-160092782D02*
X106548609Y-160283258D01*
X106548609Y-160283258D02*
X106500990Y-160378496D01*
X106500990Y-160378496D02*
X106453371Y-160426115D01*
X106453371Y-160426115D02*
X106358133Y-160473734D01*
X106358133Y-160473734D02*
X106262895Y-160473734D01*
X106262895Y-160473734D02*
X106167657Y-160426115D01*
X106167657Y-160426115D02*
X106120038Y-160378496D01*
X106120038Y-160378496D02*
X106072419Y-160283258D01*
X106072419Y-160283258D02*
X106072419Y-160045163D01*
X106072419Y-160045163D02*
X106120038Y-159902306D01*
X107072419Y-159473734D02*
X106072419Y-159473734D01*
X106072419Y-159473734D02*
X106072419Y-159235639D01*
X106072419Y-159235639D02*
X106120038Y-159092782D01*
X106120038Y-159092782D02*
X106215276Y-158997544D01*
X106215276Y-158997544D02*
X106310514Y-158949925D01*
X106310514Y-158949925D02*
X106500990Y-158902306D01*
X106500990Y-158902306D02*
X106643847Y-158902306D01*
X106643847Y-158902306D02*
X106834323Y-158949925D01*
X106834323Y-158949925D02*
X106929561Y-158997544D01*
X106929561Y-158997544D02*
X107024800Y-159092782D01*
X107024800Y-159092782D02*
X107072419Y-159235639D01*
X107072419Y-159235639D02*
X107072419Y-159473734D01*
X107167657Y-158711830D02*
X107167657Y-157949925D01*
X106977180Y-157140401D02*
X107024800Y-157188020D01*
X107024800Y-157188020D02*
X107072419Y-157330877D01*
X107072419Y-157330877D02*
X107072419Y-157426115D01*
X107072419Y-157426115D02*
X107024800Y-157568972D01*
X107024800Y-157568972D02*
X106929561Y-157664210D01*
X106929561Y-157664210D02*
X106834323Y-157711829D01*
X106834323Y-157711829D02*
X106643847Y-157759448D01*
X106643847Y-157759448D02*
X106500990Y-157759448D01*
X106500990Y-157759448D02*
X106310514Y-157711829D01*
X106310514Y-157711829D02*
X106215276Y-157664210D01*
X106215276Y-157664210D02*
X106120038Y-157568972D01*
X106120038Y-157568972D02*
X106072419Y-157426115D01*
X106072419Y-157426115D02*
X106072419Y-157330877D01*
X106072419Y-157330877D02*
X106120038Y-157188020D01*
X106120038Y-157188020D02*
X106167657Y-157140401D01*
X107024800Y-156759448D02*
X107072419Y-156616591D01*
X107072419Y-156616591D02*
X107072419Y-156378496D01*
X107072419Y-156378496D02*
X107024800Y-156283258D01*
X107024800Y-156283258D02*
X106977180Y-156235639D01*
X106977180Y-156235639D02*
X106881942Y-156188020D01*
X106881942Y-156188020D02*
X106786704Y-156188020D01*
X106786704Y-156188020D02*
X106691466Y-156235639D01*
X106691466Y-156235639D02*
X106643847Y-156283258D01*
X106643847Y-156283258D02*
X106596228Y-156378496D01*
X106596228Y-156378496D02*
X106548609Y-156568972D01*
X106548609Y-156568972D02*
X106500990Y-156664210D01*
X106500990Y-156664210D02*
X106453371Y-156711829D01*
X106453371Y-156711829D02*
X106358133Y-156759448D01*
X106358133Y-156759448D02*
X106262895Y-156759448D01*
X106262895Y-156759448D02*
X106167657Y-156711829D01*
X106167657Y-156711829D02*
X106120038Y-156664210D01*
X106120038Y-156664210D02*
X106072419Y-156568972D01*
X106072419Y-156568972D02*
X106072419Y-156330877D01*
X106072419Y-156330877D02*
X106120038Y-156188020D01*
X171272419Y-124092306D02*
X171272419Y-124663734D01*
X171272419Y-124378020D02*
X170272419Y-124378020D01*
X170272419Y-124378020D02*
X170415276Y-124473258D01*
X170415276Y-124473258D02*
X170510514Y-124568496D01*
X170510514Y-124568496D02*
X170558133Y-124663734D01*
X170748609Y-123330401D02*
X170796228Y-123187544D01*
X170796228Y-123187544D02*
X170843847Y-123139925D01*
X170843847Y-123139925D02*
X170939085Y-123092306D01*
X170939085Y-123092306D02*
X171081942Y-123092306D01*
X171081942Y-123092306D02*
X171177180Y-123139925D01*
X171177180Y-123139925D02*
X171224800Y-123187544D01*
X171224800Y-123187544D02*
X171272419Y-123282782D01*
X171272419Y-123282782D02*
X171272419Y-123663734D01*
X171272419Y-123663734D02*
X170272419Y-123663734D01*
X170272419Y-123663734D02*
X170272419Y-123330401D01*
X170272419Y-123330401D02*
X170320038Y-123235163D01*
X170320038Y-123235163D02*
X170367657Y-123187544D01*
X170367657Y-123187544D02*
X170462895Y-123139925D01*
X170462895Y-123139925D02*
X170558133Y-123139925D01*
X170558133Y-123139925D02*
X170653371Y-123187544D01*
X170653371Y-123187544D02*
X170700990Y-123235163D01*
X170700990Y-123235163D02*
X170748609Y-123330401D01*
X170748609Y-123330401D02*
X170748609Y-123663734D01*
X185672419Y-123672306D02*
X185672419Y-124243734D01*
X185672419Y-123958020D02*
X184672419Y-123958020D01*
X184672419Y-123958020D02*
X184815276Y-124053258D01*
X184815276Y-124053258D02*
X184910514Y-124148496D01*
X184910514Y-124148496D02*
X184958133Y-124243734D01*
X185386704Y-123291353D02*
X185386704Y-122815163D01*
X185672419Y-123386591D02*
X184672419Y-123053258D01*
X184672419Y-123053258D02*
X185672419Y-122719925D01*
X123820038Y-93372306D02*
X123772419Y-93467544D01*
X123772419Y-93467544D02*
X123772419Y-93610401D01*
X123772419Y-93610401D02*
X123820038Y-93753258D01*
X123820038Y-93753258D02*
X123915276Y-93848496D01*
X123915276Y-93848496D02*
X124010514Y-93896115D01*
X124010514Y-93896115D02*
X124200990Y-93943734D01*
X124200990Y-93943734D02*
X124343847Y-93943734D01*
X124343847Y-93943734D02*
X124534323Y-93896115D01*
X124534323Y-93896115D02*
X124629561Y-93848496D01*
X124629561Y-93848496D02*
X124724800Y-93753258D01*
X124724800Y-93753258D02*
X124772419Y-93610401D01*
X124772419Y-93610401D02*
X124772419Y-93515163D01*
X124772419Y-93515163D02*
X124724800Y-93372306D01*
X124724800Y-93372306D02*
X124677180Y-93324687D01*
X124677180Y-93324687D02*
X124343847Y-93324687D01*
X124343847Y-93324687D02*
X124343847Y-93515163D01*
X124772419Y-92896115D02*
X123772419Y-92896115D01*
X123772419Y-92896115D02*
X124772419Y-92324687D01*
X124772419Y-92324687D02*
X123772419Y-92324687D01*
X124772419Y-91848496D02*
X123772419Y-91848496D01*
X123772419Y-91848496D02*
X123772419Y-91610401D01*
X123772419Y-91610401D02*
X123820038Y-91467544D01*
X123820038Y-91467544D02*
X123915276Y-91372306D01*
X123915276Y-91372306D02*
X124010514Y-91324687D01*
X124010514Y-91324687D02*
X124200990Y-91277068D01*
X124200990Y-91277068D02*
X124343847Y-91277068D01*
X124343847Y-91277068D02*
X124534323Y-91324687D01*
X124534323Y-91324687D02*
X124629561Y-91372306D01*
X124629561Y-91372306D02*
X124724800Y-91467544D01*
X124724800Y-91467544D02*
X124772419Y-91610401D01*
X124772419Y-91610401D02*
X124772419Y-91848496D01*
X81061027Y-70772419D02*
X81394360Y-71772419D01*
X81394360Y-71772419D02*
X81727693Y-70772419D01*
X82632455Y-71677180D02*
X82584836Y-71724800D01*
X82584836Y-71724800D02*
X82441979Y-71772419D01*
X82441979Y-71772419D02*
X82346741Y-71772419D01*
X82346741Y-71772419D02*
X82203884Y-71724800D01*
X82203884Y-71724800D02*
X82108646Y-71629561D01*
X82108646Y-71629561D02*
X82061027Y-71534323D01*
X82061027Y-71534323D02*
X82013408Y-71343847D01*
X82013408Y-71343847D02*
X82013408Y-71200990D01*
X82013408Y-71200990D02*
X82061027Y-71010514D01*
X82061027Y-71010514D02*
X82108646Y-70915276D01*
X82108646Y-70915276D02*
X82203884Y-70820038D01*
X82203884Y-70820038D02*
X82346741Y-70772419D01*
X82346741Y-70772419D02*
X82441979Y-70772419D01*
X82441979Y-70772419D02*
X82584836Y-70820038D01*
X82584836Y-70820038D02*
X82632455Y-70867657D01*
X83632455Y-71677180D02*
X83584836Y-71724800D01*
X83584836Y-71724800D02*
X83441979Y-71772419D01*
X83441979Y-71772419D02*
X83346741Y-71772419D01*
X83346741Y-71772419D02*
X83203884Y-71724800D01*
X83203884Y-71724800D02*
X83108646Y-71629561D01*
X83108646Y-71629561D02*
X83061027Y-71534323D01*
X83061027Y-71534323D02*
X83013408Y-71343847D01*
X83013408Y-71343847D02*
X83013408Y-71200990D01*
X83013408Y-71200990D02*
X83061027Y-71010514D01*
X83061027Y-71010514D02*
X83108646Y-70915276D01*
X83108646Y-70915276D02*
X83203884Y-70820038D01*
X83203884Y-70820038D02*
X83346741Y-70772419D01*
X83346741Y-70772419D02*
X83441979Y-70772419D01*
X83441979Y-70772419D02*
X83584836Y-70820038D01*
X83584836Y-70820038D02*
X83632455Y-70867657D01*
D15*
X82039347Y-168234438D02*
X82039347Y-166234438D01*
X82039347Y-166234438D02*
X82515537Y-166234438D01*
X82515537Y-166234438D02*
X82801252Y-166329676D01*
X82801252Y-166329676D02*
X82991728Y-166520152D01*
X82991728Y-166520152D02*
X83086966Y-166710628D01*
X83086966Y-166710628D02*
X83182204Y-167091580D01*
X83182204Y-167091580D02*
X83182204Y-167377295D01*
X83182204Y-167377295D02*
X83086966Y-167758247D01*
X83086966Y-167758247D02*
X82991728Y-167948723D01*
X82991728Y-167948723D02*
X82801252Y-168139200D01*
X82801252Y-168139200D02*
X82515537Y-168234438D01*
X82515537Y-168234438D02*
X82039347Y-168234438D01*
X84801252Y-168139200D02*
X84610776Y-168234438D01*
X84610776Y-168234438D02*
X84229823Y-168234438D01*
X84229823Y-168234438D02*
X84039347Y-168139200D01*
X84039347Y-168139200D02*
X83944109Y-167948723D01*
X83944109Y-167948723D02*
X83944109Y-167186819D01*
X83944109Y-167186819D02*
X84039347Y-166996342D01*
X84039347Y-166996342D02*
X84229823Y-166901104D01*
X84229823Y-166901104D02*
X84610776Y-166901104D01*
X84610776Y-166901104D02*
X84801252Y-166996342D01*
X84801252Y-166996342D02*
X84896490Y-167186819D01*
X84896490Y-167186819D02*
X84896490Y-167377295D01*
X84896490Y-167377295D02*
X83944109Y-167567771D01*
X85658395Y-168139200D02*
X85848871Y-168234438D01*
X85848871Y-168234438D02*
X86229823Y-168234438D01*
X86229823Y-168234438D02*
X86420300Y-168139200D01*
X86420300Y-168139200D02*
X86515538Y-167948723D01*
X86515538Y-167948723D02*
X86515538Y-167853485D01*
X86515538Y-167853485D02*
X86420300Y-167663009D01*
X86420300Y-167663009D02*
X86229823Y-167567771D01*
X86229823Y-167567771D02*
X85944109Y-167567771D01*
X85944109Y-167567771D02*
X85753633Y-167472533D01*
X85753633Y-167472533D02*
X85658395Y-167282057D01*
X85658395Y-167282057D02*
X85658395Y-167186819D01*
X85658395Y-167186819D02*
X85753633Y-166996342D01*
X85753633Y-166996342D02*
X85944109Y-166901104D01*
X85944109Y-166901104D02*
X86229823Y-166901104D01*
X86229823Y-166901104D02*
X86420300Y-166996342D01*
X87372681Y-168234438D02*
X87372681Y-166901104D01*
X87372681Y-166234438D02*
X87277443Y-166329676D01*
X87277443Y-166329676D02*
X87372681Y-166424914D01*
X87372681Y-166424914D02*
X87467919Y-166329676D01*
X87467919Y-166329676D02*
X87372681Y-166234438D01*
X87372681Y-166234438D02*
X87372681Y-166424914D01*
X89182205Y-166901104D02*
X89182205Y-168520152D01*
X89182205Y-168520152D02*
X89086967Y-168710628D01*
X89086967Y-168710628D02*
X88991729Y-168805866D01*
X88991729Y-168805866D02*
X88801252Y-168901104D01*
X88801252Y-168901104D02*
X88515538Y-168901104D01*
X88515538Y-168901104D02*
X88325062Y-168805866D01*
X89182205Y-168139200D02*
X88991729Y-168234438D01*
X88991729Y-168234438D02*
X88610776Y-168234438D01*
X88610776Y-168234438D02*
X88420300Y-168139200D01*
X88420300Y-168139200D02*
X88325062Y-168043961D01*
X88325062Y-168043961D02*
X88229824Y-167853485D01*
X88229824Y-167853485D02*
X88229824Y-167282057D01*
X88229824Y-167282057D02*
X88325062Y-167091580D01*
X88325062Y-167091580D02*
X88420300Y-166996342D01*
X88420300Y-166996342D02*
X88610776Y-166901104D01*
X88610776Y-166901104D02*
X88991729Y-166901104D01*
X88991729Y-166901104D02*
X89182205Y-166996342D01*
X90134586Y-166901104D02*
X90134586Y-168234438D01*
X90134586Y-167091580D02*
X90229824Y-166996342D01*
X90229824Y-166996342D02*
X90420300Y-166901104D01*
X90420300Y-166901104D02*
X90706015Y-166901104D01*
X90706015Y-166901104D02*
X90896491Y-166996342D01*
X90896491Y-166996342D02*
X90991729Y-167186819D01*
X90991729Y-167186819D02*
X90991729Y-168234438D01*
X92706015Y-168139200D02*
X92515539Y-168234438D01*
X92515539Y-168234438D02*
X92134586Y-168234438D01*
X92134586Y-168234438D02*
X91944110Y-168139200D01*
X91944110Y-168139200D02*
X91848872Y-167948723D01*
X91848872Y-167948723D02*
X91848872Y-167186819D01*
X91848872Y-167186819D02*
X91944110Y-166996342D01*
X91944110Y-166996342D02*
X92134586Y-166901104D01*
X92134586Y-166901104D02*
X92515539Y-166901104D01*
X92515539Y-166901104D02*
X92706015Y-166996342D01*
X92706015Y-166996342D02*
X92801253Y-167186819D01*
X92801253Y-167186819D02*
X92801253Y-167377295D01*
X92801253Y-167377295D02*
X91848872Y-167567771D01*
X94515539Y-168234438D02*
X94515539Y-166234438D01*
X94515539Y-168139200D02*
X94325063Y-168234438D01*
X94325063Y-168234438D02*
X93944110Y-168234438D01*
X93944110Y-168234438D02*
X93753634Y-168139200D01*
X93753634Y-168139200D02*
X93658396Y-168043961D01*
X93658396Y-168043961D02*
X93563158Y-167853485D01*
X93563158Y-167853485D02*
X93563158Y-167282057D01*
X93563158Y-167282057D02*
X93658396Y-167091580D01*
X93658396Y-167091580D02*
X93753634Y-166996342D01*
X93753634Y-166996342D02*
X93944110Y-166901104D01*
X93944110Y-166901104D02*
X94325063Y-166901104D01*
X94325063Y-166901104D02*
X94515539Y-166996342D01*
X96991730Y-168234438D02*
X96991730Y-166234438D01*
X96991730Y-166996342D02*
X97182206Y-166901104D01*
X97182206Y-166901104D02*
X97563159Y-166901104D01*
X97563159Y-166901104D02*
X97753635Y-166996342D01*
X97753635Y-166996342D02*
X97848873Y-167091580D01*
X97848873Y-167091580D02*
X97944111Y-167282057D01*
X97944111Y-167282057D02*
X97944111Y-167853485D01*
X97944111Y-167853485D02*
X97848873Y-168043961D01*
X97848873Y-168043961D02*
X97753635Y-168139200D01*
X97753635Y-168139200D02*
X97563159Y-168234438D01*
X97563159Y-168234438D02*
X97182206Y-168234438D01*
X97182206Y-168234438D02*
X96991730Y-168139200D01*
X98610778Y-166901104D02*
X99086968Y-168234438D01*
X99563159Y-166901104D02*
X99086968Y-168234438D01*
X99086968Y-168234438D02*
X98896492Y-168710628D01*
X98896492Y-168710628D02*
X98801254Y-168805866D01*
X98801254Y-168805866D02*
X98610778Y-168901104D01*
X101848874Y-168234438D02*
X101848874Y-166234438D01*
X101848874Y-166234438D02*
X102515541Y-167663009D01*
X102515541Y-167663009D02*
X103182207Y-166234438D01*
X103182207Y-166234438D02*
X103182207Y-168234438D01*
X104991731Y-166901104D02*
X104991731Y-168234438D01*
X104134588Y-166901104D02*
X104134588Y-167948723D01*
X104134588Y-167948723D02*
X104229826Y-168139200D01*
X104229826Y-168139200D02*
X104420302Y-168234438D01*
X104420302Y-168234438D02*
X104706017Y-168234438D01*
X104706017Y-168234438D02*
X104896493Y-168139200D01*
X104896493Y-168139200D02*
X104991731Y-168043961D01*
X105944112Y-168234438D02*
X105944112Y-166234438D01*
X106801255Y-168234438D02*
X106801255Y-167186819D01*
X106801255Y-167186819D02*
X106706017Y-166996342D01*
X106706017Y-166996342D02*
X106515541Y-166901104D01*
X106515541Y-166901104D02*
X106229826Y-166901104D01*
X106229826Y-166901104D02*
X106039350Y-166996342D01*
X106039350Y-166996342D02*
X105944112Y-167091580D01*
X108610779Y-168234438D02*
X108610779Y-167186819D01*
X108610779Y-167186819D02*
X108515541Y-166996342D01*
X108515541Y-166996342D02*
X108325065Y-166901104D01*
X108325065Y-166901104D02*
X107944112Y-166901104D01*
X107944112Y-166901104D02*
X107753636Y-166996342D01*
X108610779Y-168139200D02*
X108420303Y-168234438D01*
X108420303Y-168234438D02*
X107944112Y-168234438D01*
X107944112Y-168234438D02*
X107753636Y-168139200D01*
X107753636Y-168139200D02*
X107658398Y-167948723D01*
X107658398Y-167948723D02*
X107658398Y-167758247D01*
X107658398Y-167758247D02*
X107753636Y-167567771D01*
X107753636Y-167567771D02*
X107944112Y-167472533D01*
X107944112Y-167472533D02*
X108420303Y-167472533D01*
X108420303Y-167472533D02*
X108610779Y-167377295D01*
X109563160Y-168234438D02*
X109563160Y-166901104D01*
X109563160Y-167091580D02*
X109658398Y-166996342D01*
X109658398Y-166996342D02*
X109848874Y-166901104D01*
X109848874Y-166901104D02*
X110134589Y-166901104D01*
X110134589Y-166901104D02*
X110325065Y-166996342D01*
X110325065Y-166996342D02*
X110420303Y-167186819D01*
X110420303Y-167186819D02*
X110420303Y-168234438D01*
X110420303Y-167186819D02*
X110515541Y-166996342D01*
X110515541Y-166996342D02*
X110706017Y-166901104D01*
X110706017Y-166901104D02*
X110991731Y-166901104D01*
X110991731Y-166901104D02*
X111182208Y-166996342D01*
X111182208Y-166996342D02*
X111277446Y-167186819D01*
X111277446Y-167186819D02*
X111277446Y-168234438D01*
X112229827Y-168234438D02*
X112229827Y-166901104D01*
X112229827Y-167091580D02*
X112325065Y-166996342D01*
X112325065Y-166996342D02*
X112515541Y-166901104D01*
X112515541Y-166901104D02*
X112801256Y-166901104D01*
X112801256Y-166901104D02*
X112991732Y-166996342D01*
X112991732Y-166996342D02*
X113086970Y-167186819D01*
X113086970Y-167186819D02*
X113086970Y-168234438D01*
X113086970Y-167186819D02*
X113182208Y-166996342D01*
X113182208Y-166996342D02*
X113372684Y-166901104D01*
X113372684Y-166901104D02*
X113658398Y-166901104D01*
X113658398Y-166901104D02*
X113848875Y-166996342D01*
X113848875Y-166996342D02*
X113944113Y-167186819D01*
X113944113Y-167186819D02*
X113944113Y-168234438D01*
X115753637Y-168234438D02*
X115753637Y-167186819D01*
X115753637Y-167186819D02*
X115658399Y-166996342D01*
X115658399Y-166996342D02*
X115467923Y-166901104D01*
X115467923Y-166901104D02*
X115086970Y-166901104D01*
X115086970Y-166901104D02*
X114896494Y-166996342D01*
X115753637Y-168139200D02*
X115563161Y-168234438D01*
X115563161Y-168234438D02*
X115086970Y-168234438D01*
X115086970Y-168234438D02*
X114896494Y-168139200D01*
X114896494Y-168139200D02*
X114801256Y-167948723D01*
X114801256Y-167948723D02*
X114801256Y-167758247D01*
X114801256Y-167758247D02*
X114896494Y-167567771D01*
X114896494Y-167567771D02*
X115086970Y-167472533D01*
X115086970Y-167472533D02*
X115563161Y-167472533D01*
X115563161Y-167472533D02*
X115753637Y-167377295D01*
X117563161Y-168234438D02*
X117563161Y-166234438D01*
X117563161Y-168139200D02*
X117372685Y-168234438D01*
X117372685Y-168234438D02*
X116991732Y-168234438D01*
X116991732Y-168234438D02*
X116801256Y-168139200D01*
X116801256Y-168139200D02*
X116706018Y-168043961D01*
X116706018Y-168043961D02*
X116610780Y-167853485D01*
X116610780Y-167853485D02*
X116610780Y-167282057D01*
X116610780Y-167282057D02*
X116706018Y-167091580D01*
X116706018Y-167091580D02*
X116801256Y-166996342D01*
X116801256Y-166996342D02*
X116991732Y-166901104D01*
X116991732Y-166901104D02*
X117372685Y-166901104D01*
X117372685Y-166901104D02*
X117563161Y-166996342D01*
X120039352Y-166234438D02*
X120039352Y-167853485D01*
X120039352Y-167853485D02*
X120134590Y-168043961D01*
X120134590Y-168043961D02*
X120229828Y-168139200D01*
X120229828Y-168139200D02*
X120420304Y-168234438D01*
X120420304Y-168234438D02*
X120801257Y-168234438D01*
X120801257Y-168234438D02*
X120991733Y-168139200D01*
X120991733Y-168139200D02*
X121086971Y-168043961D01*
X121086971Y-168043961D02*
X121182209Y-167853485D01*
X121182209Y-167853485D02*
X121182209Y-166234438D01*
X121944114Y-166901104D02*
X122991733Y-166901104D01*
X122991733Y-166901104D02*
X121944114Y-168234438D01*
X121944114Y-168234438D02*
X122991733Y-168234438D01*
X123563162Y-166901104D02*
X124610781Y-166901104D01*
X124610781Y-166901104D02*
X123563162Y-168234438D01*
X123563162Y-168234438D02*
X124610781Y-168234438D01*
X126229829Y-168234438D02*
X126229829Y-167186819D01*
X126229829Y-167186819D02*
X126134591Y-166996342D01*
X126134591Y-166996342D02*
X125944115Y-166901104D01*
X125944115Y-166901104D02*
X125563162Y-166901104D01*
X125563162Y-166901104D02*
X125372686Y-166996342D01*
X126229829Y-168139200D02*
X126039353Y-168234438D01*
X126039353Y-168234438D02*
X125563162Y-168234438D01*
X125563162Y-168234438D02*
X125372686Y-168139200D01*
X125372686Y-168139200D02*
X125277448Y-167948723D01*
X125277448Y-167948723D02*
X125277448Y-167758247D01*
X125277448Y-167758247D02*
X125372686Y-167567771D01*
X125372686Y-167567771D02*
X125563162Y-167472533D01*
X125563162Y-167472533D02*
X126039353Y-167472533D01*
X126039353Y-167472533D02*
X126229829Y-167377295D01*
X127182210Y-168234438D02*
X127182210Y-166901104D01*
X127182210Y-167091580D02*
X127277448Y-166996342D01*
X127277448Y-166996342D02*
X127467924Y-166901104D01*
X127467924Y-166901104D02*
X127753639Y-166901104D01*
X127753639Y-166901104D02*
X127944115Y-166996342D01*
X127944115Y-166996342D02*
X128039353Y-167186819D01*
X128039353Y-167186819D02*
X128039353Y-168234438D01*
X128039353Y-167186819D02*
X128134591Y-166996342D01*
X128134591Y-166996342D02*
X128325067Y-166901104D01*
X128325067Y-166901104D02*
X128610781Y-166901104D01*
X128610781Y-166901104D02*
X128801258Y-166996342D01*
X128801258Y-166996342D02*
X128896496Y-167186819D01*
X128896496Y-167186819D02*
X128896496Y-168234438D01*
X132039354Y-167186819D02*
X132325068Y-167282057D01*
X132325068Y-167282057D02*
X132420306Y-167377295D01*
X132420306Y-167377295D02*
X132515544Y-167567771D01*
X132515544Y-167567771D02*
X132515544Y-167853485D01*
X132515544Y-167853485D02*
X132420306Y-168043961D01*
X132420306Y-168043961D02*
X132325068Y-168139200D01*
X132325068Y-168139200D02*
X132134592Y-168234438D01*
X132134592Y-168234438D02*
X131372687Y-168234438D01*
X131372687Y-168234438D02*
X131372687Y-166234438D01*
X131372687Y-166234438D02*
X132039354Y-166234438D01*
X132039354Y-166234438D02*
X132229830Y-166329676D01*
X132229830Y-166329676D02*
X132325068Y-166424914D01*
X132325068Y-166424914D02*
X132420306Y-166615390D01*
X132420306Y-166615390D02*
X132420306Y-166805866D01*
X132420306Y-166805866D02*
X132325068Y-166996342D01*
X132325068Y-166996342D02*
X132229830Y-167091580D01*
X132229830Y-167091580D02*
X132039354Y-167186819D01*
X132039354Y-167186819D02*
X131372687Y-167186819D01*
X134229830Y-166901104D02*
X134229830Y-168234438D01*
X133372687Y-166901104D02*
X133372687Y-167948723D01*
X133372687Y-167948723D02*
X133467925Y-168139200D01*
X133467925Y-168139200D02*
X133658401Y-168234438D01*
X133658401Y-168234438D02*
X133944116Y-168234438D01*
X133944116Y-168234438D02*
X134134592Y-168139200D01*
X134134592Y-168139200D02*
X134229830Y-168043961D01*
X134896497Y-166901104D02*
X135658401Y-166901104D01*
X135182211Y-166234438D02*
X135182211Y-167948723D01*
X135182211Y-167948723D02*
X135277449Y-168139200D01*
X135277449Y-168139200D02*
X135467925Y-168234438D01*
X135467925Y-168234438D02*
X135658401Y-168234438D01*
X136039354Y-166901104D02*
X136801258Y-166901104D01*
X136325068Y-166234438D02*
X136325068Y-167948723D01*
X136325068Y-167948723D02*
X136420306Y-168139200D01*
X136420306Y-168139200D02*
X136610782Y-168234438D01*
X136610782Y-168234438D02*
X136801258Y-168234438D01*
D10*
X163267657Y-124643734D02*
X163220038Y-124596115D01*
X163220038Y-124596115D02*
X163172419Y-124500877D01*
X163172419Y-124500877D02*
X163172419Y-124262782D01*
X163172419Y-124262782D02*
X163220038Y-124167544D01*
X163220038Y-124167544D02*
X163267657Y-124119925D01*
X163267657Y-124119925D02*
X163362895Y-124072306D01*
X163362895Y-124072306D02*
X163458133Y-124072306D01*
X163458133Y-124072306D02*
X163600990Y-124119925D01*
X163600990Y-124119925D02*
X164172419Y-124691353D01*
X164172419Y-124691353D02*
X164172419Y-124072306D01*
X163886704Y-123691353D02*
X163886704Y-123215163D01*
X164172419Y-123786591D02*
X163172419Y-123453258D01*
X163172419Y-123453258D02*
X164172419Y-123119925D01*
D16*
X185812844Y-40018333D02*
X189622368Y-40018333D01*
X187717606Y-41923095D02*
X187717606Y-38113571D01*
D10*
X109572419Y-92919925D02*
X109572419Y-93396115D01*
X109572419Y-93396115D02*
X108572419Y-93396115D01*
X109048609Y-92586591D02*
X109048609Y-92253258D01*
X109572419Y-92110401D02*
X109572419Y-92586591D01*
X109572419Y-92586591D02*
X108572419Y-92586591D01*
X108572419Y-92586591D02*
X108572419Y-92110401D01*
X109572419Y-91681829D02*
X108572419Y-91681829D01*
X108572419Y-91681829D02*
X108572419Y-91443734D01*
X108572419Y-91443734D02*
X108620038Y-91300877D01*
X108620038Y-91300877D02*
X108715276Y-91205639D01*
X108715276Y-91205639D02*
X108810514Y-91158020D01*
X108810514Y-91158020D02*
X109000990Y-91110401D01*
X109000990Y-91110401D02*
X109143847Y-91110401D01*
X109143847Y-91110401D02*
X109334323Y-91158020D01*
X109334323Y-91158020D02*
X109429561Y-91205639D01*
X109429561Y-91205639D02*
X109524800Y-91300877D01*
X109524800Y-91300877D02*
X109572419Y-91443734D01*
X109572419Y-91443734D02*
X109572419Y-91681829D01*
X177967657Y-124343734D02*
X177920038Y-124296115D01*
X177920038Y-124296115D02*
X177872419Y-124200877D01*
X177872419Y-124200877D02*
X177872419Y-123962782D01*
X177872419Y-123962782D02*
X177920038Y-123867544D01*
X177920038Y-123867544D02*
X177967657Y-123819925D01*
X177967657Y-123819925D02*
X178062895Y-123772306D01*
X178062895Y-123772306D02*
X178158133Y-123772306D01*
X178158133Y-123772306D02*
X178300990Y-123819925D01*
X178300990Y-123819925D02*
X178872419Y-124391353D01*
X178872419Y-124391353D02*
X178872419Y-123772306D01*
X178348609Y-123010401D02*
X178396228Y-122867544D01*
X178396228Y-122867544D02*
X178443847Y-122819925D01*
X178443847Y-122819925D02*
X178539085Y-122772306D01*
X178539085Y-122772306D02*
X178681942Y-122772306D01*
X178681942Y-122772306D02*
X178777180Y-122819925D01*
X178777180Y-122819925D02*
X178824800Y-122867544D01*
X178824800Y-122867544D02*
X178872419Y-122962782D01*
X178872419Y-122962782D02*
X178872419Y-123343734D01*
X178872419Y-123343734D02*
X177872419Y-123343734D01*
X177872419Y-123343734D02*
X177872419Y-123010401D01*
X177872419Y-123010401D02*
X177920038Y-122915163D01*
X177920038Y-122915163D02*
X177967657Y-122867544D01*
X177967657Y-122867544D02*
X178062895Y-122819925D01*
X178062895Y-122819925D02*
X178158133Y-122819925D01*
X178158133Y-122819925D02*
X178253371Y-122867544D01*
X178253371Y-122867544D02*
X178300990Y-122915163D01*
X178300990Y-122915163D02*
X178348609Y-123010401D01*
X178348609Y-123010401D02*
X178348609Y-123343734D01*
D14*
X183540225Y-35900828D02*
X182683082Y-35900828D01*
X183111653Y-35900828D02*
X183111653Y-34400828D01*
X183111653Y-34400828D02*
X182968796Y-34615114D01*
X182968796Y-34615114D02*
X182825939Y-34757971D01*
X182825939Y-34757971D02*
X182683082Y-34829400D01*
X184111653Y-34543685D02*
X184183081Y-34472257D01*
X184183081Y-34472257D02*
X184325939Y-34400828D01*
X184325939Y-34400828D02*
X184683081Y-34400828D01*
X184683081Y-34400828D02*
X184825939Y-34472257D01*
X184825939Y-34472257D02*
X184897367Y-34543685D01*
X184897367Y-34543685D02*
X184968796Y-34686542D01*
X184968796Y-34686542D02*
X184968796Y-34829400D01*
X184968796Y-34829400D02*
X184897367Y-35043685D01*
X184897367Y-35043685D02*
X184040224Y-35900828D01*
X184040224Y-35900828D02*
X184968796Y-35900828D01*
X185397367Y-34400828D02*
X185897367Y-35900828D01*
X185897367Y-35900828D02*
X186397367Y-34400828D01*
X188040223Y-35900828D02*
X188040223Y-34400828D01*
X188754509Y-35900828D02*
X188754509Y-34400828D01*
X188754509Y-34400828D02*
X189611652Y-35900828D01*
X189611652Y-35900828D02*
X189611652Y-34400828D01*
X190325938Y-35900828D02*
X190325938Y-34400828D01*
X190325938Y-34400828D02*
X190897367Y-34400828D01*
X190897367Y-34400828D02*
X191040224Y-34472257D01*
X191040224Y-34472257D02*
X191111653Y-34543685D01*
X191111653Y-34543685D02*
X191183081Y-34686542D01*
X191183081Y-34686542D02*
X191183081Y-34900828D01*
X191183081Y-34900828D02*
X191111653Y-35043685D01*
X191111653Y-35043685D02*
X191040224Y-35115114D01*
X191040224Y-35115114D02*
X190897367Y-35186542D01*
X190897367Y-35186542D02*
X190325938Y-35186542D01*
X191825938Y-34400828D02*
X191825938Y-35615114D01*
X191825938Y-35615114D02*
X191897367Y-35757971D01*
X191897367Y-35757971D02*
X191968796Y-35829400D01*
X191968796Y-35829400D02*
X192111653Y-35900828D01*
X192111653Y-35900828D02*
X192397367Y-35900828D01*
X192397367Y-35900828D02*
X192540224Y-35829400D01*
X192540224Y-35829400D02*
X192611653Y-35757971D01*
X192611653Y-35757971D02*
X192683081Y-35615114D01*
X192683081Y-35615114D02*
X192683081Y-34400828D01*
X193183082Y-34400828D02*
X194040225Y-34400828D01*
X193611653Y-35900828D02*
X193611653Y-34400828D01*
D10*
X119672419Y-92824687D02*
X119196228Y-93158020D01*
X119672419Y-93396115D02*
X118672419Y-93396115D01*
X118672419Y-93396115D02*
X118672419Y-93015163D01*
X118672419Y-93015163D02*
X118720038Y-92919925D01*
X118720038Y-92919925D02*
X118767657Y-92872306D01*
X118767657Y-92872306D02*
X118862895Y-92824687D01*
X118862895Y-92824687D02*
X119005752Y-92824687D01*
X119005752Y-92824687D02*
X119100990Y-92872306D01*
X119100990Y-92872306D02*
X119148609Y-92919925D01*
X119148609Y-92919925D02*
X119196228Y-93015163D01*
X119196228Y-93015163D02*
X119196228Y-93396115D01*
X119624800Y-92443734D02*
X119672419Y-92300877D01*
X119672419Y-92300877D02*
X119672419Y-92062782D01*
X119672419Y-92062782D02*
X119624800Y-91967544D01*
X119624800Y-91967544D02*
X119577180Y-91919925D01*
X119577180Y-91919925D02*
X119481942Y-91872306D01*
X119481942Y-91872306D02*
X119386704Y-91872306D01*
X119386704Y-91872306D02*
X119291466Y-91919925D01*
X119291466Y-91919925D02*
X119243847Y-91967544D01*
X119243847Y-91967544D02*
X119196228Y-92062782D01*
X119196228Y-92062782D02*
X119148609Y-92253258D01*
X119148609Y-92253258D02*
X119100990Y-92348496D01*
X119100990Y-92348496D02*
X119053371Y-92396115D01*
X119053371Y-92396115D02*
X118958133Y-92443734D01*
X118958133Y-92443734D02*
X118862895Y-92443734D01*
X118862895Y-92443734D02*
X118767657Y-92396115D01*
X118767657Y-92396115D02*
X118720038Y-92348496D01*
X118720038Y-92348496D02*
X118672419Y-92253258D01*
X118672419Y-92253258D02*
X118672419Y-92015163D01*
X118672419Y-92015163D02*
X118720038Y-91872306D01*
X118672419Y-91586591D02*
X118672419Y-91015163D01*
X119672419Y-91300877D02*
X118672419Y-91300877D01*
X189472419Y-123692306D02*
X189472419Y-124263734D01*
X189472419Y-123978020D02*
X188472419Y-123978020D01*
X188472419Y-123978020D02*
X188615276Y-124073258D01*
X188615276Y-124073258D02*
X188710514Y-124168496D01*
X188710514Y-124168496D02*
X188758133Y-124263734D01*
X188948609Y-122930401D02*
X188996228Y-122787544D01*
X188996228Y-122787544D02*
X189043847Y-122739925D01*
X189043847Y-122739925D02*
X189139085Y-122692306D01*
X189139085Y-122692306D02*
X189281942Y-122692306D01*
X189281942Y-122692306D02*
X189377180Y-122739925D01*
X189377180Y-122739925D02*
X189424800Y-122787544D01*
X189424800Y-122787544D02*
X189472419Y-122882782D01*
X189472419Y-122882782D02*
X189472419Y-123263734D01*
X189472419Y-123263734D02*
X188472419Y-123263734D01*
X188472419Y-123263734D02*
X188472419Y-122930401D01*
X188472419Y-122930401D02*
X188520038Y-122835163D01*
X188520038Y-122835163D02*
X188567657Y-122787544D01*
X188567657Y-122787544D02*
X188662895Y-122739925D01*
X188662895Y-122739925D02*
X188758133Y-122739925D01*
X188758133Y-122739925D02*
X188853371Y-122787544D01*
X188853371Y-122787544D02*
X188900990Y-122835163D01*
X188900990Y-122835163D02*
X188948609Y-122930401D01*
X188948609Y-122930401D02*
X188948609Y-123263734D01*
X167472419Y-124072306D02*
X167472419Y-124643734D01*
X167472419Y-124358020D02*
X166472419Y-124358020D01*
X166472419Y-124358020D02*
X166615276Y-124453258D01*
X166615276Y-124453258D02*
X166710514Y-124548496D01*
X166710514Y-124548496D02*
X166758133Y-124643734D01*
X167186704Y-123691353D02*
X167186704Y-123215163D01*
X167472419Y-123786591D02*
X166472419Y-123453258D01*
X166472419Y-123453258D02*
X167472419Y-123119925D01*
D16*
X189387155Y-44781666D02*
X185577632Y-44781666D01*
D10*
X126472419Y-93938972D02*
X127472419Y-93605639D01*
X127472419Y-93605639D02*
X126472419Y-93272306D01*
X127377180Y-92367544D02*
X127424800Y-92415163D01*
X127424800Y-92415163D02*
X127472419Y-92558020D01*
X127472419Y-92558020D02*
X127472419Y-92653258D01*
X127472419Y-92653258D02*
X127424800Y-92796115D01*
X127424800Y-92796115D02*
X127329561Y-92891353D01*
X127329561Y-92891353D02*
X127234323Y-92938972D01*
X127234323Y-92938972D02*
X127043847Y-92986591D01*
X127043847Y-92986591D02*
X126900990Y-92986591D01*
X126900990Y-92986591D02*
X126710514Y-92938972D01*
X126710514Y-92938972D02*
X126615276Y-92891353D01*
X126615276Y-92891353D02*
X126520038Y-92796115D01*
X126520038Y-92796115D02*
X126472419Y-92653258D01*
X126472419Y-92653258D02*
X126472419Y-92558020D01*
X126472419Y-92558020D02*
X126520038Y-92415163D01*
X126520038Y-92415163D02*
X126567657Y-92367544D01*
X127377180Y-91367544D02*
X127424800Y-91415163D01*
X127424800Y-91415163D02*
X127472419Y-91558020D01*
X127472419Y-91558020D02*
X127472419Y-91653258D01*
X127472419Y-91653258D02*
X127424800Y-91796115D01*
X127424800Y-91796115D02*
X127329561Y-91891353D01*
X127329561Y-91891353D02*
X127234323Y-91938972D01*
X127234323Y-91938972D02*
X127043847Y-91986591D01*
X127043847Y-91986591D02*
X126900990Y-91986591D01*
X126900990Y-91986591D02*
X126710514Y-91938972D01*
X126710514Y-91938972D02*
X126615276Y-91891353D01*
X126615276Y-91891353D02*
X126520038Y-91796115D01*
X126520038Y-91796115D02*
X126472419Y-91653258D01*
X126472419Y-91653258D02*
X126472419Y-91558020D01*
X126472419Y-91558020D02*
X126520038Y-91415163D01*
X126520038Y-91415163D02*
X126567657Y-91367544D01*
X111824800Y-94143734D02*
X111872419Y-94000877D01*
X111872419Y-94000877D02*
X111872419Y-93762782D01*
X111872419Y-93762782D02*
X111824800Y-93667544D01*
X111824800Y-93667544D02*
X111777180Y-93619925D01*
X111777180Y-93619925D02*
X111681942Y-93572306D01*
X111681942Y-93572306D02*
X111586704Y-93572306D01*
X111586704Y-93572306D02*
X111491466Y-93619925D01*
X111491466Y-93619925D02*
X111443847Y-93667544D01*
X111443847Y-93667544D02*
X111396228Y-93762782D01*
X111396228Y-93762782D02*
X111348609Y-93953258D01*
X111348609Y-93953258D02*
X111300990Y-94048496D01*
X111300990Y-94048496D02*
X111253371Y-94096115D01*
X111253371Y-94096115D02*
X111158133Y-94143734D01*
X111158133Y-94143734D02*
X111062895Y-94143734D01*
X111062895Y-94143734D02*
X110967657Y-94096115D01*
X110967657Y-94096115D02*
X110920038Y-94048496D01*
X110920038Y-94048496D02*
X110872419Y-93953258D01*
X110872419Y-93953258D02*
X110872419Y-93715163D01*
X110872419Y-93715163D02*
X110920038Y-93572306D01*
X111777180Y-92572306D02*
X111824800Y-92619925D01*
X111824800Y-92619925D02*
X111872419Y-92762782D01*
X111872419Y-92762782D02*
X111872419Y-92858020D01*
X111872419Y-92858020D02*
X111824800Y-93000877D01*
X111824800Y-93000877D02*
X111729561Y-93096115D01*
X111729561Y-93096115D02*
X111634323Y-93143734D01*
X111634323Y-93143734D02*
X111443847Y-93191353D01*
X111443847Y-93191353D02*
X111300990Y-93191353D01*
X111300990Y-93191353D02*
X111110514Y-93143734D01*
X111110514Y-93143734D02*
X111015276Y-93096115D01*
X111015276Y-93096115D02*
X110920038Y-93000877D01*
X110920038Y-93000877D02*
X110872419Y-92858020D01*
X110872419Y-92858020D02*
X110872419Y-92762782D01*
X110872419Y-92762782D02*
X110920038Y-92619925D01*
X110920038Y-92619925D02*
X110967657Y-92572306D01*
X111872419Y-92143734D02*
X110872419Y-92143734D01*
X111872419Y-91572306D02*
X111300990Y-92000877D01*
X110872419Y-91572306D02*
X111443847Y-92143734D01*
X159767657Y-124743734D02*
X159720038Y-124696115D01*
X159720038Y-124696115D02*
X159672419Y-124600877D01*
X159672419Y-124600877D02*
X159672419Y-124362782D01*
X159672419Y-124362782D02*
X159720038Y-124267544D01*
X159720038Y-124267544D02*
X159767657Y-124219925D01*
X159767657Y-124219925D02*
X159862895Y-124172306D01*
X159862895Y-124172306D02*
X159958133Y-124172306D01*
X159958133Y-124172306D02*
X160100990Y-124219925D01*
X160100990Y-124219925D02*
X160672419Y-124791353D01*
X160672419Y-124791353D02*
X160672419Y-124172306D01*
X160148609Y-123410401D02*
X160196228Y-123267544D01*
X160196228Y-123267544D02*
X160243847Y-123219925D01*
X160243847Y-123219925D02*
X160339085Y-123172306D01*
X160339085Y-123172306D02*
X160481942Y-123172306D01*
X160481942Y-123172306D02*
X160577180Y-123219925D01*
X160577180Y-123219925D02*
X160624800Y-123267544D01*
X160624800Y-123267544D02*
X160672419Y-123362782D01*
X160672419Y-123362782D02*
X160672419Y-123743734D01*
X160672419Y-123743734D02*
X159672419Y-123743734D01*
X159672419Y-123743734D02*
X159672419Y-123410401D01*
X159672419Y-123410401D02*
X159720038Y-123315163D01*
X159720038Y-123315163D02*
X159767657Y-123267544D01*
X159767657Y-123267544D02*
X159862895Y-123219925D01*
X159862895Y-123219925D02*
X159958133Y-123219925D01*
X159958133Y-123219925D02*
X160053371Y-123267544D01*
X160053371Y-123267544D02*
X160100990Y-123315163D01*
X160100990Y-123315163D02*
X160148609Y-123410401D01*
X160148609Y-123410401D02*
X160148609Y-123743734D01*
D17*
X136424819Y-76633333D02*
X137139104Y-76633333D01*
X137139104Y-76633333D02*
X137281961Y-76680952D01*
X137281961Y-76680952D02*
X137377200Y-76776190D01*
X137377200Y-76776190D02*
X137424819Y-76919047D01*
X137424819Y-76919047D02*
X137424819Y-77014285D01*
X137424819Y-75633333D02*
X137424819Y-76204761D01*
X137424819Y-75919047D02*
X136424819Y-75919047D01*
X136424819Y-75919047D02*
X136567676Y-76014285D01*
X136567676Y-76014285D02*
X136662914Y-76109523D01*
X136662914Y-76109523D02*
X136710533Y-76204761D01*
X185623333Y-64064819D02*
X185147143Y-64064819D01*
X185147143Y-64064819D02*
X185147143Y-63064819D01*
X186480476Y-64064819D02*
X185909048Y-64064819D01*
X186194762Y-64064819D02*
X186194762Y-63064819D01*
X186194762Y-63064819D02*
X186099524Y-63207676D01*
X186099524Y-63207676D02*
X186004286Y-63302914D01*
X186004286Y-63302914D02*
X185909048Y-63350533D01*
X184004286Y-78064819D02*
X184623333Y-78064819D01*
X184623333Y-78064819D02*
X184290000Y-78445771D01*
X184290000Y-78445771D02*
X184432857Y-78445771D01*
X184432857Y-78445771D02*
X184528095Y-78493390D01*
X184528095Y-78493390D02*
X184575714Y-78541009D01*
X184575714Y-78541009D02*
X184623333Y-78636247D01*
X184623333Y-78636247D02*
X184623333Y-78874342D01*
X184623333Y-78874342D02*
X184575714Y-78969580D01*
X184575714Y-78969580D02*
X184528095Y-79017200D01*
X184528095Y-79017200D02*
X184432857Y-79064819D01*
X184432857Y-79064819D02*
X184147143Y-79064819D01*
X184147143Y-79064819D02*
X184051905Y-79017200D01*
X184051905Y-79017200D02*
X184004286Y-78969580D01*
X184956667Y-78064819D02*
X185575714Y-78064819D01*
X185575714Y-78064819D02*
X185242381Y-78445771D01*
X185242381Y-78445771D02*
X185385238Y-78445771D01*
X185385238Y-78445771D02*
X185480476Y-78493390D01*
X185480476Y-78493390D02*
X185528095Y-78541009D01*
X185528095Y-78541009D02*
X185575714Y-78636247D01*
X185575714Y-78636247D02*
X185575714Y-78874342D01*
X185575714Y-78874342D02*
X185528095Y-78969580D01*
X185528095Y-78969580D02*
X185480476Y-79017200D01*
X185480476Y-79017200D02*
X185385238Y-79064819D01*
X185385238Y-79064819D02*
X185099524Y-79064819D01*
X185099524Y-79064819D02*
X185004286Y-79017200D01*
X185004286Y-79017200D02*
X184956667Y-78969580D01*
X186432857Y-78398152D02*
X186432857Y-79064819D01*
X186004286Y-78398152D02*
X186004286Y-78921961D01*
X186004286Y-78921961D02*
X186051905Y-79017200D01*
X186051905Y-79017200D02*
X186147143Y-79064819D01*
X186147143Y-79064819D02*
X186290000Y-79064819D01*
X186290000Y-79064819D02*
X186385238Y-79017200D01*
X186385238Y-79017200D02*
X186432857Y-78969580D01*
X186909048Y-79064819D02*
X186909048Y-78064819D01*
X186909048Y-78541009D02*
X187480476Y-78541009D01*
X187480476Y-79064819D02*
X187480476Y-78064819D01*
X90874819Y-90033333D02*
X91589104Y-90033333D01*
X91589104Y-90033333D02*
X91731961Y-90080952D01*
X91731961Y-90080952D02*
X91827200Y-90176190D01*
X91827200Y-90176190D02*
X91874819Y-90319047D01*
X91874819Y-90319047D02*
X91874819Y-90414285D01*
X90874819Y-89080952D02*
X90874819Y-89557142D01*
X90874819Y-89557142D02*
X91351009Y-89604761D01*
X91351009Y-89604761D02*
X91303390Y-89557142D01*
X91303390Y-89557142D02*
X91255771Y-89461904D01*
X91255771Y-89461904D02*
X91255771Y-89223809D01*
X91255771Y-89223809D02*
X91303390Y-89128571D01*
X91303390Y-89128571D02*
X91351009Y-89080952D01*
X91351009Y-89080952D02*
X91446247Y-89033333D01*
X91446247Y-89033333D02*
X91684342Y-89033333D01*
X91684342Y-89033333D02*
X91779580Y-89080952D01*
X91779580Y-89080952D02*
X91827200Y-89128571D01*
X91827200Y-89128571D02*
X91874819Y-89223809D01*
X91874819Y-89223809D02*
X91874819Y-89461904D01*
X91874819Y-89461904D02*
X91827200Y-89557142D01*
X91827200Y-89557142D02*
X91779580Y-89604761D01*
X174384819Y-42333333D02*
X175099104Y-42333333D01*
X175099104Y-42333333D02*
X175241961Y-42380952D01*
X175241961Y-42380952D02*
X175337200Y-42476190D01*
X175337200Y-42476190D02*
X175384819Y-42619047D01*
X175384819Y-42619047D02*
X175384819Y-42714285D01*
X174384819Y-41952380D02*
X174384819Y-41285714D01*
X174384819Y-41285714D02*
X175384819Y-41714285D01*
X196938095Y-35104819D02*
X196938095Y-34104819D01*
X196938095Y-34581009D02*
X197509523Y-34581009D01*
X197509523Y-35104819D02*
X197509523Y-34104819D01*
X197938095Y-34200057D02*
X197985714Y-34152438D01*
X197985714Y-34152438D02*
X198080952Y-34104819D01*
X198080952Y-34104819D02*
X198319047Y-34104819D01*
X198319047Y-34104819D02*
X198414285Y-34152438D01*
X198414285Y-34152438D02*
X198461904Y-34200057D01*
X198461904Y-34200057D02*
X198509523Y-34295295D01*
X198509523Y-34295295D02*
X198509523Y-34390533D01*
X198509523Y-34390533D02*
X198461904Y-34533390D01*
X198461904Y-34533390D02*
X197890476Y-35104819D01*
X197890476Y-35104819D02*
X198509523Y-35104819D01*
X162795714Y-95989104D02*
X163271904Y-95989104D01*
X162700476Y-96274819D02*
X163033809Y-95274819D01*
X163033809Y-95274819D02*
X163367142Y-96274819D01*
X163652857Y-95370057D02*
X163700476Y-95322438D01*
X163700476Y-95322438D02*
X163795714Y-95274819D01*
X163795714Y-95274819D02*
X164033809Y-95274819D01*
X164033809Y-95274819D02*
X164129047Y-95322438D01*
X164129047Y-95322438D02*
X164176666Y-95370057D01*
X164176666Y-95370057D02*
X164224285Y-95465295D01*
X164224285Y-95465295D02*
X164224285Y-95560533D01*
X164224285Y-95560533D02*
X164176666Y-95703390D01*
X164176666Y-95703390D02*
X163605238Y-96274819D01*
X163605238Y-96274819D02*
X164224285Y-96274819D01*
X158319524Y-118699104D02*
X158795714Y-118699104D01*
X158224286Y-118984819D02*
X158557619Y-117984819D01*
X158557619Y-117984819D02*
X158890952Y-118984819D01*
X159652857Y-118318152D02*
X159652857Y-118984819D01*
X159414762Y-117937200D02*
X159176667Y-118651485D01*
X159176667Y-118651485D02*
X159795714Y-118651485D01*
X160224286Y-118984819D02*
X160414762Y-118984819D01*
X160414762Y-118984819D02*
X160510000Y-118937200D01*
X160510000Y-118937200D02*
X160557619Y-118889580D01*
X160557619Y-118889580D02*
X160652857Y-118746723D01*
X160652857Y-118746723D02*
X160700476Y-118556247D01*
X160700476Y-118556247D02*
X160700476Y-118175295D01*
X160700476Y-118175295D02*
X160652857Y-118080057D01*
X160652857Y-118080057D02*
X160605238Y-118032438D01*
X160605238Y-118032438D02*
X160510000Y-117984819D01*
X160510000Y-117984819D02*
X160319524Y-117984819D01*
X160319524Y-117984819D02*
X160224286Y-118032438D01*
X160224286Y-118032438D02*
X160176667Y-118080057D01*
X160176667Y-118080057D02*
X160129048Y-118175295D01*
X160129048Y-118175295D02*
X160129048Y-118413390D01*
X160129048Y-118413390D02*
X160176667Y-118508628D01*
X160176667Y-118508628D02*
X160224286Y-118556247D01*
X160224286Y-118556247D02*
X160319524Y-118603866D01*
X160319524Y-118603866D02*
X160510000Y-118603866D01*
X160510000Y-118603866D02*
X160605238Y-118556247D01*
X160605238Y-118556247D02*
X160652857Y-118508628D01*
X160652857Y-118508628D02*
X160700476Y-118413390D01*
X161271905Y-118413390D02*
X161176667Y-118365771D01*
X161176667Y-118365771D02*
X161129048Y-118318152D01*
X161129048Y-118318152D02*
X161081429Y-118222914D01*
X161081429Y-118222914D02*
X161081429Y-118175295D01*
X161081429Y-118175295D02*
X161129048Y-118080057D01*
X161129048Y-118080057D02*
X161176667Y-118032438D01*
X161176667Y-118032438D02*
X161271905Y-117984819D01*
X161271905Y-117984819D02*
X161462381Y-117984819D01*
X161462381Y-117984819D02*
X161557619Y-118032438D01*
X161557619Y-118032438D02*
X161605238Y-118080057D01*
X161605238Y-118080057D02*
X161652857Y-118175295D01*
X161652857Y-118175295D02*
X161652857Y-118222914D01*
X161652857Y-118222914D02*
X161605238Y-118318152D01*
X161605238Y-118318152D02*
X161557619Y-118365771D01*
X161557619Y-118365771D02*
X161462381Y-118413390D01*
X161462381Y-118413390D02*
X161271905Y-118413390D01*
X161271905Y-118413390D02*
X161176667Y-118461009D01*
X161176667Y-118461009D02*
X161129048Y-118508628D01*
X161129048Y-118508628D02*
X161081429Y-118603866D01*
X161081429Y-118603866D02*
X161081429Y-118794342D01*
X161081429Y-118794342D02*
X161129048Y-118889580D01*
X161129048Y-118889580D02*
X161176667Y-118937200D01*
X161176667Y-118937200D02*
X161271905Y-118984819D01*
X161271905Y-118984819D02*
X161462381Y-118984819D01*
X161462381Y-118984819D02*
X161557619Y-118937200D01*
X161557619Y-118937200D02*
X161605238Y-118889580D01*
X161605238Y-118889580D02*
X161652857Y-118794342D01*
X161652857Y-118794342D02*
X161652857Y-118603866D01*
X161652857Y-118603866D02*
X161605238Y-118508628D01*
X161605238Y-118508628D02*
X161557619Y-118461009D01*
X161557619Y-118461009D02*
X161462381Y-118413390D01*
X162224286Y-118413390D02*
X162129048Y-118365771D01*
X162129048Y-118365771D02*
X162081429Y-118318152D01*
X162081429Y-118318152D02*
X162033810Y-118222914D01*
X162033810Y-118222914D02*
X162033810Y-118175295D01*
X162033810Y-118175295D02*
X162081429Y-118080057D01*
X162081429Y-118080057D02*
X162129048Y-118032438D01*
X162129048Y-118032438D02*
X162224286Y-117984819D01*
X162224286Y-117984819D02*
X162414762Y-117984819D01*
X162414762Y-117984819D02*
X162510000Y-118032438D01*
X162510000Y-118032438D02*
X162557619Y-118080057D01*
X162557619Y-118080057D02*
X162605238Y-118175295D01*
X162605238Y-118175295D02*
X162605238Y-118222914D01*
X162605238Y-118222914D02*
X162557619Y-118318152D01*
X162557619Y-118318152D02*
X162510000Y-118365771D01*
X162510000Y-118365771D02*
X162414762Y-118413390D01*
X162414762Y-118413390D02*
X162224286Y-118413390D01*
X162224286Y-118413390D02*
X162129048Y-118461009D01*
X162129048Y-118461009D02*
X162081429Y-118508628D01*
X162081429Y-118508628D02*
X162033810Y-118603866D01*
X162033810Y-118603866D02*
X162033810Y-118794342D01*
X162033810Y-118794342D02*
X162081429Y-118889580D01*
X162081429Y-118889580D02*
X162129048Y-118937200D01*
X162129048Y-118937200D02*
X162224286Y-118984819D01*
X162224286Y-118984819D02*
X162414762Y-118984819D01*
X162414762Y-118984819D02*
X162510000Y-118937200D01*
X162510000Y-118937200D02*
X162557619Y-118889580D01*
X162557619Y-118889580D02*
X162605238Y-118794342D01*
X162605238Y-118794342D02*
X162605238Y-118603866D01*
X162605238Y-118603866D02*
X162557619Y-118508628D01*
X162557619Y-118508628D02*
X162510000Y-118461009D01*
X162510000Y-118461009D02*
X162414762Y-118413390D01*
X163986191Y-118508628D02*
X163986191Y-118984819D01*
X163652858Y-117984819D02*
X163986191Y-118508628D01*
X163986191Y-118508628D02*
X164319524Y-117984819D01*
X164652858Y-118603866D02*
X165414763Y-118603866D01*
X165843334Y-118699104D02*
X166319524Y-118699104D01*
X165748096Y-118984819D02*
X166081429Y-117984819D01*
X166081429Y-117984819D02*
X166414762Y-118984819D01*
X166652858Y-117984819D02*
X167319524Y-118984819D01*
X167319524Y-117984819D02*
X166652858Y-118984819D01*
X167700477Y-118984819D02*
X167700477Y-117984819D01*
X168129048Y-118937200D02*
X168271905Y-118984819D01*
X168271905Y-118984819D02*
X168510000Y-118984819D01*
X168510000Y-118984819D02*
X168605238Y-118937200D01*
X168605238Y-118937200D02*
X168652857Y-118889580D01*
X168652857Y-118889580D02*
X168700476Y-118794342D01*
X168700476Y-118794342D02*
X168700476Y-118699104D01*
X168700476Y-118699104D02*
X168652857Y-118603866D01*
X168652857Y-118603866D02*
X168605238Y-118556247D01*
X168605238Y-118556247D02*
X168510000Y-118508628D01*
X168510000Y-118508628D02*
X168319524Y-118461009D01*
X168319524Y-118461009D02*
X168224286Y-118413390D01*
X168224286Y-118413390D02*
X168176667Y-118365771D01*
X168176667Y-118365771D02*
X168129048Y-118270533D01*
X168129048Y-118270533D02*
X168129048Y-118175295D01*
X168129048Y-118175295D02*
X168176667Y-118080057D01*
X168176667Y-118080057D02*
X168224286Y-118032438D01*
X168224286Y-118032438D02*
X168319524Y-117984819D01*
X168319524Y-117984819D02*
X168557619Y-117984819D01*
X168557619Y-117984819D02*
X168700476Y-118032438D01*
X80838095Y-158704819D02*
X80838095Y-157704819D01*
X80838095Y-158181009D02*
X81409523Y-158181009D01*
X81409523Y-158704819D02*
X81409523Y-157704819D01*
X82409523Y-158704819D02*
X81838095Y-158704819D01*
X82123809Y-158704819D02*
X82123809Y-157704819D01*
X82123809Y-157704819D02*
X82028571Y-157847676D01*
X82028571Y-157847676D02*
X81933333Y-157942914D01*
X81933333Y-157942914D02*
X81838095Y-157990533D01*
X138438095Y-126804819D02*
X138438095Y-125804819D01*
X138438095Y-126281009D02*
X139009523Y-126281009D01*
X139009523Y-126804819D02*
X139009523Y-125804819D01*
X139961904Y-125804819D02*
X139485714Y-125804819D01*
X139485714Y-125804819D02*
X139438095Y-126281009D01*
X139438095Y-126281009D02*
X139485714Y-126233390D01*
X139485714Y-126233390D02*
X139580952Y-126185771D01*
X139580952Y-126185771D02*
X139819047Y-126185771D01*
X139819047Y-126185771D02*
X139914285Y-126233390D01*
X139914285Y-126233390D02*
X139961904Y-126281009D01*
X139961904Y-126281009D02*
X140009523Y-126376247D01*
X140009523Y-126376247D02*
X140009523Y-126614342D01*
X140009523Y-126614342D02*
X139961904Y-126709580D01*
X139961904Y-126709580D02*
X139914285Y-126757200D01*
X139914285Y-126757200D02*
X139819047Y-126804819D01*
X139819047Y-126804819D02*
X139580952Y-126804819D01*
X139580952Y-126804819D02*
X139485714Y-126757200D01*
X139485714Y-126757200D02*
X139438095Y-126709580D01*
X173432080Y-107626666D02*
X173479700Y-107674285D01*
X173479700Y-107674285D02*
X173527319Y-107817142D01*
X173527319Y-107817142D02*
X173527319Y-107912380D01*
X173527319Y-107912380D02*
X173479700Y-108055237D01*
X173479700Y-108055237D02*
X173384461Y-108150475D01*
X173384461Y-108150475D02*
X173289223Y-108198094D01*
X173289223Y-108198094D02*
X173098747Y-108245713D01*
X173098747Y-108245713D02*
X172955890Y-108245713D01*
X172955890Y-108245713D02*
X172765414Y-108198094D01*
X172765414Y-108198094D02*
X172670176Y-108150475D01*
X172670176Y-108150475D02*
X172574938Y-108055237D01*
X172574938Y-108055237D02*
X172527319Y-107912380D01*
X172527319Y-107912380D02*
X172527319Y-107817142D01*
X172527319Y-107817142D02*
X172574938Y-107674285D01*
X172574938Y-107674285D02*
X172622557Y-107626666D01*
X173527319Y-106674285D02*
X173527319Y-107245713D01*
X173527319Y-106959999D02*
X172527319Y-106959999D01*
X172527319Y-106959999D02*
X172670176Y-107055237D01*
X172670176Y-107055237D02*
X172765414Y-107150475D01*
X172765414Y-107150475D02*
X172813033Y-107245713D01*
X181767319Y-109007619D02*
X181767319Y-109579047D01*
X181767319Y-109293333D02*
X180767319Y-109293333D01*
X180767319Y-109293333D02*
X180910176Y-109388571D01*
X180910176Y-109388571D02*
X181005414Y-109483809D01*
X181005414Y-109483809D02*
X181053033Y-109579047D01*
X180767319Y-108388571D02*
X180767319Y-108293333D01*
X180767319Y-108293333D02*
X180814938Y-108198095D01*
X180814938Y-108198095D02*
X180862557Y-108150476D01*
X180862557Y-108150476D02*
X180957795Y-108102857D01*
X180957795Y-108102857D02*
X181148271Y-108055238D01*
X181148271Y-108055238D02*
X181386366Y-108055238D01*
X181386366Y-108055238D02*
X181576842Y-108102857D01*
X181576842Y-108102857D02*
X181672080Y-108150476D01*
X181672080Y-108150476D02*
X181719700Y-108198095D01*
X181719700Y-108198095D02*
X181767319Y-108293333D01*
X181767319Y-108293333D02*
X181767319Y-108388571D01*
X181767319Y-108388571D02*
X181719700Y-108483809D01*
X181719700Y-108483809D02*
X181672080Y-108531428D01*
X181672080Y-108531428D02*
X181576842Y-108579047D01*
X181576842Y-108579047D02*
X181386366Y-108626666D01*
X181386366Y-108626666D02*
X181148271Y-108626666D01*
X181148271Y-108626666D02*
X180957795Y-108579047D01*
X180957795Y-108579047D02*
X180862557Y-108531428D01*
X180862557Y-108531428D02*
X180814938Y-108483809D01*
X180814938Y-108483809D02*
X180767319Y-108388571D01*
X180767319Y-107436190D02*
X180767319Y-107340952D01*
X180767319Y-107340952D02*
X180814938Y-107245714D01*
X180814938Y-107245714D02*
X180862557Y-107198095D01*
X180862557Y-107198095D02*
X180957795Y-107150476D01*
X180957795Y-107150476D02*
X181148271Y-107102857D01*
X181148271Y-107102857D02*
X181386366Y-107102857D01*
X181386366Y-107102857D02*
X181576842Y-107150476D01*
X181576842Y-107150476D02*
X181672080Y-107198095D01*
X181672080Y-107198095D02*
X181719700Y-107245714D01*
X181719700Y-107245714D02*
X181767319Y-107340952D01*
X181767319Y-107340952D02*
X181767319Y-107436190D01*
X181767319Y-107436190D02*
X181719700Y-107531428D01*
X181719700Y-107531428D02*
X181672080Y-107579047D01*
X181672080Y-107579047D02*
X181576842Y-107626666D01*
X181576842Y-107626666D02*
X181386366Y-107674285D01*
X181386366Y-107674285D02*
X181148271Y-107674285D01*
X181148271Y-107674285D02*
X180957795Y-107626666D01*
X180957795Y-107626666D02*
X180862557Y-107579047D01*
X180862557Y-107579047D02*
X180814938Y-107531428D01*
X180814938Y-107531428D02*
X180767319Y-107436190D01*
X181100652Y-106245714D02*
X181767319Y-106245714D01*
X181100652Y-106674285D02*
X181624461Y-106674285D01*
X181624461Y-106674285D02*
X181719700Y-106626666D01*
X181719700Y-106626666D02*
X181767319Y-106531428D01*
X181767319Y-106531428D02*
X181767319Y-106388571D01*
X181767319Y-106388571D02*
X181719700Y-106293333D01*
X181719700Y-106293333D02*
X181672080Y-106245714D01*
X181243509Y-105436190D02*
X181243509Y-105769523D01*
X181767319Y-105769523D02*
X180767319Y-105769523D01*
X180767319Y-105769523D02*
X180767319Y-105293333D01*
X168444819Y-79521904D02*
X169254342Y-79521904D01*
X169254342Y-79521904D02*
X169349580Y-79474285D01*
X169349580Y-79474285D02*
X169397200Y-79426666D01*
X169397200Y-79426666D02*
X169444819Y-79331428D01*
X169444819Y-79331428D02*
X169444819Y-79140952D01*
X169444819Y-79140952D02*
X169397200Y-79045714D01*
X169397200Y-79045714D02*
X169349580Y-78998095D01*
X169349580Y-78998095D02*
X169254342Y-78950476D01*
X169254342Y-78950476D02*
X168444819Y-78950476D01*
X169444819Y-77950476D02*
X169444819Y-78521904D01*
X169444819Y-78236190D02*
X168444819Y-78236190D01*
X168444819Y-78236190D02*
X168587676Y-78331428D01*
X168587676Y-78331428D02*
X168682914Y-78426666D01*
X168682914Y-78426666D02*
X168730533Y-78521904D01*
X156144819Y-82498095D02*
X156144819Y-82974285D01*
X156144819Y-82974285D02*
X155144819Y-82974285D01*
X156144819Y-82164761D02*
X155144819Y-82164761D01*
X155144819Y-82164761D02*
X155859104Y-81831428D01*
X155859104Y-81831428D02*
X155144819Y-81498095D01*
X155144819Y-81498095D02*
X156144819Y-81498095D01*
X155240057Y-81069523D02*
X155192438Y-81021904D01*
X155192438Y-81021904D02*
X155144819Y-80926666D01*
X155144819Y-80926666D02*
X155144819Y-80688571D01*
X155144819Y-80688571D02*
X155192438Y-80593333D01*
X155192438Y-80593333D02*
X155240057Y-80545714D01*
X155240057Y-80545714D02*
X155335295Y-80498095D01*
X155335295Y-80498095D02*
X155430533Y-80498095D01*
X155430533Y-80498095D02*
X155573390Y-80545714D01*
X155573390Y-80545714D02*
X156144819Y-81117142D01*
X156144819Y-81117142D02*
X156144819Y-80498095D01*
X155144819Y-79593333D02*
X155144819Y-80069523D01*
X155144819Y-80069523D02*
X155621009Y-80117142D01*
X155621009Y-80117142D02*
X155573390Y-80069523D01*
X155573390Y-80069523D02*
X155525771Y-79974285D01*
X155525771Y-79974285D02*
X155525771Y-79736190D01*
X155525771Y-79736190D02*
X155573390Y-79640952D01*
X155573390Y-79640952D02*
X155621009Y-79593333D01*
X155621009Y-79593333D02*
X155716247Y-79545714D01*
X155716247Y-79545714D02*
X155954342Y-79545714D01*
X155954342Y-79545714D02*
X156049580Y-79593333D01*
X156049580Y-79593333D02*
X156097200Y-79640952D01*
X156097200Y-79640952D02*
X156144819Y-79736190D01*
X156144819Y-79736190D02*
X156144819Y-79974285D01*
X156144819Y-79974285D02*
X156097200Y-80069523D01*
X156097200Y-80069523D02*
X156049580Y-80117142D01*
X156144819Y-79069523D02*
X156144819Y-78879047D01*
X156144819Y-78879047D02*
X156097200Y-78783809D01*
X156097200Y-78783809D02*
X156049580Y-78736190D01*
X156049580Y-78736190D02*
X155906723Y-78640952D01*
X155906723Y-78640952D02*
X155716247Y-78593333D01*
X155716247Y-78593333D02*
X155335295Y-78593333D01*
X155335295Y-78593333D02*
X155240057Y-78640952D01*
X155240057Y-78640952D02*
X155192438Y-78688571D01*
X155192438Y-78688571D02*
X155144819Y-78783809D01*
X155144819Y-78783809D02*
X155144819Y-78974285D01*
X155144819Y-78974285D02*
X155192438Y-79069523D01*
X155192438Y-79069523D02*
X155240057Y-79117142D01*
X155240057Y-79117142D02*
X155335295Y-79164761D01*
X155335295Y-79164761D02*
X155573390Y-79164761D01*
X155573390Y-79164761D02*
X155668628Y-79117142D01*
X155668628Y-79117142D02*
X155716247Y-79069523D01*
X155716247Y-79069523D02*
X155763866Y-78974285D01*
X155763866Y-78974285D02*
X155763866Y-78783809D01*
X155763866Y-78783809D02*
X155716247Y-78688571D01*
X155716247Y-78688571D02*
X155668628Y-78640952D01*
X155668628Y-78640952D02*
X155573390Y-78593333D01*
X155144819Y-77736190D02*
X155144819Y-77926666D01*
X155144819Y-77926666D02*
X155192438Y-78021904D01*
X155192438Y-78021904D02*
X155240057Y-78069523D01*
X155240057Y-78069523D02*
X155382914Y-78164761D01*
X155382914Y-78164761D02*
X155573390Y-78212380D01*
X155573390Y-78212380D02*
X155954342Y-78212380D01*
X155954342Y-78212380D02*
X156049580Y-78164761D01*
X156049580Y-78164761D02*
X156097200Y-78117142D01*
X156097200Y-78117142D02*
X156144819Y-78021904D01*
X156144819Y-78021904D02*
X156144819Y-77831428D01*
X156144819Y-77831428D02*
X156097200Y-77736190D01*
X156097200Y-77736190D02*
X156049580Y-77688571D01*
X156049580Y-77688571D02*
X155954342Y-77640952D01*
X155954342Y-77640952D02*
X155716247Y-77640952D01*
X155716247Y-77640952D02*
X155621009Y-77688571D01*
X155621009Y-77688571D02*
X155573390Y-77736190D01*
X155573390Y-77736190D02*
X155525771Y-77831428D01*
X155525771Y-77831428D02*
X155525771Y-78021904D01*
X155525771Y-78021904D02*
X155573390Y-78117142D01*
X155573390Y-78117142D02*
X155621009Y-78164761D01*
X155621009Y-78164761D02*
X155716247Y-78212380D01*
X156097200Y-77259999D02*
X156144819Y-77117142D01*
X156144819Y-77117142D02*
X156144819Y-76879047D01*
X156144819Y-76879047D02*
X156097200Y-76783809D01*
X156097200Y-76783809D02*
X156049580Y-76736190D01*
X156049580Y-76736190D02*
X155954342Y-76688571D01*
X155954342Y-76688571D02*
X155859104Y-76688571D01*
X155859104Y-76688571D02*
X155763866Y-76736190D01*
X155763866Y-76736190D02*
X155716247Y-76783809D01*
X155716247Y-76783809D02*
X155668628Y-76879047D01*
X155668628Y-76879047D02*
X155621009Y-77069523D01*
X155621009Y-77069523D02*
X155573390Y-77164761D01*
X155573390Y-77164761D02*
X155525771Y-77212380D01*
X155525771Y-77212380D02*
X155430533Y-77259999D01*
X155430533Y-77259999D02*
X155335295Y-77259999D01*
X155335295Y-77259999D02*
X155240057Y-77212380D01*
X155240057Y-77212380D02*
X155192438Y-77164761D01*
X155192438Y-77164761D02*
X155144819Y-77069523D01*
X155144819Y-77069523D02*
X155144819Y-76831428D01*
X155144819Y-76831428D02*
X155192438Y-76688571D01*
X155763866Y-76259999D02*
X155763866Y-75498095D01*
X155144819Y-74545714D02*
X155144819Y-75021904D01*
X155144819Y-75021904D02*
X155621009Y-75069523D01*
X155621009Y-75069523D02*
X155573390Y-75021904D01*
X155573390Y-75021904D02*
X155525771Y-74926666D01*
X155525771Y-74926666D02*
X155525771Y-74688571D01*
X155525771Y-74688571D02*
X155573390Y-74593333D01*
X155573390Y-74593333D02*
X155621009Y-74545714D01*
X155621009Y-74545714D02*
X155716247Y-74498095D01*
X155716247Y-74498095D02*
X155954342Y-74498095D01*
X155954342Y-74498095D02*
X156049580Y-74545714D01*
X156049580Y-74545714D02*
X156097200Y-74593333D01*
X156097200Y-74593333D02*
X156144819Y-74688571D01*
X156144819Y-74688571D02*
X156144819Y-74926666D01*
X156144819Y-74926666D02*
X156097200Y-75021904D01*
X156097200Y-75021904D02*
X156049580Y-75069523D01*
X190935714Y-95929104D02*
X191411904Y-95929104D01*
X190840476Y-96214819D02*
X191173809Y-95214819D01*
X191173809Y-95214819D02*
X191507142Y-96214819D01*
X192364285Y-96214819D02*
X191792857Y-96214819D01*
X192078571Y-96214819D02*
X192078571Y-95214819D01*
X192078571Y-95214819D02*
X191983333Y-95357676D01*
X191983333Y-95357676D02*
X191888095Y-95452914D01*
X191888095Y-95452914D02*
X191792857Y-95500533D01*
X186411905Y-118639104D02*
X186888095Y-118639104D01*
X186316667Y-118924819D02*
X186650000Y-117924819D01*
X186650000Y-117924819D02*
X186983333Y-118924819D01*
X187745238Y-118258152D02*
X187745238Y-118924819D01*
X187507143Y-117877200D02*
X187269048Y-118591485D01*
X187269048Y-118591485D02*
X187888095Y-118591485D01*
X188316667Y-118924819D02*
X188507143Y-118924819D01*
X188507143Y-118924819D02*
X188602381Y-118877200D01*
X188602381Y-118877200D02*
X188650000Y-118829580D01*
X188650000Y-118829580D02*
X188745238Y-118686723D01*
X188745238Y-118686723D02*
X188792857Y-118496247D01*
X188792857Y-118496247D02*
X188792857Y-118115295D01*
X188792857Y-118115295D02*
X188745238Y-118020057D01*
X188745238Y-118020057D02*
X188697619Y-117972438D01*
X188697619Y-117972438D02*
X188602381Y-117924819D01*
X188602381Y-117924819D02*
X188411905Y-117924819D01*
X188411905Y-117924819D02*
X188316667Y-117972438D01*
X188316667Y-117972438D02*
X188269048Y-118020057D01*
X188269048Y-118020057D02*
X188221429Y-118115295D01*
X188221429Y-118115295D02*
X188221429Y-118353390D01*
X188221429Y-118353390D02*
X188269048Y-118448628D01*
X188269048Y-118448628D02*
X188316667Y-118496247D01*
X188316667Y-118496247D02*
X188411905Y-118543866D01*
X188411905Y-118543866D02*
X188602381Y-118543866D01*
X188602381Y-118543866D02*
X188697619Y-118496247D01*
X188697619Y-118496247D02*
X188745238Y-118448628D01*
X188745238Y-118448628D02*
X188792857Y-118353390D01*
X189364286Y-118353390D02*
X189269048Y-118305771D01*
X189269048Y-118305771D02*
X189221429Y-118258152D01*
X189221429Y-118258152D02*
X189173810Y-118162914D01*
X189173810Y-118162914D02*
X189173810Y-118115295D01*
X189173810Y-118115295D02*
X189221429Y-118020057D01*
X189221429Y-118020057D02*
X189269048Y-117972438D01*
X189269048Y-117972438D02*
X189364286Y-117924819D01*
X189364286Y-117924819D02*
X189554762Y-117924819D01*
X189554762Y-117924819D02*
X189650000Y-117972438D01*
X189650000Y-117972438D02*
X189697619Y-118020057D01*
X189697619Y-118020057D02*
X189745238Y-118115295D01*
X189745238Y-118115295D02*
X189745238Y-118162914D01*
X189745238Y-118162914D02*
X189697619Y-118258152D01*
X189697619Y-118258152D02*
X189650000Y-118305771D01*
X189650000Y-118305771D02*
X189554762Y-118353390D01*
X189554762Y-118353390D02*
X189364286Y-118353390D01*
X189364286Y-118353390D02*
X189269048Y-118401009D01*
X189269048Y-118401009D02*
X189221429Y-118448628D01*
X189221429Y-118448628D02*
X189173810Y-118543866D01*
X189173810Y-118543866D02*
X189173810Y-118734342D01*
X189173810Y-118734342D02*
X189221429Y-118829580D01*
X189221429Y-118829580D02*
X189269048Y-118877200D01*
X189269048Y-118877200D02*
X189364286Y-118924819D01*
X189364286Y-118924819D02*
X189554762Y-118924819D01*
X189554762Y-118924819D02*
X189650000Y-118877200D01*
X189650000Y-118877200D02*
X189697619Y-118829580D01*
X189697619Y-118829580D02*
X189745238Y-118734342D01*
X189745238Y-118734342D02*
X189745238Y-118543866D01*
X189745238Y-118543866D02*
X189697619Y-118448628D01*
X189697619Y-118448628D02*
X189650000Y-118401009D01*
X189650000Y-118401009D02*
X189554762Y-118353390D01*
X190316667Y-118353390D02*
X190221429Y-118305771D01*
X190221429Y-118305771D02*
X190173810Y-118258152D01*
X190173810Y-118258152D02*
X190126191Y-118162914D01*
X190126191Y-118162914D02*
X190126191Y-118115295D01*
X190126191Y-118115295D02*
X190173810Y-118020057D01*
X190173810Y-118020057D02*
X190221429Y-117972438D01*
X190221429Y-117972438D02*
X190316667Y-117924819D01*
X190316667Y-117924819D02*
X190507143Y-117924819D01*
X190507143Y-117924819D02*
X190602381Y-117972438D01*
X190602381Y-117972438D02*
X190650000Y-118020057D01*
X190650000Y-118020057D02*
X190697619Y-118115295D01*
X190697619Y-118115295D02*
X190697619Y-118162914D01*
X190697619Y-118162914D02*
X190650000Y-118258152D01*
X190650000Y-118258152D02*
X190602381Y-118305771D01*
X190602381Y-118305771D02*
X190507143Y-118353390D01*
X190507143Y-118353390D02*
X190316667Y-118353390D01*
X190316667Y-118353390D02*
X190221429Y-118401009D01*
X190221429Y-118401009D02*
X190173810Y-118448628D01*
X190173810Y-118448628D02*
X190126191Y-118543866D01*
X190126191Y-118543866D02*
X190126191Y-118734342D01*
X190126191Y-118734342D02*
X190173810Y-118829580D01*
X190173810Y-118829580D02*
X190221429Y-118877200D01*
X190221429Y-118877200D02*
X190316667Y-118924819D01*
X190316667Y-118924819D02*
X190507143Y-118924819D01*
X190507143Y-118924819D02*
X190602381Y-118877200D01*
X190602381Y-118877200D02*
X190650000Y-118829580D01*
X190650000Y-118829580D02*
X190697619Y-118734342D01*
X190697619Y-118734342D02*
X190697619Y-118543866D01*
X190697619Y-118543866D02*
X190650000Y-118448628D01*
X190650000Y-118448628D02*
X190602381Y-118401009D01*
X190602381Y-118401009D02*
X190507143Y-118353390D01*
X191792858Y-117924819D02*
X192459524Y-118924819D01*
X192459524Y-117924819D02*
X191792858Y-118924819D01*
X192840477Y-118543866D02*
X193602382Y-118543866D01*
X194030953Y-118639104D02*
X194507143Y-118639104D01*
X193935715Y-118924819D02*
X194269048Y-117924819D01*
X194269048Y-117924819D02*
X194602381Y-118924819D01*
X194840477Y-117924819D02*
X195507143Y-118924819D01*
X195507143Y-117924819D02*
X194840477Y-118924819D01*
X195888096Y-118924819D02*
X195888096Y-117924819D01*
X196316667Y-118877200D02*
X196459524Y-118924819D01*
X196459524Y-118924819D02*
X196697619Y-118924819D01*
X196697619Y-118924819D02*
X196792857Y-118877200D01*
X196792857Y-118877200D02*
X196840476Y-118829580D01*
X196840476Y-118829580D02*
X196888095Y-118734342D01*
X196888095Y-118734342D02*
X196888095Y-118639104D01*
X196888095Y-118639104D02*
X196840476Y-118543866D01*
X196840476Y-118543866D02*
X196792857Y-118496247D01*
X196792857Y-118496247D02*
X196697619Y-118448628D01*
X196697619Y-118448628D02*
X196507143Y-118401009D01*
X196507143Y-118401009D02*
X196411905Y-118353390D01*
X196411905Y-118353390D02*
X196364286Y-118305771D01*
X196364286Y-118305771D02*
X196316667Y-118210533D01*
X196316667Y-118210533D02*
X196316667Y-118115295D01*
X196316667Y-118115295D02*
X196364286Y-118020057D01*
X196364286Y-118020057D02*
X196411905Y-117972438D01*
X196411905Y-117972438D02*
X196507143Y-117924819D01*
X196507143Y-117924819D02*
X196745238Y-117924819D01*
X196745238Y-117924819D02*
X196888095Y-117972438D01*
X76738095Y-34604819D02*
X76738095Y-33604819D01*
X76738095Y-34081009D02*
X77309523Y-34081009D01*
X77309523Y-34604819D02*
X77309523Y-33604819D01*
X77690476Y-33604819D02*
X78309523Y-33604819D01*
X78309523Y-33604819D02*
X77976190Y-33985771D01*
X77976190Y-33985771D02*
X78119047Y-33985771D01*
X78119047Y-33985771D02*
X78214285Y-34033390D01*
X78214285Y-34033390D02*
X78261904Y-34081009D01*
X78261904Y-34081009D02*
X78309523Y-34176247D01*
X78309523Y-34176247D02*
X78309523Y-34414342D01*
X78309523Y-34414342D02*
X78261904Y-34509580D01*
X78261904Y-34509580D02*
X78214285Y-34557200D01*
X78214285Y-34557200D02*
X78119047Y-34604819D01*
X78119047Y-34604819D02*
X77833333Y-34604819D01*
X77833333Y-34604819D02*
X77738095Y-34557200D01*
X77738095Y-34557200D02*
X77690476Y-34509580D01*
X145132080Y-107666666D02*
X145179700Y-107714285D01*
X145179700Y-107714285D02*
X145227319Y-107857142D01*
X145227319Y-107857142D02*
X145227319Y-107952380D01*
X145227319Y-107952380D02*
X145179700Y-108095237D01*
X145179700Y-108095237D02*
X145084461Y-108190475D01*
X145084461Y-108190475D02*
X144989223Y-108238094D01*
X144989223Y-108238094D02*
X144798747Y-108285713D01*
X144798747Y-108285713D02*
X144655890Y-108285713D01*
X144655890Y-108285713D02*
X144465414Y-108238094D01*
X144465414Y-108238094D02*
X144370176Y-108190475D01*
X144370176Y-108190475D02*
X144274938Y-108095237D01*
X144274938Y-108095237D02*
X144227319Y-107952380D01*
X144227319Y-107952380D02*
X144227319Y-107857142D01*
X144227319Y-107857142D02*
X144274938Y-107714285D01*
X144274938Y-107714285D02*
X144322557Y-107666666D01*
X144322557Y-107285713D02*
X144274938Y-107238094D01*
X144274938Y-107238094D02*
X144227319Y-107142856D01*
X144227319Y-107142856D02*
X144227319Y-106904761D01*
X144227319Y-106904761D02*
X144274938Y-106809523D01*
X144274938Y-106809523D02*
X144322557Y-106761904D01*
X144322557Y-106761904D02*
X144417795Y-106714285D01*
X144417795Y-106714285D02*
X144513033Y-106714285D01*
X144513033Y-106714285D02*
X144655890Y-106761904D01*
X144655890Y-106761904D02*
X145227319Y-107333332D01*
X145227319Y-107333332D02*
X145227319Y-106714285D01*
X153467319Y-109047619D02*
X153467319Y-109619047D01*
X153467319Y-109333333D02*
X152467319Y-109333333D01*
X152467319Y-109333333D02*
X152610176Y-109428571D01*
X152610176Y-109428571D02*
X152705414Y-109523809D01*
X152705414Y-109523809D02*
X152753033Y-109619047D01*
X152467319Y-108428571D02*
X152467319Y-108333333D01*
X152467319Y-108333333D02*
X152514938Y-108238095D01*
X152514938Y-108238095D02*
X152562557Y-108190476D01*
X152562557Y-108190476D02*
X152657795Y-108142857D01*
X152657795Y-108142857D02*
X152848271Y-108095238D01*
X152848271Y-108095238D02*
X153086366Y-108095238D01*
X153086366Y-108095238D02*
X153276842Y-108142857D01*
X153276842Y-108142857D02*
X153372080Y-108190476D01*
X153372080Y-108190476D02*
X153419700Y-108238095D01*
X153419700Y-108238095D02*
X153467319Y-108333333D01*
X153467319Y-108333333D02*
X153467319Y-108428571D01*
X153467319Y-108428571D02*
X153419700Y-108523809D01*
X153419700Y-108523809D02*
X153372080Y-108571428D01*
X153372080Y-108571428D02*
X153276842Y-108619047D01*
X153276842Y-108619047D02*
X153086366Y-108666666D01*
X153086366Y-108666666D02*
X152848271Y-108666666D01*
X152848271Y-108666666D02*
X152657795Y-108619047D01*
X152657795Y-108619047D02*
X152562557Y-108571428D01*
X152562557Y-108571428D02*
X152514938Y-108523809D01*
X152514938Y-108523809D02*
X152467319Y-108428571D01*
X152467319Y-107476190D02*
X152467319Y-107380952D01*
X152467319Y-107380952D02*
X152514938Y-107285714D01*
X152514938Y-107285714D02*
X152562557Y-107238095D01*
X152562557Y-107238095D02*
X152657795Y-107190476D01*
X152657795Y-107190476D02*
X152848271Y-107142857D01*
X152848271Y-107142857D02*
X153086366Y-107142857D01*
X153086366Y-107142857D02*
X153276842Y-107190476D01*
X153276842Y-107190476D02*
X153372080Y-107238095D01*
X153372080Y-107238095D02*
X153419700Y-107285714D01*
X153419700Y-107285714D02*
X153467319Y-107380952D01*
X153467319Y-107380952D02*
X153467319Y-107476190D01*
X153467319Y-107476190D02*
X153419700Y-107571428D01*
X153419700Y-107571428D02*
X153372080Y-107619047D01*
X153372080Y-107619047D02*
X153276842Y-107666666D01*
X153276842Y-107666666D02*
X153086366Y-107714285D01*
X153086366Y-107714285D02*
X152848271Y-107714285D01*
X152848271Y-107714285D02*
X152657795Y-107666666D01*
X152657795Y-107666666D02*
X152562557Y-107619047D01*
X152562557Y-107619047D02*
X152514938Y-107571428D01*
X152514938Y-107571428D02*
X152467319Y-107476190D01*
X152800652Y-106285714D02*
X153467319Y-106285714D01*
X152800652Y-106714285D02*
X153324461Y-106714285D01*
X153324461Y-106714285D02*
X153419700Y-106666666D01*
X153419700Y-106666666D02*
X153467319Y-106571428D01*
X153467319Y-106571428D02*
X153467319Y-106428571D01*
X153467319Y-106428571D02*
X153419700Y-106333333D01*
X153419700Y-106333333D02*
X153372080Y-106285714D01*
X152943509Y-105476190D02*
X152943509Y-105809523D01*
X153467319Y-105809523D02*
X152467319Y-105809523D01*
X152467319Y-105809523D02*
X152467319Y-105333333D01*
X183326666Y-133244819D02*
X183326666Y-133959104D01*
X183326666Y-133959104D02*
X183279047Y-134101961D01*
X183279047Y-134101961D02*
X183183809Y-134197200D01*
X183183809Y-134197200D02*
X183040952Y-134244819D01*
X183040952Y-134244819D02*
X182945714Y-134244819D01*
X183707619Y-133244819D02*
X184326666Y-133244819D01*
X184326666Y-133244819D02*
X183993333Y-133625771D01*
X183993333Y-133625771D02*
X184136190Y-133625771D01*
X184136190Y-133625771D02*
X184231428Y-133673390D01*
X184231428Y-133673390D02*
X184279047Y-133721009D01*
X184279047Y-133721009D02*
X184326666Y-133816247D01*
X184326666Y-133816247D02*
X184326666Y-134054342D01*
X184326666Y-134054342D02*
X184279047Y-134149580D01*
X184279047Y-134149580D02*
X184231428Y-134197200D01*
X184231428Y-134197200D02*
X184136190Y-134244819D01*
X184136190Y-134244819D02*
X183850476Y-134244819D01*
X183850476Y-134244819D02*
X183755238Y-134197200D01*
X183755238Y-134197200D02*
X183707619Y-134149580D01*
X165166666Y-133224819D02*
X165166666Y-133939104D01*
X165166666Y-133939104D02*
X165119047Y-134081961D01*
X165119047Y-134081961D02*
X165023809Y-134177200D01*
X165023809Y-134177200D02*
X164880952Y-134224819D01*
X164880952Y-134224819D02*
X164785714Y-134224819D01*
X166071428Y-133558152D02*
X166071428Y-134224819D01*
X165833333Y-133177200D02*
X165595238Y-133891485D01*
X165595238Y-133891485D02*
X166214285Y-133891485D01*
X170674819Y-64098094D02*
X169674819Y-64098094D01*
X169674819Y-64098094D02*
X169674819Y-63859999D01*
X169674819Y-63859999D02*
X169722438Y-63717142D01*
X169722438Y-63717142D02*
X169817676Y-63621904D01*
X169817676Y-63621904D02*
X169912914Y-63574285D01*
X169912914Y-63574285D02*
X170103390Y-63526666D01*
X170103390Y-63526666D02*
X170246247Y-63526666D01*
X170246247Y-63526666D02*
X170436723Y-63574285D01*
X170436723Y-63574285D02*
X170531961Y-63621904D01*
X170531961Y-63621904D02*
X170627200Y-63717142D01*
X170627200Y-63717142D02*
X170674819Y-63859999D01*
X170674819Y-63859999D02*
X170674819Y-64098094D01*
X170674819Y-62574285D02*
X170674819Y-63145713D01*
X170674819Y-62859999D02*
X169674819Y-62859999D01*
X169674819Y-62859999D02*
X169817676Y-62955237D01*
X169817676Y-62955237D02*
X169912914Y-63050475D01*
X169912914Y-63050475D02*
X169960533Y-63145713D01*
X178114819Y-65502857D02*
X178114819Y-66074285D01*
X178114819Y-65788571D02*
X177114819Y-65788571D01*
X177114819Y-65788571D02*
X177257676Y-65883809D01*
X177257676Y-65883809D02*
X177352914Y-65979047D01*
X177352914Y-65979047D02*
X177400533Y-66074285D01*
X178114819Y-65074285D02*
X177114819Y-65074285D01*
X177114819Y-65074285D02*
X178114819Y-64502857D01*
X178114819Y-64502857D02*
X177114819Y-64502857D01*
X177114819Y-63550476D02*
X177114819Y-64026666D01*
X177114819Y-64026666D02*
X177591009Y-64074285D01*
X177591009Y-64074285D02*
X177543390Y-64026666D01*
X177543390Y-64026666D02*
X177495771Y-63931428D01*
X177495771Y-63931428D02*
X177495771Y-63693333D01*
X177495771Y-63693333D02*
X177543390Y-63598095D01*
X177543390Y-63598095D02*
X177591009Y-63550476D01*
X177591009Y-63550476D02*
X177686247Y-63502857D01*
X177686247Y-63502857D02*
X177924342Y-63502857D01*
X177924342Y-63502857D02*
X178019580Y-63550476D01*
X178019580Y-63550476D02*
X178067200Y-63598095D01*
X178067200Y-63598095D02*
X178114819Y-63693333D01*
X178114819Y-63693333D02*
X178114819Y-63931428D01*
X178114819Y-63931428D02*
X178067200Y-64026666D01*
X178067200Y-64026666D02*
X178019580Y-64074285D01*
X177543390Y-62931428D02*
X177495771Y-63026666D01*
X177495771Y-63026666D02*
X177448152Y-63074285D01*
X177448152Y-63074285D02*
X177352914Y-63121904D01*
X177352914Y-63121904D02*
X177305295Y-63121904D01*
X177305295Y-63121904D02*
X177210057Y-63074285D01*
X177210057Y-63074285D02*
X177162438Y-63026666D01*
X177162438Y-63026666D02*
X177114819Y-62931428D01*
X177114819Y-62931428D02*
X177114819Y-62740952D01*
X177114819Y-62740952D02*
X177162438Y-62645714D01*
X177162438Y-62645714D02*
X177210057Y-62598095D01*
X177210057Y-62598095D02*
X177305295Y-62550476D01*
X177305295Y-62550476D02*
X177352914Y-62550476D01*
X177352914Y-62550476D02*
X177448152Y-62598095D01*
X177448152Y-62598095D02*
X177495771Y-62645714D01*
X177495771Y-62645714D02*
X177543390Y-62740952D01*
X177543390Y-62740952D02*
X177543390Y-62931428D01*
X177543390Y-62931428D02*
X177591009Y-63026666D01*
X177591009Y-63026666D02*
X177638628Y-63074285D01*
X177638628Y-63074285D02*
X177733866Y-63121904D01*
X177733866Y-63121904D02*
X177924342Y-63121904D01*
X177924342Y-63121904D02*
X178019580Y-63074285D01*
X178019580Y-63074285D02*
X178067200Y-63026666D01*
X178067200Y-63026666D02*
X178114819Y-62931428D01*
X178114819Y-62931428D02*
X178114819Y-62740952D01*
X178114819Y-62740952D02*
X178067200Y-62645714D01*
X178067200Y-62645714D02*
X178019580Y-62598095D01*
X178019580Y-62598095D02*
X177924342Y-62550476D01*
X177924342Y-62550476D02*
X177733866Y-62550476D01*
X177733866Y-62550476D02*
X177638628Y-62598095D01*
X177638628Y-62598095D02*
X177591009Y-62645714D01*
X177591009Y-62645714D02*
X177543390Y-62740952D01*
X177210057Y-62169523D02*
X177162438Y-62121904D01*
X177162438Y-62121904D02*
X177114819Y-62026666D01*
X177114819Y-62026666D02*
X177114819Y-61788571D01*
X177114819Y-61788571D02*
X177162438Y-61693333D01*
X177162438Y-61693333D02*
X177210057Y-61645714D01*
X177210057Y-61645714D02*
X177305295Y-61598095D01*
X177305295Y-61598095D02*
X177400533Y-61598095D01*
X177400533Y-61598095D02*
X177543390Y-61645714D01*
X177543390Y-61645714D02*
X178114819Y-62217142D01*
X178114819Y-62217142D02*
X178114819Y-61598095D01*
X177448152Y-60740952D02*
X178114819Y-60740952D01*
X177067200Y-60979047D02*
X177781485Y-61217142D01*
X177781485Y-61217142D02*
X177781485Y-60598095D01*
X171794819Y-71241904D02*
X170794819Y-71241904D01*
X171794819Y-70670476D02*
X171223390Y-71099047D01*
X170794819Y-70670476D02*
X171366247Y-71241904D01*
X78106666Y-58104819D02*
X78106666Y-58819104D01*
X78106666Y-58819104D02*
X78059047Y-58961961D01*
X78059047Y-58961961D02*
X77963809Y-59057200D01*
X77963809Y-59057200D02*
X77820952Y-59104819D01*
X77820952Y-59104819D02*
X77725714Y-59104819D01*
X78725714Y-58533390D02*
X78630476Y-58485771D01*
X78630476Y-58485771D02*
X78582857Y-58438152D01*
X78582857Y-58438152D02*
X78535238Y-58342914D01*
X78535238Y-58342914D02*
X78535238Y-58295295D01*
X78535238Y-58295295D02*
X78582857Y-58200057D01*
X78582857Y-58200057D02*
X78630476Y-58152438D01*
X78630476Y-58152438D02*
X78725714Y-58104819D01*
X78725714Y-58104819D02*
X78916190Y-58104819D01*
X78916190Y-58104819D02*
X79011428Y-58152438D01*
X79011428Y-58152438D02*
X79059047Y-58200057D01*
X79059047Y-58200057D02*
X79106666Y-58295295D01*
X79106666Y-58295295D02*
X79106666Y-58342914D01*
X79106666Y-58342914D02*
X79059047Y-58438152D01*
X79059047Y-58438152D02*
X79011428Y-58485771D01*
X79011428Y-58485771D02*
X78916190Y-58533390D01*
X78916190Y-58533390D02*
X78725714Y-58533390D01*
X78725714Y-58533390D02*
X78630476Y-58581009D01*
X78630476Y-58581009D02*
X78582857Y-58628628D01*
X78582857Y-58628628D02*
X78535238Y-58723866D01*
X78535238Y-58723866D02*
X78535238Y-58914342D01*
X78535238Y-58914342D02*
X78582857Y-59009580D01*
X78582857Y-59009580D02*
X78630476Y-59057200D01*
X78630476Y-59057200D02*
X78725714Y-59104819D01*
X78725714Y-59104819D02*
X78916190Y-59104819D01*
X78916190Y-59104819D02*
X79011428Y-59057200D01*
X79011428Y-59057200D02*
X79059047Y-59009580D01*
X79059047Y-59009580D02*
X79106666Y-58914342D01*
X79106666Y-58914342D02*
X79106666Y-58723866D01*
X79106666Y-58723866D02*
X79059047Y-58628628D01*
X79059047Y-58628628D02*
X79011428Y-58581009D01*
X79011428Y-58581009D02*
X78916190Y-58533390D01*
X186994762Y-59680057D02*
X187042381Y-59632438D01*
X187042381Y-59632438D02*
X187137619Y-59584819D01*
X187137619Y-59584819D02*
X187375714Y-59584819D01*
X187375714Y-59584819D02*
X187470952Y-59632438D01*
X187470952Y-59632438D02*
X187518571Y-59680057D01*
X187518571Y-59680057D02*
X187566190Y-59775295D01*
X187566190Y-59775295D02*
X187566190Y-59870533D01*
X187566190Y-59870533D02*
X187518571Y-60013390D01*
X187518571Y-60013390D02*
X186947143Y-60584819D01*
X186947143Y-60584819D02*
X187566190Y-60584819D01*
X187947143Y-59680057D02*
X187994762Y-59632438D01*
X187994762Y-59632438D02*
X188090000Y-59584819D01*
X188090000Y-59584819D02*
X188328095Y-59584819D01*
X188328095Y-59584819D02*
X188423333Y-59632438D01*
X188423333Y-59632438D02*
X188470952Y-59680057D01*
X188470952Y-59680057D02*
X188518571Y-59775295D01*
X188518571Y-59775295D02*
X188518571Y-59870533D01*
X188518571Y-59870533D02*
X188470952Y-60013390D01*
X188470952Y-60013390D02*
X187899524Y-60584819D01*
X187899524Y-60584819D02*
X188518571Y-60584819D01*
X189137619Y-59584819D02*
X189232857Y-59584819D01*
X189232857Y-59584819D02*
X189328095Y-59632438D01*
X189328095Y-59632438D02*
X189375714Y-59680057D01*
X189375714Y-59680057D02*
X189423333Y-59775295D01*
X189423333Y-59775295D02*
X189470952Y-59965771D01*
X189470952Y-59965771D02*
X189470952Y-60203866D01*
X189470952Y-60203866D02*
X189423333Y-60394342D01*
X189423333Y-60394342D02*
X189375714Y-60489580D01*
X189375714Y-60489580D02*
X189328095Y-60537200D01*
X189328095Y-60537200D02*
X189232857Y-60584819D01*
X189232857Y-60584819D02*
X189137619Y-60584819D01*
X189137619Y-60584819D02*
X189042381Y-60537200D01*
X189042381Y-60537200D02*
X188994762Y-60489580D01*
X188994762Y-60489580D02*
X188947143Y-60394342D01*
X188947143Y-60394342D02*
X188899524Y-60203866D01*
X188899524Y-60203866D02*
X188899524Y-59965771D01*
X188899524Y-59965771D02*
X188947143Y-59775295D01*
X188947143Y-59775295D02*
X188994762Y-59680057D01*
X188994762Y-59680057D02*
X189042381Y-59632438D01*
X189042381Y-59632438D02*
X189137619Y-59584819D01*
X190328095Y-59918152D02*
X190328095Y-60584819D01*
X189899524Y-59918152D02*
X189899524Y-60441961D01*
X189899524Y-60441961D02*
X189947143Y-60537200D01*
X189947143Y-60537200D02*
X190042381Y-60584819D01*
X190042381Y-60584819D02*
X190185238Y-60584819D01*
X190185238Y-60584819D02*
X190280476Y-60537200D01*
X190280476Y-60537200D02*
X190328095Y-60489580D01*
X191137619Y-60061009D02*
X190804286Y-60061009D01*
X190804286Y-60584819D02*
X190804286Y-59584819D01*
X190804286Y-59584819D02*
X191280476Y-59584819D01*
X192185238Y-60584819D02*
X191613810Y-60584819D01*
X191899524Y-60584819D02*
X191899524Y-59584819D01*
X191899524Y-59584819D02*
X191804286Y-59727676D01*
X191804286Y-59727676D02*
X191709048Y-59822914D01*
X191709048Y-59822914D02*
X191613810Y-59870533D01*
X125764819Y-44561904D02*
X126574342Y-44561904D01*
X126574342Y-44561904D02*
X126669580Y-44514285D01*
X126669580Y-44514285D02*
X126717200Y-44466666D01*
X126717200Y-44466666D02*
X126764819Y-44371428D01*
X126764819Y-44371428D02*
X126764819Y-44180952D01*
X126764819Y-44180952D02*
X126717200Y-44085714D01*
X126717200Y-44085714D02*
X126669580Y-44038095D01*
X126669580Y-44038095D02*
X126574342Y-43990476D01*
X126574342Y-43990476D02*
X125764819Y-43990476D01*
X125764819Y-43609523D02*
X125764819Y-42990476D01*
X125764819Y-42990476D02*
X126145771Y-43323809D01*
X126145771Y-43323809D02*
X126145771Y-43180952D01*
X126145771Y-43180952D02*
X126193390Y-43085714D01*
X126193390Y-43085714D02*
X126241009Y-43038095D01*
X126241009Y-43038095D02*
X126336247Y-42990476D01*
X126336247Y-42990476D02*
X126574342Y-42990476D01*
X126574342Y-42990476D02*
X126669580Y-43038095D01*
X126669580Y-43038095D02*
X126717200Y-43085714D01*
X126717200Y-43085714D02*
X126764819Y-43180952D01*
X126764819Y-43180952D02*
X126764819Y-43466666D01*
X126764819Y-43466666D02*
X126717200Y-43561904D01*
X126717200Y-43561904D02*
X126669580Y-43609523D01*
X98244819Y-47442856D02*
X98244819Y-46776190D01*
X98244819Y-46776190D02*
X99244819Y-47204761D01*
X98578152Y-45966666D02*
X99244819Y-45966666D01*
X98197200Y-46204761D02*
X98911485Y-46442856D01*
X98911485Y-46442856D02*
X98911485Y-45823809D01*
X99244819Y-45442856D02*
X98244819Y-45442856D01*
X98721009Y-45442856D02*
X98721009Y-44871428D01*
X99244819Y-44871428D02*
X98244819Y-44871428D01*
X99149580Y-43823809D02*
X99197200Y-43871428D01*
X99197200Y-43871428D02*
X99244819Y-44014285D01*
X99244819Y-44014285D02*
X99244819Y-44109523D01*
X99244819Y-44109523D02*
X99197200Y-44252380D01*
X99197200Y-44252380D02*
X99101961Y-44347618D01*
X99101961Y-44347618D02*
X99006723Y-44395237D01*
X99006723Y-44395237D02*
X98816247Y-44442856D01*
X98816247Y-44442856D02*
X98673390Y-44442856D01*
X98673390Y-44442856D02*
X98482914Y-44395237D01*
X98482914Y-44395237D02*
X98387676Y-44347618D01*
X98387676Y-44347618D02*
X98292438Y-44252380D01*
X98292438Y-44252380D02*
X98244819Y-44109523D01*
X98244819Y-44109523D02*
X98244819Y-44014285D01*
X98244819Y-44014285D02*
X98292438Y-43871428D01*
X98292438Y-43871428D02*
X98340057Y-43823809D01*
X98244819Y-43538094D02*
X98244819Y-42966666D01*
X99244819Y-43252380D02*
X98244819Y-43252380D01*
X98340057Y-42680951D02*
X98292438Y-42633332D01*
X98292438Y-42633332D02*
X98244819Y-42538094D01*
X98244819Y-42538094D02*
X98244819Y-42299999D01*
X98244819Y-42299999D02*
X98292438Y-42204761D01*
X98292438Y-42204761D02*
X98340057Y-42157142D01*
X98340057Y-42157142D02*
X98435295Y-42109523D01*
X98435295Y-42109523D02*
X98530533Y-42109523D01*
X98530533Y-42109523D02*
X98673390Y-42157142D01*
X98673390Y-42157142D02*
X99244819Y-42728570D01*
X99244819Y-42728570D02*
X99244819Y-42109523D01*
X98578152Y-41252380D02*
X99244819Y-41252380D01*
X98197200Y-41490475D02*
X98911485Y-41728570D01*
X98911485Y-41728570D02*
X98911485Y-41109523D01*
X98578152Y-40299999D02*
X99244819Y-40299999D01*
X98197200Y-40538094D02*
X98911485Y-40776189D01*
X98911485Y-40776189D02*
X98911485Y-40157142D01*
X198638095Y-127304819D02*
X198638095Y-126304819D01*
X198638095Y-126781009D02*
X199209523Y-126781009D01*
X199209523Y-127304819D02*
X199209523Y-126304819D01*
X200114285Y-126638152D02*
X200114285Y-127304819D01*
X199876190Y-126257200D02*
X199638095Y-126971485D01*
X199638095Y-126971485D02*
X200257142Y-126971485D01*
X167764819Y-51479047D02*
X167764819Y-51669523D01*
X167764819Y-51669523D02*
X167812438Y-51764761D01*
X167812438Y-51764761D02*
X167860057Y-51812380D01*
X167860057Y-51812380D02*
X168002914Y-51907618D01*
X168002914Y-51907618D02*
X168193390Y-51955237D01*
X168193390Y-51955237D02*
X168574342Y-51955237D01*
X168574342Y-51955237D02*
X168669580Y-51907618D01*
X168669580Y-51907618D02*
X168717200Y-51859999D01*
X168717200Y-51859999D02*
X168764819Y-51764761D01*
X168764819Y-51764761D02*
X168764819Y-51574285D01*
X168764819Y-51574285D02*
X168717200Y-51479047D01*
X168717200Y-51479047D02*
X168669580Y-51431428D01*
X168669580Y-51431428D02*
X168574342Y-51383809D01*
X168574342Y-51383809D02*
X168336247Y-51383809D01*
X168336247Y-51383809D02*
X168241009Y-51431428D01*
X168241009Y-51431428D02*
X168193390Y-51479047D01*
X168193390Y-51479047D02*
X168145771Y-51574285D01*
X168145771Y-51574285D02*
X168145771Y-51764761D01*
X168145771Y-51764761D02*
X168193390Y-51859999D01*
X168193390Y-51859999D02*
X168241009Y-51907618D01*
X168241009Y-51907618D02*
X168336247Y-51955237D01*
X168193390Y-50812380D02*
X168145771Y-50907618D01*
X168145771Y-50907618D02*
X168098152Y-50955237D01*
X168098152Y-50955237D02*
X168002914Y-51002856D01*
X168002914Y-51002856D02*
X167955295Y-51002856D01*
X167955295Y-51002856D02*
X167860057Y-50955237D01*
X167860057Y-50955237D02*
X167812438Y-50907618D01*
X167812438Y-50907618D02*
X167764819Y-50812380D01*
X167764819Y-50812380D02*
X167764819Y-50621904D01*
X167764819Y-50621904D02*
X167812438Y-50526666D01*
X167812438Y-50526666D02*
X167860057Y-50479047D01*
X167860057Y-50479047D02*
X167955295Y-50431428D01*
X167955295Y-50431428D02*
X168002914Y-50431428D01*
X168002914Y-50431428D02*
X168098152Y-50479047D01*
X168098152Y-50479047D02*
X168145771Y-50526666D01*
X168145771Y-50526666D02*
X168193390Y-50621904D01*
X168193390Y-50621904D02*
X168193390Y-50812380D01*
X168193390Y-50812380D02*
X168241009Y-50907618D01*
X168241009Y-50907618D02*
X168288628Y-50955237D01*
X168288628Y-50955237D02*
X168383866Y-51002856D01*
X168383866Y-51002856D02*
X168574342Y-51002856D01*
X168574342Y-51002856D02*
X168669580Y-50955237D01*
X168669580Y-50955237D02*
X168717200Y-50907618D01*
X168717200Y-50907618D02*
X168764819Y-50812380D01*
X168764819Y-50812380D02*
X168764819Y-50621904D01*
X168764819Y-50621904D02*
X168717200Y-50526666D01*
X168717200Y-50526666D02*
X168669580Y-50479047D01*
X168669580Y-50479047D02*
X168574342Y-50431428D01*
X168574342Y-50431428D02*
X168383866Y-50431428D01*
X168383866Y-50431428D02*
X168288628Y-50479047D01*
X168288628Y-50479047D02*
X168241009Y-50526666D01*
X168241009Y-50526666D02*
X168193390Y-50621904D01*
X167764819Y-49812380D02*
X167764819Y-49717142D01*
X167764819Y-49717142D02*
X167812438Y-49621904D01*
X167812438Y-49621904D02*
X167860057Y-49574285D01*
X167860057Y-49574285D02*
X167955295Y-49526666D01*
X167955295Y-49526666D02*
X168145771Y-49479047D01*
X168145771Y-49479047D02*
X168383866Y-49479047D01*
X168383866Y-49479047D02*
X168574342Y-49526666D01*
X168574342Y-49526666D02*
X168669580Y-49574285D01*
X168669580Y-49574285D02*
X168717200Y-49621904D01*
X168717200Y-49621904D02*
X168764819Y-49717142D01*
X168764819Y-49717142D02*
X168764819Y-49812380D01*
X168764819Y-49812380D02*
X168717200Y-49907618D01*
X168717200Y-49907618D02*
X168669580Y-49955237D01*
X168669580Y-49955237D02*
X168574342Y-50002856D01*
X168574342Y-50002856D02*
X168383866Y-50050475D01*
X168383866Y-50050475D02*
X168145771Y-50050475D01*
X168145771Y-50050475D02*
X167955295Y-50002856D01*
X167955295Y-50002856D02*
X167860057Y-49955237D01*
X167860057Y-49955237D02*
X167812438Y-49907618D01*
X167812438Y-49907618D02*
X167764819Y-49812380D01*
X168098152Y-48621904D02*
X168764819Y-48621904D01*
X168098152Y-49050475D02*
X168621961Y-49050475D01*
X168621961Y-49050475D02*
X168717200Y-49002856D01*
X168717200Y-49002856D02*
X168764819Y-48907618D01*
X168764819Y-48907618D02*
X168764819Y-48764761D01*
X168764819Y-48764761D02*
X168717200Y-48669523D01*
X168717200Y-48669523D02*
X168669580Y-48621904D01*
X168241009Y-47812380D02*
X168241009Y-48145713D01*
X168764819Y-48145713D02*
X167764819Y-48145713D01*
X167764819Y-48145713D02*
X167764819Y-47669523D01*
X168764819Y-46764761D02*
X168764819Y-47336189D01*
X168764819Y-47050475D02*
X167764819Y-47050475D01*
X167764819Y-47050475D02*
X167907676Y-47145713D01*
X167907676Y-47145713D02*
X168002914Y-47240951D01*
X168002914Y-47240951D02*
X168050533Y-47336189D01*
X103774819Y-162443333D02*
X104489104Y-162443333D01*
X104489104Y-162443333D02*
X104631961Y-162490952D01*
X104631961Y-162490952D02*
X104727200Y-162586190D01*
X104727200Y-162586190D02*
X104774819Y-162729047D01*
X104774819Y-162729047D02*
X104774819Y-162824285D01*
X103774819Y-161538571D02*
X103774819Y-161729047D01*
X103774819Y-161729047D02*
X103822438Y-161824285D01*
X103822438Y-161824285D02*
X103870057Y-161871904D01*
X103870057Y-161871904D02*
X104012914Y-161967142D01*
X104012914Y-161967142D02*
X104203390Y-162014761D01*
X104203390Y-162014761D02*
X104584342Y-162014761D01*
X104584342Y-162014761D02*
X104679580Y-161967142D01*
X104679580Y-161967142D02*
X104727200Y-161919523D01*
X104727200Y-161919523D02*
X104774819Y-161824285D01*
X104774819Y-161824285D02*
X104774819Y-161633809D01*
X104774819Y-161633809D02*
X104727200Y-161538571D01*
X104727200Y-161538571D02*
X104679580Y-161490952D01*
X104679580Y-161490952D02*
X104584342Y-161443333D01*
X104584342Y-161443333D02*
X104346247Y-161443333D01*
X104346247Y-161443333D02*
X104251009Y-161490952D01*
X104251009Y-161490952D02*
X104203390Y-161538571D01*
X104203390Y-161538571D02*
X104155771Y-161633809D01*
X104155771Y-161633809D02*
X104155771Y-161824285D01*
X104155771Y-161824285D02*
X104203390Y-161919523D01*
X104203390Y-161919523D02*
X104251009Y-161967142D01*
X104251009Y-161967142D02*
X104346247Y-162014761D01*
X136524819Y-56533333D02*
X137239104Y-56533333D01*
X137239104Y-56533333D02*
X137381961Y-56580952D01*
X137381961Y-56580952D02*
X137477200Y-56676190D01*
X137477200Y-56676190D02*
X137524819Y-56819047D01*
X137524819Y-56819047D02*
X137524819Y-56914285D01*
X136620057Y-56104761D02*
X136572438Y-56057142D01*
X136572438Y-56057142D02*
X136524819Y-55961904D01*
X136524819Y-55961904D02*
X136524819Y-55723809D01*
X136524819Y-55723809D02*
X136572438Y-55628571D01*
X136572438Y-55628571D02*
X136620057Y-55580952D01*
X136620057Y-55580952D02*
X136715295Y-55533333D01*
X136715295Y-55533333D02*
X136810533Y-55533333D01*
X136810533Y-55533333D02*
X136953390Y-55580952D01*
X136953390Y-55580952D02*
X137524819Y-56152380D01*
X137524819Y-56152380D02*
X137524819Y-55533333D01*
D18*
%TO.C,J1*%
X135530000Y-77630000D02*
X134200000Y-77630000D01*
X135530000Y-76300000D02*
X135530000Y-77630000D01*
X132930000Y-77630000D02*
X87150000Y-77630000D01*
X132930000Y-74970000D02*
X132930000Y-77630000D01*
X132930000Y-74970000D02*
X87150000Y-74970000D01*
X87150000Y-74970000D02*
X87150000Y-77630000D01*
%TO.C,L1*%
X179490000Y-64710000D02*
X192090000Y-64710000D01*
X179490000Y-67710000D02*
X179490000Y-64710000D01*
X179490000Y-77310000D02*
X179490000Y-74310000D01*
X192090000Y-64710000D02*
X192090000Y-67710000D01*
X192090000Y-74310000D02*
X192090000Y-77310000D01*
X192090000Y-77310000D02*
X179490000Y-77310000D01*
%TO.C,J5*%
X92420000Y-91080000D02*
X92420000Y-89700000D01*
X93800000Y-91080000D02*
X92420000Y-91080000D01*
X95070000Y-88320000D02*
X128200000Y-88320000D01*
X95070000Y-91080000D02*
X95070000Y-88320000D01*
X95070000Y-91080000D02*
X128200000Y-91080000D01*
X128200000Y-91080000D02*
X128200000Y-88320000D01*
%TO.C,J7*%
X175930000Y-37880000D02*
X184470000Y-37880000D01*
X175930000Y-46120000D02*
X175930000Y-37880000D01*
X176750000Y-38850000D02*
X178651000Y-38850000D01*
X176750000Y-41650000D02*
X176750000Y-38850000D01*
X176750000Y-42350000D02*
X177970000Y-42350000D01*
X176750000Y-45150000D02*
X176750000Y-42350000D01*
X177970000Y-45150000D02*
X176750000Y-45150000D01*
X178651000Y-41650000D02*
X176750000Y-41650000D01*
X180850000Y-38851000D02*
X180850000Y-37880000D01*
X180850000Y-41970000D02*
X180850000Y-41649000D01*
X180850000Y-46120000D02*
X180850000Y-45530000D01*
X184470000Y-37880000D02*
X184470000Y-43450000D01*
X184470000Y-44050000D02*
X184470000Y-46120000D01*
X184470000Y-46120000D02*
X175930000Y-46120000D01*
X177970000Y-44734000D02*
G75*
G02*
X177970000Y-42766000I180400J984000D01*
G01*
X178272000Y-41242000D02*
G75*
G02*
X178272000Y-39258000I-122469J992000D01*
G01*
X185080000Y-44190000D02*
X184470000Y-43750000D01*
X185080000Y-43310000D01*
X185080000Y-44190000D01*
G36*
X185080000Y-44190000D02*
G01*
X184470000Y-43750000D01*
X185080000Y-43310000D01*
X185080000Y-44190000D01*
G37*
%TO.C,A2*%
X155760000Y-96960000D02*
X155760000Y-98360000D01*
X155760000Y-99630000D02*
X155760000Y-117540000D01*
X155760000Y-117540000D02*
X171260000Y-117540000D01*
X157160000Y-96960000D02*
X155760000Y-96960000D01*
X158430000Y-96960000D02*
X158430000Y-99630000D01*
X158430000Y-99630000D02*
X155760000Y-99630000D01*
X158430000Y-99630000D02*
X158430000Y-117540000D01*
X168590000Y-96960000D02*
X168590000Y-117540000D01*
X171260000Y-96960000D02*
X158430000Y-96960000D01*
X171260000Y-117540000D02*
X171260000Y-96960000D01*
%TO.C,C1*%
X173692500Y-114280000D02*
X175492500Y-114280000D01*
X174072500Y-101840000D02*
X180312500Y-101840000D01*
X174072500Y-109480000D02*
X174072500Y-101840000D01*
X174072500Y-111280000D02*
X174972500Y-110380000D01*
X174072500Y-113080000D02*
X174072500Y-111280000D01*
X174072500Y-113080000D02*
X180312500Y-113080000D01*
X174592500Y-115180000D02*
X174592500Y-113380000D01*
X174972500Y-110380000D02*
X174072500Y-109480000D01*
X177192500Y-99900000D02*
X177192500Y-101840000D01*
X177192500Y-115020000D02*
X177192500Y-113080000D01*
X179412500Y-110380000D02*
X180312500Y-109480000D01*
X180312500Y-109480000D02*
X180312500Y-101840000D01*
X180312500Y-111280000D02*
X179412500Y-110380000D01*
X180312500Y-113080000D02*
X180312500Y-111280000D01*
%TO.C,U1*%
X157140000Y-73935000D02*
X158090000Y-73935000D01*
X157140000Y-75300000D02*
X157140000Y-73935000D01*
X167540000Y-73935000D02*
X166590000Y-73935000D01*
X167540000Y-75300000D02*
X167540000Y-73935000D01*
X167020000Y-71450000D02*
X166550000Y-71110000D01*
X167020000Y-70770000D01*
X167020000Y-71450000D01*
G36*
X167020000Y-71450000D02*
G01*
X166550000Y-71110000D01*
X167020000Y-70770000D01*
X167020000Y-71450000D01*
G37*
%TO.C,A1*%
X183900000Y-96900000D02*
X183900000Y-98300000D01*
X183900000Y-99570000D02*
X183900000Y-117480000D01*
X183900000Y-117480000D02*
X199400000Y-117480000D01*
X185300000Y-96900000D02*
X183900000Y-96900000D01*
X186570000Y-96900000D02*
X186570000Y-99570000D01*
X186570000Y-99570000D02*
X183900000Y-99570000D01*
X186570000Y-99570000D02*
X186570000Y-117480000D01*
X196730000Y-96900000D02*
X196730000Y-117480000D01*
X199400000Y-96900000D02*
X186570000Y-96900000D01*
X199400000Y-117480000D02*
X199400000Y-96900000D01*
%TO.C,C2*%
X145392500Y-114320000D02*
X147192500Y-114320000D01*
X145772500Y-101880000D02*
X152012500Y-101880000D01*
X145772500Y-109520000D02*
X145772500Y-101880000D01*
X145772500Y-111320000D02*
X146672500Y-110420000D01*
X145772500Y-113120000D02*
X145772500Y-111320000D01*
X145772500Y-113120000D02*
X152012500Y-113120000D01*
X146292500Y-115220000D02*
X146292500Y-113420000D01*
X146672500Y-110420000D02*
X145772500Y-109520000D01*
X148892500Y-99940000D02*
X148892500Y-101880000D01*
X148892500Y-115060000D02*
X148892500Y-113120000D01*
X151112500Y-110420000D02*
X152012500Y-109520000D01*
X152012500Y-109520000D02*
X152012500Y-101880000D01*
X152012500Y-111320000D02*
X151112500Y-110420000D01*
X152012500Y-113120000D02*
X152012500Y-111320000D01*
%TO.C,J3*%
X176190000Y-125550000D02*
X188610000Y-125550000D01*
X176190000Y-132790000D02*
X176190000Y-125550000D01*
X189210000Y-125550000D02*
X191130000Y-125550000D01*
X191130000Y-125550000D02*
X191130000Y-132790000D01*
X191130000Y-127170000D02*
X176190000Y-127170000D01*
X191130000Y-132790000D02*
X176190000Y-132790000D01*
X188910000Y-125550000D02*
X188470000Y-124940000D01*
X189350000Y-124940000D01*
X188910000Y-125550000D01*
G36*
X188910000Y-125550000D02*
G01*
X188470000Y-124940000D01*
X189350000Y-124940000D01*
X188910000Y-125550000D01*
G37*
%TO.C,J4*%
X158030000Y-125530000D02*
X170450000Y-125530000D01*
X158030000Y-132770000D02*
X158030000Y-125530000D01*
X171050000Y-125530000D02*
X172970000Y-125530000D01*
X172970000Y-125530000D02*
X172970000Y-132770000D01*
X172970000Y-127150000D02*
X158030000Y-127150000D01*
X172970000Y-132770000D02*
X158030000Y-132770000D01*
X170750000Y-125530000D02*
X170310000Y-124920000D01*
X171190000Y-124920000D01*
X170750000Y-125530000D01*
G36*
X170750000Y-125530000D02*
G01*
X170310000Y-124920000D01*
X171190000Y-124920000D01*
X170750000Y-125530000D01*
G37*
%TO.C,D1*%
X171220000Y-66565000D02*
X176660000Y-66565000D01*
X171220000Y-66685000D02*
X176660000Y-66685000D01*
X171220000Y-66805000D02*
X176660000Y-66805000D01*
X173940000Y-57580000D02*
X173940000Y-58490000D01*
X173940000Y-69140000D02*
X173940000Y-68230000D01*
X171220000Y-68230000D02*
X176660000Y-68230000D01*
X176660000Y-58490000D01*
X171220000Y-58490000D01*
X171220000Y-68230000D01*
%TO.C,J8*%
X77060000Y-59650000D02*
X78440000Y-59650000D01*
X77060000Y-61030000D02*
X77060000Y-59650000D01*
X77060000Y-62300000D02*
X77060000Y-72570000D01*
X77060000Y-62300000D02*
X79820000Y-62300000D01*
X77060000Y-72570000D02*
X79820000Y-72570000D01*
X79820000Y-62300000D02*
X79820000Y-72570000D01*
%TO.C,220uF1*%
X182030000Y-56010000D02*
X183970000Y-56010000D01*
X183970000Y-59130000D02*
X183970000Y-52890000D01*
X191610000Y-52890000D02*
X183970000Y-52890000D01*
X191610000Y-59130000D02*
X183970000Y-59130000D01*
X192510000Y-53790000D02*
X191610000Y-52890000D01*
X192510000Y-58230000D02*
X191610000Y-59130000D01*
X193410000Y-52890000D02*
X192510000Y-53790000D01*
X193410000Y-59130000D02*
X192510000Y-58230000D01*
X195210000Y-52890000D02*
X193410000Y-52890000D01*
X195210000Y-59130000D02*
X193410000Y-59130000D01*
X195210000Y-59130000D02*
X195210000Y-52890000D01*
X196410000Y-59510000D02*
X196410000Y-57710000D01*
X197150000Y-56010000D02*
X195210000Y-56010000D01*
X197310000Y-58610000D02*
X195510000Y-58610000D01*
%TO.C,U3*%
X99790000Y-41150000D02*
X99790000Y-46450000D01*
X99790000Y-46450000D02*
X125310000Y-46450000D01*
X125310000Y-41150000D02*
X99790000Y-41150000D01*
X125310000Y-42800000D02*
X125310000Y-41150000D01*
X125310000Y-46450000D02*
X125310000Y-44800000D01*
X125310000Y-44800000D02*
G75*
G02*
X125310000Y-42800000I0J1000000D01*
G01*
%TO.C,680uF1*%
X157070000Y-40240000D02*
X157070000Y-42040000D01*
X157070000Y-42040000D02*
X157970000Y-42940000D01*
X157070000Y-43840000D02*
X157070000Y-58480000D01*
X157970000Y-42940000D02*
X157070000Y-43840000D01*
X162190000Y-38300000D02*
X162190000Y-40240000D01*
X162190000Y-60420000D02*
X162190000Y-58480000D01*
X164790000Y-38140000D02*
X164790000Y-39940000D01*
X165690000Y-39040000D02*
X163890000Y-39040000D01*
X166410000Y-42940000D02*
X167310000Y-43840000D01*
X167310000Y-40240000D02*
X157070000Y-40240000D01*
X167310000Y-40240000D02*
X167310000Y-42040000D01*
X167310000Y-42040000D02*
X166410000Y-42940000D01*
X167310000Y-43840000D02*
X167310000Y-58480000D01*
X167310000Y-58480000D02*
X157070000Y-58480000D01*
%TO.C,J6*%
X105320000Y-163490000D02*
X105320000Y-162110000D01*
X106700000Y-163490000D02*
X105320000Y-163490000D01*
X107970000Y-160730000D02*
X115700000Y-160730000D01*
X107970000Y-163490000D02*
X107970000Y-160730000D01*
X107970000Y-163490000D02*
X115700000Y-163490000D01*
X115700000Y-163490000D02*
X115700000Y-160730000D01*
%TO.C,J2*%
X135630000Y-57530000D02*
X134300000Y-57530000D01*
X135630000Y-56200000D02*
X135630000Y-57530000D01*
X133030000Y-57530000D02*
X87250000Y-57530000D01*
X133030000Y-54870000D02*
X133030000Y-57530000D01*
X133030000Y-54870000D02*
X87250000Y-54870000D01*
X87250000Y-54870000D02*
X87250000Y-57530000D01*
%TD*%
M02*
