M48
; DRILL file {KiCad 9.0.6} date 2026-07-06T13:09:05+0500
; FORMAT={-:-/ absolute / metric / decimal}
; #@! TF.CreationDate,2026-07-06T13:09:05+05:00
; #@! TF.GenerationSoftware,Kicad,Pcbnew,9.0.6
; #@! TF.FileFunction,Plated,1,2,PTH
FMAT,2
METRIC
; #@! TA.AperFunction,Plated,PTH,ViaDrill
T1C0.300
; #@! TA.AperFunction,Plated,PTH,ViaDrill
T2C0.400
; #@! TA.AperFunction,Plated,PTH,ViaDrill
T3C0.600
; #@! TA.AperFunction,Plated,PTH,ComponentDrill
T4C0.800
; #@! TA.AperFunction,Plated,PTH,ComponentDrill
T5C1.000
; #@! TA.AperFunction,Plated,PTH,ComponentDrill
T6C1.200
; #@! TA.AperFunction,Plated,PTH,ComponentDrill
T7C1.300
; #@! TA.AperFunction,Plated,PTH,ComponentDrill
T8C1.600
; #@! TA.AperFunction,Plated,PTH,ComponentDrill
T9C2.200
%
G90
G05
T1
X83.25Y-92.0
X87.5Y-92.25
X105.2Y-52.5
X114.75Y-51.25
X121.5Y-52.9
X126.6Y-53.0
X127.3Y-86.4
X127.5Y-50.75
X150.5Y-79.5
X152.7Y-93.5
X155.7Y-66.8
X156.7Y-72.6
X159.1Y-115.2
X161.3Y-67.8
X162.1Y-106.2
X162.4Y-74.6
X163.6Y-67.9
X164.0Y-98.5
X165.8Y-93.8
X166.9Y-115.1
X167.4Y-111.2
X185.5Y-93.2
X189.2Y-103.8
X191.0Y-111.9
X192.8Y-108.8
X193.0Y-107.3
X194.0Y-100.2
X201.1Y-103.3
T2
X75.0Y-35.0
X75.0Y-40.0
X75.0Y-45.0
X75.0Y-50.0
X75.0Y-55.0
X75.0Y-60.0
X75.0Y-65.0
X75.0Y-70.0
X75.0Y-75.0
X75.0Y-80.0
X80.0Y-35.0
X80.0Y-40.0
X80.0Y-45.0
X80.0Y-50.0
X80.0Y-55.0
X80.0Y-70.0
X80.0Y-75.0
X80.0Y-80.0
X80.0Y-85.0
X80.0Y-90.0
X80.0Y-95.0
X80.0Y-100.0
X80.0Y-105.0
X80.0Y-110.0
X80.0Y-115.0
X80.0Y-120.0
X80.0Y-125.0
X80.0Y-130.0
X80.0Y-135.0
X80.0Y-140.0
X80.0Y-145.0
X80.0Y-150.0
X80.0Y-155.0
X80.0Y-160.0
X80.0Y-165.0
X85.0Y-35.0
X85.0Y-40.0
X85.0Y-45.0
X85.0Y-50.0
X85.0Y-55.0
X85.0Y-60.0
X85.0Y-70.0
X85.0Y-75.0
X85.0Y-145.0
X85.0Y-150.0
X85.0Y-155.0
X85.0Y-160.0
X85.0Y-165.0
X90.0Y-35.0
X90.0Y-40.0
X90.0Y-45.0
X90.0Y-50.0
X90.0Y-60.0
X90.0Y-80.0
X90.0Y-85.0
X90.0Y-90.0
X90.0Y-95.0
X90.0Y-100.0
X90.0Y-105.0
X90.0Y-110.0
X90.0Y-115.0
X90.0Y-120.0
X90.0Y-125.0
X90.0Y-130.0
X90.0Y-135.0
X90.0Y-140.0
X90.0Y-150.0
X90.0Y-155.0
X90.0Y-160.0
X90.0Y-165.0
X95.0Y-35.0
X95.0Y-40.0
X95.0Y-45.0
X95.0Y-50.0
X95.0Y-60.0
X95.0Y-65.0
X95.0Y-80.0
X95.0Y-85.0
X95.0Y-95.0
X95.0Y-100.0
X95.0Y-105.0
X95.0Y-110.0
X95.0Y-115.0
X95.0Y-120.0
X95.0Y-125.0
X95.0Y-130.0
X95.0Y-135.0
X95.0Y-140.0
X95.0Y-145.0
X95.0Y-155.0
X95.0Y-160.0
X95.0Y-165.0
X100.0Y-35.0
X100.0Y-45.0
X100.0Y-50.0
X100.0Y-55.0
X100.0Y-60.0
X100.0Y-65.0
X100.0Y-70.0
X100.0Y-80.0
X100.0Y-160.0
X100.0Y-165.0
X105.0Y-35.0
X105.0Y-60.0
X105.0Y-65.0
X105.0Y-70.0
X105.0Y-75.0
X105.0Y-165.0
X110.0Y-35.0
X110.0Y-60.0
X110.0Y-65.0
X110.0Y-70.0
X110.0Y-75.0
X110.0Y-165.0
X115.0Y-35.0
X115.0Y-60.0
X115.0Y-65.0
X115.0Y-70.0
X115.0Y-85.0
X115.0Y-165.0
X120.0Y-35.0
X120.0Y-45.0
X120.0Y-65.0
X120.0Y-70.0
X120.0Y-80.0
X120.0Y-85.0
X120.0Y-95.0
X120.0Y-100.0
X120.0Y-105.0
X120.0Y-110.0
X120.0Y-115.0
X120.0Y-120.0
X120.0Y-125.0
X120.0Y-130.0
X120.0Y-135.0
X120.0Y-140.0
X120.0Y-145.0
X120.0Y-150.0
X120.0Y-155.0
X120.0Y-160.0
X120.0Y-165.0
X125.0Y-35.0
X125.0Y-45.0
X125.0Y-60.0
X125.0Y-70.0
X125.0Y-80.0
X125.0Y-85.0
X125.0Y-95.0
X125.0Y-100.0
X125.0Y-105.0
X125.0Y-110.0
X125.0Y-115.0
X125.0Y-120.0
X125.0Y-125.0
X125.0Y-130.0
X125.0Y-135.0
X125.0Y-140.0
X125.0Y-145.0
X125.0Y-150.0
X125.0Y-155.0
X125.0Y-160.0
X125.0Y-165.0
X130.0Y-35.0
X130.0Y-40.0
X130.0Y-45.0
X130.0Y-80.0
X130.0Y-85.0
X130.0Y-90.0
X130.0Y-95.0
X130.0Y-100.0
X130.0Y-105.0
X130.0Y-110.0
X130.0Y-115.0
X130.0Y-120.0
X130.0Y-125.0
X130.0Y-130.0
X130.0Y-135.0
X130.0Y-140.0
X130.0Y-145.0
X130.0Y-150.0
X130.0Y-155.0
X130.0Y-160.0
X130.0Y-165.0
X135.0Y-35.0
X135.0Y-40.0
X135.0Y-45.0
X135.0Y-50.0
X135.0Y-60.0
X135.0Y-65.0
X135.0Y-85.0
X135.0Y-90.0
X135.0Y-95.0
X135.0Y-100.0
X135.0Y-105.0
X135.0Y-110.0
X135.0Y-115.0
X135.0Y-120.0
X135.0Y-125.0
X135.0Y-130.0
X135.0Y-135.0
X135.0Y-140.0
X135.0Y-145.0
X135.0Y-150.0
X135.0Y-155.0
X135.0Y-160.0
X135.0Y-165.0
X140.0Y-35.0
X140.0Y-40.0
X140.0Y-45.0
X140.0Y-50.0
X140.0Y-55.0
X140.0Y-65.0
X140.0Y-90.0
X140.0Y-95.0
X140.0Y-100.0
X140.0Y-105.0
X140.0Y-110.0
X140.0Y-115.0
X140.0Y-120.0
X140.0Y-125.0
X140.0Y-130.0
X145.0Y-35.0
X145.0Y-40.0
X145.0Y-45.0
X145.0Y-50.0
X145.0Y-55.0
X145.0Y-60.0
X145.0Y-65.0
X145.0Y-120.0
X145.0Y-125.0
X145.0Y-130.0
X150.0Y-35.0
X150.0Y-40.0
X150.0Y-45.0
X150.0Y-50.0
X150.0Y-55.0
X150.0Y-60.0
X150.0Y-65.0
X150.0Y-70.0
X150.0Y-105.0
X150.0Y-110.0
X150.0Y-120.0
X150.0Y-125.0
X150.0Y-130.0
X155.0Y-35.0
X155.0Y-40.0
X155.0Y-45.0
X155.0Y-50.0
X155.0Y-55.0
X155.0Y-60.0
X155.0Y-65.0
X155.0Y-105.0
X155.0Y-110.0
X155.0Y-120.0
X155.0Y-125.0
X155.0Y-130.0
X160.0Y-35.0
X160.0Y-40.0
X160.0Y-45.0
X160.0Y-50.0
X160.0Y-55.0
X160.0Y-60.0
X165.0Y-35.0
X165.0Y-95.0
X165.0Y-100.0
X170.0Y-35.0
X170.0Y-40.0
X170.0Y-45.0
X170.0Y-50.0
X170.0Y-55.0
X170.0Y-60.0
X170.0Y-65.0
X170.0Y-70.0
X170.0Y-80.0
X170.0Y-85.0
X170.0Y-95.0
X170.0Y-120.0
X170.0Y-125.0
X175.0Y-35.0
X175.0Y-40.0
X175.0Y-45.0
X175.0Y-50.0
X175.0Y-60.0
X175.0Y-65.0
X175.0Y-75.0
X175.0Y-80.0
X175.0Y-95.0
X175.0Y-100.0
X175.0Y-105.0
X175.0Y-110.0
X175.0Y-120.0
X175.0Y-125.0
X175.0Y-130.0
X180.0Y-35.0
X180.0Y-50.0
X180.0Y-60.0
X180.0Y-65.0
X180.0Y-75.0
X180.0Y-85.0
X180.0Y-100.0
X180.0Y-105.0
X180.0Y-110.0
X180.0Y-125.0
X185.0Y-35.0
X185.0Y-40.0
X185.0Y-45.0
X185.0Y-50.0
X185.0Y-55.0
X185.0Y-60.0
X185.0Y-65.0
X185.0Y-70.0
X185.0Y-80.0
X185.0Y-85.0
X185.0Y-95.0
X185.0Y-120.0
X190.0Y-35.0
X190.0Y-40.0
X190.0Y-45.0
X190.0Y-50.0
X190.0Y-55.0
X190.0Y-60.0
X190.0Y-65.0
X190.0Y-75.0
X190.0Y-80.0
X190.0Y-85.0
X190.0Y-95.0
X190.0Y-105.0
X195.0Y-35.0
X195.0Y-40.0
X195.0Y-45.0
X195.0Y-50.0
X195.0Y-55.0
X195.0Y-60.0
X195.0Y-70.0
X195.0Y-75.0
X195.0Y-80.0
X195.0Y-85.0
X195.0Y-90.0
X195.0Y-110.0
X195.0Y-120.0
X195.0Y-125.0
X195.0Y-130.0
X200.0Y-35.0
X200.0Y-40.0
X200.0Y-45.0
X200.0Y-50.0
X200.0Y-60.0
X200.0Y-65.0
X200.0Y-70.0
X200.0Y-75.0
X200.0Y-80.0
X200.0Y-85.0
X200.0Y-90.0
X200.0Y-95.0
X200.0Y-105.0
X200.0Y-110.0
X200.0Y-115.0
X200.0Y-120.0
X200.0Y-125.0
X200.0Y-130.0
T3
X149.2Y-75.3
X153.7Y-75.3
X155.6Y-76.4
X155.7Y-82.0
X157.6Y-76.2
X157.6Y-79.9
X157.9Y-84.2
X159.7Y-80.2
X160.1Y-78.0
X160.1Y-82.4
X161.2Y-86.4
X162.34Y-80.26
X162.4Y-76.1
X162.4Y-82.4
X162.4Y-84.3
X162.5Y-78.2
X164.7Y-80.2
X164.7Y-82.5
X165.0Y-77.9
X166.8Y-80.1
X166.9Y-84.2
X167.0Y-76.1
X167.4Y-121.4
T4
X101.12Y-39.99
X101.12Y-47.61
X103.66Y-39.99
X103.66Y-47.61
X106.2Y-39.99
X106.2Y-47.61
X108.74Y-39.99
X108.74Y-47.61
X111.28Y-39.99
X111.28Y-47.61
X113.82Y-39.99
X113.82Y-47.61
X116.36Y-39.99
X116.36Y-47.61
X118.9Y-39.99
X118.9Y-47.61
X121.44Y-39.99
X121.44Y-47.61
X123.98Y-39.99
X123.98Y-47.61
X157.16Y-98.36
X157.16Y-100.9
X157.16Y-103.44
X157.16Y-105.98
X157.16Y-108.52
X157.16Y-111.06
X157.16Y-113.6
X157.16Y-116.14
X169.86Y-98.36
X169.86Y-100.9
X169.86Y-103.44
X169.86Y-105.98
X169.86Y-108.52
X169.86Y-111.06
X169.86Y-113.6
X169.86Y-116.14
X185.3Y-98.3
X185.3Y-100.84
X185.3Y-103.38
X185.3Y-105.92
X185.3Y-108.46
X185.3Y-111.0
X185.3Y-113.54
X185.3Y-116.08
X198.0Y-98.3
X198.0Y-100.84
X198.0Y-103.38
X198.0Y-105.92
X198.0Y-108.46
X198.0Y-111.0
X198.0Y-113.54
X198.0Y-116.08
T5
X78.44Y-61.03
X78.44Y-63.57
X78.44Y-66.11
X78.44Y-68.65
X78.44Y-71.19
X88.48Y-76.3
X88.58Y-56.2
X91.02Y-76.3
X91.12Y-56.2
X93.56Y-76.3
X93.66Y-56.2
X93.8Y-89.7
X96.1Y-76.3
X96.2Y-56.2
X96.34Y-89.7
X98.64Y-76.3
X98.74Y-56.2
X98.88Y-89.7
X101.18Y-76.3
X101.28Y-56.2
X101.42Y-89.7
X103.72Y-76.3
X103.82Y-56.2
X103.96Y-89.7
X106.26Y-76.3
X106.36Y-56.2
X106.5Y-89.7
X106.7Y-162.11
X108.8Y-76.3
X108.9Y-56.2
X109.04Y-89.7
X109.24Y-162.11
X111.34Y-76.3
X111.44Y-56.2
X111.58Y-89.7
X111.78Y-162.11
X113.88Y-76.3
X113.98Y-56.2
X114.12Y-89.7
X114.32Y-162.11
X116.42Y-76.3
X116.52Y-56.2
X116.66Y-89.7
X118.96Y-76.3
X119.06Y-56.2
X119.2Y-89.7
X121.5Y-76.3
X121.6Y-56.2
X121.74Y-89.7
X124.04Y-76.3
X124.14Y-56.2
X124.28Y-89.7
X126.58Y-76.3
X126.68Y-56.2
X126.82Y-89.7
X129.12Y-76.3
X129.22Y-56.2
X131.66Y-76.3
X131.76Y-56.2
X134.2Y-76.3
X134.3Y-56.2
T6
X148.892Y-98.5
X148.892Y-116.5
X160.25Y-129.25
X162.19Y-36.86
X162.19Y-61.86
X163.75Y-129.25
X167.25Y-129.25
X170.75Y-129.25
X177.192Y-98.46
X177.192Y-116.46
X178.41Y-129.27
X180.59Y-56.01
X181.91Y-129.27
X185.41Y-129.27
X188.91Y-129.27
X198.59Y-56.01
T7
X179.75Y-40.25
X179.75Y-43.75
T8
X173.94Y-55.74
X173.94Y-70.98
T9
X77.5Y-37.3
X81.6Y-161.4
X139.2Y-129.5
X197.7Y-37.8
X199.4Y-130.0
M30
